<svg width="824" height="776" viewBox="0 0 824 776" fill="none" xmlns="http://www.w3.org/2000/svg">
<path d="M0 369.065C136.649 247.557 276.77 123.364 411.368 0C467.677 52.1937 535.51 108.283 589.079 160.915C587.885 139.624 588.644 114.508 588.798 92.9227C612.098 93.3416 635.397 93.3669 658.683 92.9972L659.512 221.751C670.515 234.104 702.752 261.296 716.271 273.364L824 369.275C789.205 369.991 753.314 369.554 718.421 369.536C701.474 352.224 677.12 333.737 658.697 315.812C659.484 332.521 659.006 352.858 659.048 369.841C635.65 369.874 612.238 369.714 588.826 369.36C588.63 331.168 588.63 292.977 588.826 254.787C571.232 236.699 545.08 214.615 525.828 197.31L411.269 94.1275C371.106 131.703 328.807 168.321 288.181 205.516C279.918 213.085 241.132 248.896 234.415 252.407C233.066 297.04 234.429 346.627 234.246 391.622C234.134 422.12 233.052 470.869 235.904 500.07C236.93 502.615 238.813 513.101 239.432 516.473C253.808 594.092 342.509 667.718 412.211 697.885C472.202 667.204 542.241 618.026 571.092 554.501C576.137 543.416 587.716 510.769 586.381 498.531C582.39 495.605 580.732 496.636 574.942 496.632C521.949 496.713 464.234 495.555 411.691 496.888V424.683L659.006 424.975C659.259 458.054 660.664 485.457 654.495 518.251C653.666 532.182 644.799 560.635 639.599 573.994C603.624 666.474 498.439 738.379 410.637 776C352.711 748.947 304.651 720.812 257.602 677.402C136.902 566.036 168.619 460.394 163.125 316.562C145.362 334.072 122.836 352.927 103.78 369.735C69.9829 368.636 34.3732 369.914 0 369.065Z" fill="#122B70"/>
<path d="M412 425L659.685 425.291C659.938 458.168 661.345 485.405 655.167 518C653.928 509.65 655.392 490.36 655.8 481.161C656.645 464.754 656.884 448.321 656.518 431.897C635.449 429.906 593.89 431.176 571.625 431.21L416.602 431.256C416.546 440.454 416.321 473.906 420.121 480.679C441.653 490.663 489.589 479.997 512.768 486.411L459.598 486.4C449.873 486.309 423.555 483.268 417.827 491.289C422.668 498.372 564.377 486.981 575.495 496.512C522.423 496.593 464.622 495.442 412 496.766V425Z" fill="#122B70"/>
<path d="M411.836 154L505.307 237.758L521.559 252.87C530.659 260.636 539.802 268.346 549 276C533.996 269.336 513.258 262.746 497.427 257.251C468.906 247.24 440.287 237.472 411.598 227.948C367.246 242.132 321.099 259.067 277 274.375C293.967 261.279 316.023 240.113 332.317 225.349L411.836 154Z" fill="#E98721"/>
</svg>
