<svg width="824" height="1081" viewBox="0 0 824 1081" fill="none" xmlns="http://www.w3.org/2000/svg">
<path d="M0 369.065C136.649 247.557 276.77 123.364 411.368 0C467.677 52.1937 535.51 108.283 589.079 160.915C587.885 139.624 588.644 114.508 588.798 92.9227C612.098 93.3416 635.397 93.3669 658.683 92.9972L659.512 221.751C670.515 234.104 702.752 261.296 716.271 273.364L824 369.275C789.205 369.991 753.314 369.554 718.421 369.536C701.474 352.224 677.12 333.737 658.697 315.812C659.484 332.521 659.006 352.858 659.048 369.841C635.65 369.874 612.238 369.714 588.826 369.36C588.63 331.168 588.63 292.977 588.826 254.787C571.232 236.699 545.08 214.615 525.828 197.31L411.269 94.1275C371.106 131.703 328.807 168.321 288.181 205.516C279.918 213.085 241.132 248.896 234.415 252.407C233.066 297.04 234.429 346.627 234.246 391.622C234.134 422.12 233.052 470.869 235.904 500.07C236.93 502.615 238.813 513.101 239.432 516.473C253.808 594.092 342.509 667.718 412.211 697.885C472.202 667.204 542.241 618.026 571.092 554.501C576.137 543.416 587.716 510.769 586.381 498.531C582.39 495.605 580.732 496.636 574.942 496.632C521.949 496.713 464.234 495.555 411.691 496.888V424.683L659.006 424.975C659.259 458.054 660.664 485.457 654.495 518.251C653.666 532.182 644.799 560.635 639.599 573.994C603.624 666.474 498.439 738.379 410.637 776C352.711 748.947 304.651 720.812 257.602 677.402C136.902 566.036 168.619 460.394 163.125 316.562C145.362 334.072 122.836 352.927 103.78 369.735C69.9829 368.636 34.3732 369.914 0 369.065Z" fill="#122B70"/>
<path d="M412 425L659.685 425.291C659.938 458.168 661.345 485.405 655.167 518C653.928 509.65 655.392 490.36 655.8 481.161C656.645 464.754 656.884 448.321 656.518 431.897C635.449 429.906 593.89 431.176 571.625 431.21L416.602 431.256C416.546 440.454 416.321 473.906 420.121 480.679C441.653 490.663 489.589 479.997 512.768 486.411L459.598 486.4C449.873 486.309 423.555 483.268 417.827 491.289C422.668 498.372 564.377 486.981 575.495 496.512C522.423 496.593 464.622 495.442 412 496.766V425Z" fill="#122B70"/>
<path d="M411.836 154L505.307 237.758L521.559 252.87C530.659 260.636 539.802 268.346 549 276C533.996 269.336 513.258 262.746 497.427 257.251C468.906 247.24 440.287 237.472 411.598 227.948C367.246 242.132 321.099 259.067 277 274.375C293.967 261.279 316.023 240.113 332.317 225.349L411.836 154Z" fill="#E98721"/>
<path d="M174.143 896.595C173.129 892.837 171.638 889.526 169.669 886.662C167.7 883.739 165.284 881.263 162.42 879.234C159.557 877.206 156.276 875.685 152.577 874.67C148.878 873.597 144.821 873.06 140.406 873.06C131.517 873.06 123.821 875.207 117.318 879.503C110.875 883.798 105.893 890.062 102.374 898.295C98.8537 906.469 97.0938 916.402 97.0938 928.095C97.0938 939.848 98.794 949.871 102.195 958.163C105.595 966.456 110.517 972.78 116.96 977.135C123.403 981.49 131.219 983.668 140.406 983.668C148.52 983.668 155.381 982.355 160.989 979.73C166.656 977.045 170.952 973.257 173.875 968.365C176.798 963.473 178.26 957.716 178.26 951.094L186.493 952.078H141.928V919.773H220.946V944.024C220.946 960.43 217.456 974.48 210.476 986.173C203.555 997.866 194.01 1006.85 181.839 1013.11C169.729 1019.37 155.798 1022.51 140.048 1022.51C122.568 1022.51 107.206 1018.72 93.9616 1011.14C80.7173 1003.56 70.3963 992.766 62.9986 978.746C55.6009 964.666 51.902 947.962 51.902 928.632C51.902 913.598 54.1392 900.264 58.6136 888.631C63.0881 876.937 69.3224 867.034 77.3168 858.92C85.3707 850.807 94.6776 844.662 105.237 840.486C115.857 836.31 127.281 834.222 139.511 834.222C150.131 834.222 160.004 835.743 169.132 838.786C178.32 841.828 186.433 846.124 193.473 851.672C200.572 857.22 206.33 863.812 210.744 871.449C215.159 879.085 217.903 887.467 218.977 896.595H174.143ZM247.054 1020V836.727H291.351V910.287H363.569V836.727H407.776V1020H363.569V946.351H291.351V1020H247.054ZM475.206 1020H427.598L489.434 836.727H548.407L610.244 1020H562.636L519.592 882.903H518.16L475.206 1020ZM468.852 947.872H568.363V981.52H468.852V947.872ZM629.976 1020V836.727H705.684C719.405 836.727 731.248 839.203 741.211 844.155C751.233 849.047 758.959 856.087 764.388 865.274C769.817 874.402 772.532 885.23 772.532 897.759C772.532 910.466 769.757 921.264 764.209 930.153C758.661 938.983 750.786 945.724 740.584 950.378C730.382 954.972 718.301 957.268 704.341 957.268H656.465V922.368H696.108C702.79 922.368 708.368 921.503 712.843 919.773C717.377 917.983 720.807 915.298 723.134 911.719C725.461 908.08 726.624 903.426 726.624 897.759C726.624 892.091 725.461 887.408 723.134 883.709C720.807 879.95 717.377 877.146 712.843 875.297C708.309 873.388 702.73 872.433 696.108 872.433H674.273V1020H629.976ZM733.157 936.239L778.796 1020H730.472L685.728 936.239H733.157Z" fill="#122B70"/>
</svg>
