<svg width="3483" height="1081" viewBox="0 0 3483 1081" fill="none" xmlns="http://www.w3.org/2000/svg">
<path d="M0 369.065C136.649 247.557 276.77 123.364 411.368 0C467.677 52.1937 535.51 108.283 589.079 160.915C587.885 139.624 588.644 114.508 588.798 92.9227C612.098 93.3416 635.397 93.3669 658.683 92.9972L659.512 221.751C670.515 234.104 702.752 261.296 716.271 273.364L824 369.275C789.205 369.991 753.314 369.554 718.421 369.536C701.474 352.224 677.12 333.737 658.697 315.812C659.484 332.521 659.006 352.858 659.048 369.841C635.65 369.874 612.238 369.714 588.826 369.36C588.63 331.168 588.63 292.977 588.826 254.787C571.232 236.699 545.08 214.615 525.828 197.31L411.269 94.1275C371.106 131.703 328.807 168.321 288.181 205.516C279.918 213.085 241.132 248.896 234.415 252.407C233.066 297.04 234.429 346.627 234.246 391.622C234.134 422.12 233.052 470.869 235.904 500.07C236.93 502.615 238.813 513.101 239.432 516.473C253.808 594.092 342.509 667.718 412.211 697.885C472.202 667.204 542.241 618.026 571.092 554.501C576.137 543.416 587.716 510.769 586.381 498.531C582.39 495.605 580.732 496.636 574.942 496.632C521.949 496.713 464.234 495.555 411.691 496.888V424.683L659.006 424.975C659.259 458.054 660.664 485.457 654.495 518.251C653.666 532.182 644.799 560.635 639.599 573.994C603.624 666.474 498.439 738.379 410.637 776C352.711 748.947 304.651 720.812 257.602 677.402C136.902 566.036 168.619 460.394 163.125 316.562C145.362 334.072 122.836 352.927 103.78 369.735C69.9829 368.636 34.3732 369.914 0 369.065Z" fill="#122B70"/>
<path d="M412 425L659.685 425.291C659.938 458.168 661.345 485.405 655.167 518C653.928 509.65 655.392 490.36 655.8 481.161C656.645 464.754 656.884 448.321 656.518 431.897C635.449 429.906 593.89 431.176 571.625 431.21L416.602 431.256C416.546 440.454 416.321 473.906 420.121 480.679C441.653 490.663 489.589 479.997 512.768 486.411L459.598 486.4C449.873 486.309 423.555 483.268 417.827 491.289C422.668 498.372 564.377 486.981 575.495 496.512C522.423 496.593 464.622 495.442 412 496.766V425Z" fill="#122B70"/>
<path d="M411.836 154L505.307 237.758L521.559 252.87C530.659 260.636 539.802 268.346 549 276C533.996 269.336 513.258 262.746 497.427 257.251C468.906 247.24 440.287 237.472 411.598 227.948C367.246 242.132 321.099 259.067 277 274.375C293.967 261.279 316.023 240.113 332.317 225.349L411.836 154Z" fill="#E98721"/>
<path d="M174.143 896.595C173.129 892.837 171.638 889.526 169.669 886.662C167.7 883.739 165.284 881.263 162.42 879.234C159.557 877.206 156.276 875.685 152.577 874.67C148.878 873.597 144.821 873.06 140.406 873.06C131.517 873.06 123.821 875.207 117.318 879.503C110.875 883.798 105.893 890.062 102.374 898.295C98.8537 906.469 97.0938 916.402 97.0938 928.095C97.0938 939.848 98.794 949.871 102.195 958.163C105.595 966.456 110.517 972.78 116.96 977.135C123.403 981.49 131.219 983.668 140.406 983.668C148.52 983.668 155.381 982.355 160.989 979.73C166.656 977.045 170.952 973.257 173.875 968.365C176.798 963.473 178.26 957.716 178.26 951.094L186.493 952.078H141.928V919.773H220.946V944.024C220.946 960.43 217.456 974.48 210.476 986.173C203.555 997.866 194.01 1006.85 181.839 1013.11C169.729 1019.37 155.798 1022.51 140.048 1022.51C122.568 1022.51 107.206 1018.72 93.9616 1011.14C80.7173 1003.56 70.3963 992.766 62.9986 978.746C55.6009 964.666 51.902 947.962 51.902 928.632C51.902 913.598 54.1392 900.264 58.6136 888.631C63.0881 876.937 69.3224 867.034 77.3168 858.92C85.3707 850.807 94.6776 844.662 105.237 840.486C115.857 836.31 127.281 834.222 139.511 834.222C150.131 834.222 160.004 835.743 169.132 838.786C178.32 841.828 186.433 846.124 193.473 851.672C200.572 857.22 206.33 863.812 210.744 871.449C215.159 879.085 217.903 887.467 218.977 896.595H174.143ZM247.054 1020V836.727H291.351V910.287H363.569V836.727H407.776V1020H363.569V946.351H291.351V1020H247.054ZM475.206 1020H427.598L489.434 836.727H548.407L610.244 1020H562.636L519.592 882.903H518.16L475.206 1020ZM468.852 947.872H568.363V981.52H468.852V947.872ZM629.976 1020V836.727H705.684C719.405 836.727 731.248 839.203 741.211 844.155C751.233 849.047 758.959 856.087 764.388 865.274C769.817 874.402 772.532 885.23 772.532 897.759C772.532 910.466 769.757 921.264 764.209 930.153C758.661 938.983 750.786 945.724 740.584 950.378C730.382 954.972 718.301 957.268 704.341 957.268H656.465V922.368H696.108C702.79 922.368 708.368 921.503 712.843 919.773C717.377 917.983 720.807 915.298 723.134 911.719C725.461 908.08 726.624 903.426 726.624 897.759C726.624 892.091 725.461 887.408 723.134 883.709C720.807 879.95 717.377 877.146 712.843 875.297C708.309 873.388 702.73 872.433 696.108 872.433H674.273V1020H629.976ZM733.157 936.239L778.796 1020H730.472L685.728 936.239H733.157Z" fill="#122B70"/>
<path d="M1279.14 216C1277.27 209.19 1274.53 202.815 1270.93 196.873C1267.32 190.864 1262.85 185.624 1257.51 181.151C1252.24 176.611 1246.13 173.072 1239.18 170.536C1232.31 167.999 1224.63 166.73 1216.15 166.73C1202.8 166.73 1190.85 170.202 1180.3 177.145C1169.75 184.088 1161.41 194.102 1155.26 207.188C1149.19 220.273 1146.15 236.028 1146.15 254.455C1146.15 272.814 1149.22 288.536 1155.36 301.621C1161.51 314.707 1169.92 324.754 1180.6 331.764C1191.35 338.707 1203.63 342.179 1217.45 342.179C1230.07 342.179 1241.22 339.375 1250.9 333.767C1260.58 328.159 1268.12 320.148 1273.53 309.733C1279.01 299.318 1281.68 286.934 1281.54 272.58L1287.55 274.483H1221.86V257.659H1299.77V274.483C1299.77 291.974 1296.23 307.096 1289.15 319.847C1282.08 332.599 1272.36 342.446 1260.01 349.389C1247.66 356.332 1233.48 359.804 1217.45 359.804C1199.56 359.804 1183.9 355.498 1170.49 346.886C1157.07 338.207 1146.62 325.989 1139.14 310.234C1131.73 294.411 1128.03 275.818 1128.03 254.455C1128.03 238.365 1130.16 223.844 1134.43 210.893C1138.71 197.941 1144.75 186.859 1152.56 177.646C1160.44 168.433 1169.75 161.389 1180.5 156.516C1191.25 151.575 1203.13 149.105 1216.15 149.105C1227.37 149.105 1237.61 150.874 1246.89 154.413C1256.24 157.951 1264.45 162.825 1271.53 169.033C1278.67 175.175 1284.51 182.286 1289.05 190.364C1293.66 198.375 1296.76 206.92 1298.37 216H1279.14ZM1440.29 298.217V203.182H1458.12V357H1440.29V331.464H1438.89C1435.29 339.342 1429.58 345.918 1421.77 351.192C1413.96 356.399 1404.41 359.003 1393.13 359.003C1383.31 359.003 1374.6 356.866 1366.99 352.594C1359.38 348.254 1353.4 341.912 1349.06 333.567C1344.72 325.222 1342.55 314.974 1342.55 302.823V203.182H1360.38V301.722C1360.38 313.739 1363.92 323.419 1371 330.763C1378.07 338.04 1387.15 341.678 1398.23 341.678C1405.18 341.678 1411.85 340.009 1418.26 336.671C1424.67 333.333 1429.95 328.46 1434.08 322.05C1438.22 315.575 1440.29 307.63 1440.29 298.217ZM1505.51 357V203.182H1523.44V357H1505.51ZM1514.62 176.744C1510.95 176.744 1507.81 175.509 1505.21 173.039C1502.61 170.502 1501.31 167.464 1501.31 163.926C1501.31 160.388 1502.61 157.384 1505.21 154.913C1507.81 152.376 1510.95 151.108 1514.62 151.108C1518.3 151.108 1521.43 152.376 1524.04 154.913C1526.64 157.384 1527.94 160.388 1527.94 163.926C1527.94 167.464 1526.64 170.502 1524.04 173.039C1521.43 175.509 1518.3 176.744 1514.62 176.744ZM1625.96 360.205C1613.34 360.205 1602.29 356.866 1592.81 350.19C1583.33 343.514 1575.92 334.201 1570.58 322.251C1565.3 310.3 1562.67 296.381 1562.67 280.491C1562.67 264.669 1565.3 250.816 1570.58 238.933C1575.92 226.982 1583.36 217.702 1592.91 211.093C1602.46 204.417 1613.57 201.079 1626.26 201.079C1635.6 201.079 1643.38 202.748 1649.59 206.086C1655.8 209.357 1660.77 213.43 1664.51 218.303C1668.25 223.177 1671.15 227.917 1673.22 232.523H1674.83V151.909H1692.75V357H1675.33V328.46H1673.22C1671.15 333.133 1668.22 337.94 1664.41 342.88C1660.61 347.754 1655.57 351.859 1649.29 355.197C1643.08 358.536 1635.3 360.205 1625.96 360.205ZM1628.06 343.881C1638.01 343.881 1646.49 341.178 1653.5 335.77C1660.51 330.295 1665.85 322.785 1669.52 313.238C1673.26 303.624 1675.13 292.609 1675.13 280.191C1675.13 267.907 1673.29 257.058 1669.62 247.645C1665.95 238.165 1660.61 230.754 1653.6 225.413C1646.59 220.006 1638.07 217.302 1628.06 217.302C1617.78 217.302 1609.1 220.106 1602.02 225.714C1595.01 231.255 1589.67 238.766 1586 248.246C1582.4 257.726 1580.59 268.374 1580.59 280.191C1580.59 292.141 1582.43 302.923 1586.1 312.537C1589.77 322.151 1595.11 329.795 1602.12 335.469C1609.2 341.077 1617.85 343.881 1628.06 343.881ZM1805.71 360.205C1791.36 360.205 1778.94 356.866 1768.46 350.19C1757.98 343.447 1749.87 334.134 1744.12 322.251C1738.45 310.3 1735.61 296.548 1735.61 280.992C1735.61 265.504 1738.45 251.751 1744.12 239.734C1749.87 227.65 1757.78 218.203 1767.86 211.393C1778.01 204.517 1789.72 201.079 1803.01 201.079C1811.35 201.079 1819.4 202.614 1827.14 205.685C1834.89 208.69 1841.83 213.33 1847.97 219.605C1854.18 225.814 1859.09 233.658 1862.69 243.138C1866.3 252.552 1868.1 263.701 1868.1 276.586V285.398H1747.93V269.676H1849.87C1849.87 259.795 1847.87 250.916 1843.87 243.038C1839.93 235.094 1834.42 228.818 1827.34 224.212C1820.33 219.605 1812.22 217.302 1803.01 217.302C1793.26 217.302 1784.68 219.906 1777.27 225.113C1769.86 230.32 1764.05 237.197 1759.85 245.742C1755.71 254.288 1753.6 263.634 1753.54 273.782V283.195C1753.54 295.413 1755.64 306.094 1759.85 315.241C1764.12 324.32 1770.16 331.364 1777.97 336.371C1785.78 341.378 1795.03 343.881 1805.71 343.881C1812.99 343.881 1819.36 342.746 1824.84 340.477C1830.38 338.207 1835.02 335.169 1838.76 331.364C1842.56 327.491 1845.43 323.252 1847.37 318.646L1864.29 324.153C1861.96 330.629 1858.12 336.604 1852.78 342.079C1847.5 347.553 1840.9 351.96 1832.95 355.298C1825.07 358.569 1815.99 360.205 1805.71 360.205ZM2049.98 203.182V218.704H1974.38V203.182H2049.98ZM1998.01 357V180.65C1998.01 172.371 1999.91 165.395 2003.72 159.72C2007.59 154.045 2012.63 149.739 2018.84 146.802C2025.05 143.864 2031.62 142.396 2038.57 142.396C2043.24 142.396 2047.11 142.796 2050.18 143.597C2053.32 144.332 2055.79 145.066 2057.59 145.8L2052.39 161.423C2051.05 161.022 2049.42 160.555 2047.48 160.021C2045.54 159.487 2043.11 159.219 2040.17 159.219C2032.43 159.219 2026.45 161.389 2022.24 165.729C2018.04 170.068 2015.94 176.277 2015.94 184.355L2015.83 357H1998.01ZM2139.01 360.205C2125.72 360.205 2113.97 356.833 2103.76 350.09C2093.61 343.347 2085.67 334.034 2079.93 322.151C2074.18 310.2 2071.31 296.414 2071.31 280.792C2071.31 265.036 2074.18 251.183 2079.93 239.233C2085.67 227.216 2093.61 217.869 2103.76 211.193C2113.97 204.45 2125.72 201.079 2139.01 201.079C2152.3 201.079 2164.01 204.45 2174.16 211.193C2184.31 217.936 2192.25 227.283 2197.99 239.233C2203.8 251.183 2206.71 265.036 2206.71 280.792C2206.71 296.414 2203.83 310.2 2198.09 322.151C2192.35 334.034 2184.37 343.347 2174.16 350.09C2164.01 356.833 2152.3 360.205 2139.01 360.205ZM2139.01 343.881C2149.69 343.881 2158.74 341.011 2166.15 335.269C2173.56 329.528 2179.17 321.884 2182.97 312.337C2186.84 302.79 2188.78 292.275 2188.78 280.792C2188.78 269.309 2186.84 258.761 2182.97 249.147C2179.17 239.533 2173.56 231.822 2166.15 226.014C2158.74 220.206 2149.69 217.302 2139.01 217.302C2128.39 217.302 2119.35 220.206 2111.87 226.014C2104.46 231.822 2098.82 239.533 2094.95 249.147C2091.14 258.761 2089.24 269.309 2089.24 280.792C2089.24 292.275 2091.14 302.79 2094.95 312.337C2098.82 321.884 2104.46 329.528 2111.87 335.269C2119.28 341.011 2128.33 343.881 2139.01 343.881ZM2245.84 357V203.182H2263.16V226.815H2264.46C2267.53 219.071 2272.87 212.829 2280.49 208.089C2288.16 203.282 2296.84 200.879 2306.52 200.879C2307.99 200.879 2309.63 200.912 2311.43 200.979C2313.23 201.045 2314.73 201.112 2315.94 201.179V219.305C2315.13 219.171 2313.73 218.971 2311.73 218.704C2309.73 218.437 2307.56 218.303 2305.22 218.303C2297.21 218.303 2290.07 220.006 2283.79 223.411C2277.58 226.749 2272.67 231.388 2269.07 237.33C2265.46 243.272 2263.66 250.048 2263.66 257.659V357H2245.84ZM2429.37 357V151.909H2448.1V245.942H2564.46V151.909H2583.19V357H2564.46V262.766H2448.1V357H2429.37ZM2693.65 360.205C2680.36 360.205 2668.61 356.833 2658.4 350.09C2648.25 343.347 2640.3 334.034 2634.56 322.151C2628.82 310.2 2625.95 296.414 2625.95 280.792C2625.95 265.036 2628.82 251.183 2634.56 239.233C2640.3 227.216 2648.25 217.869 2658.4 211.193C2668.61 204.45 2680.36 201.079 2693.65 201.079C2706.93 201.079 2718.65 204.45 2728.8 211.193C2738.94 217.936 2746.89 227.283 2752.63 239.233C2758.44 251.183 2761.34 265.036 2761.34 280.792C2761.34 296.414 2758.47 310.2 2752.73 322.151C2746.99 334.034 2739.01 343.347 2728.8 350.09C2718.65 356.833 2706.93 360.205 2693.65 360.205ZM2693.65 343.881C2704.33 343.881 2713.37 341.011 2720.78 335.269C2728.2 329.528 2733.8 321.884 2737.61 312.337C2741.48 302.79 2743.42 292.275 2743.42 280.792C2743.42 269.309 2741.48 258.761 2737.61 249.147C2733.8 239.533 2728.2 231.822 2720.78 226.014C2713.37 220.206 2704.33 217.302 2693.65 217.302C2683.03 217.302 2673.99 220.206 2666.51 226.014C2659.1 231.822 2653.46 239.533 2649.58 249.147C2645.78 258.761 2643.88 269.309 2643.88 280.792C2643.88 292.275 2645.78 302.79 2649.58 312.337C2653.46 321.884 2659.1 329.528 2666.51 335.269C2673.92 341.011 2682.96 343.881 2693.65 343.881ZM2898.21 298.217V203.182H2916.04V357H2898.21V331.464H2896.81C2893.2 339.342 2887.5 345.918 2879.69 351.192C2871.87 356.399 2862.33 359.003 2851.04 359.003C2841.23 359.003 2832.52 356.866 2824.91 352.594C2817.3 348.254 2811.32 341.912 2806.98 333.567C2802.64 325.222 2800.47 314.974 2800.47 302.823V203.182H2818.3V301.722C2818.3 313.739 2821.84 323.419 2828.91 330.763C2835.99 338.04 2845.07 341.678 2856.15 341.678C2863.09 341.678 2869.77 340.009 2876.18 336.671C2882.59 333.333 2887.86 328.46 2892 322.05C2896.14 315.575 2898.21 307.63 2898.21 298.217ZM3066.58 236.93L3050.25 241.536C3048.65 236.93 3046.38 232.757 3043.44 229.018C3040.5 225.28 3036.67 222.309 3031.93 220.106C3027.25 217.903 3021.44 216.801 3014.5 216.801C3004.09 216.801 2995.54 219.271 2988.87 224.212C2982.19 229.152 2978.85 235.528 2978.85 243.339C2978.85 249.948 2981.12 255.322 2985.66 259.462C2990.27 263.534 2997.34 266.772 3006.89 269.175L3030.12 274.884C3043.01 278.021 3052.66 282.995 3059.06 289.805C3065.54 296.614 3068.78 305.16 3068.78 315.441C3068.78 324.12 3066.38 331.831 3061.57 338.574C3056.76 345.317 3050.05 350.624 3041.44 354.496C3032.89 358.302 3022.98 360.205 3011.7 360.205C2996.68 360.205 2984.29 356.833 2974.54 350.09C2964.8 343.281 2958.56 333.467 2955.82 320.648L2972.94 316.442C2975.15 325.589 2979.45 332.499 2985.86 337.172C2992.34 341.845 3000.85 344.182 3011.4 344.182C3023.21 344.182 3032.66 341.545 3039.74 336.271C3046.81 330.93 3050.35 324.254 3050.35 316.242C3050.35 310.033 3048.28 304.826 3044.14 300.62C3040 296.347 3033.73 293.21 3025.32 291.207L3000.18 285.198C2986.83 281.994 2976.95 276.92 2970.54 269.977C2964.13 263.033 2960.93 254.421 2960.93 244.14C2960.93 235.661 2963.23 228.217 2967.84 221.808C2972.44 215.332 2978.78 210.259 2986.86 206.587C2994.94 202.915 3004.15 201.079 3014.5 201.079C3028.59 201.079 3039.84 204.283 3048.25 210.692C3056.73 217.035 3062.84 225.781 3066.58 236.93ZM3108.01 357V203.182H3125.93V357H3108.01ZM3117.12 176.744C3113.45 176.744 3110.31 175.509 3107.71 173.039C3105.1 170.502 3103.8 167.464 3103.8 163.926C3103.8 160.388 3105.1 157.384 3107.71 154.913C3110.31 152.376 3113.45 151.108 3117.12 151.108C3120.79 151.108 3123.93 152.376 3126.54 154.913C3129.14 157.384 3130.44 160.388 3130.44 163.926C3130.44 167.464 3129.14 170.502 3126.54 173.039C3123.93 175.509 3120.79 176.744 3117.12 176.744ZM3190.9 260.864V357H3173.08V203.182H3190.4V227.316H3192C3195.61 219.438 3201.22 213.129 3208.83 208.389C3216.5 203.582 3225.98 201.179 3237.27 201.179C3247.62 201.179 3256.69 203.349 3264.51 207.688C3272.38 211.961 3278.49 218.27 3282.83 226.615C3287.24 234.96 3289.44 245.208 3289.44 257.359V357H3271.62V258.46C3271.62 245.842 3268.08 235.862 3261 228.518C3253.99 221.174 3244.58 217.502 3232.76 217.502C3224.68 217.502 3217.51 219.238 3211.23 222.71C3204.95 226.181 3199.98 231.188 3196.31 237.731C3192.7 244.207 3190.9 251.918 3190.9 260.864ZM3395.07 417.886C3384.58 417.886 3375.41 416.518 3367.53 413.781C3359.65 411.11 3353.01 407.438 3347.6 402.765C3342.19 398.092 3337.99 392.851 3334.98 387.043L3349.6 377.429C3351.8 381.301 3354.74 385.107 3358.41 388.845C3362.15 392.584 3366.99 395.688 3372.93 398.158C3378.94 400.629 3386.32 401.864 3395.07 401.864C3408.69 401.864 3419.67 398.459 3428.01 391.649C3436.42 384.839 3440.63 374.258 3440.63 359.904V325.255H3439.03C3436.96 329.928 3433.99 334.602 3430.12 339.275C3426.24 343.881 3421.17 347.72 3414.89 350.791C3408.69 353.862 3400.97 355.398 3391.76 355.398C3379.48 355.398 3368.56 352.36 3359.02 346.285C3349.53 340.21 3342.06 331.531 3336.58 320.248C3331.18 308.898 3328.47 295.379 3328.47 279.69C3328.47 264.135 3331.11 250.449 3336.38 238.632C3341.72 226.815 3349.17 217.602 3358.71 210.993C3368.26 204.384 3379.38 201.079 3392.06 201.079C3401.48 201.079 3409.29 202.748 3415.5 206.086C3421.7 209.357 3426.68 213.43 3430.42 218.303C3434.22 223.177 3437.19 227.917 3439.33 232.523H3441.13V203.182H3458.56V361.006C3458.56 374.024 3455.79 384.739 3450.24 393.151C3444.7 401.563 3437.16 407.772 3427.61 411.778C3418.07 415.85 3407.22 417.886 3395.07 417.886ZM3393.86 339.075C3403.75 339.075 3412.19 336.705 3419.2 331.964C3426.21 327.158 3431.58 320.281 3435.32 311.335C3439.06 302.389 3440.93 291.741 3440.93 279.39C3440.93 267.373 3439.1 256.724 3435.42 247.445C3431.75 238.098 3426.41 230.754 3419.4 225.413C3412.46 220.006 3403.95 217.302 3393.86 217.302C3383.58 217.302 3374.9 220.072 3367.83 225.614C3360.75 231.155 3355.41 238.632 3351.8 248.045C3348.2 257.392 3346.4 267.84 3346.4 279.39C3346.4 291.14 3348.23 301.521 3351.91 310.534C3355.58 319.48 3360.95 326.49 3368.03 331.564C3375.1 336.571 3383.72 339.075 3393.86 339.075ZM1137.54 698H1117.91L1192.52 492.909H1212.55L1287.15 698H1267.52L1203.23 517.244H1201.83L1137.54 698ZM1151.66 619.388H1253.4V636.212H1151.66V619.388ZM1336.42 492.909V698H1318.6V492.909H1336.42ZM1445.78 701.205C1431.42 701.205 1419 697.866 1408.52 691.19C1398.04 684.447 1389.93 675.134 1384.19 663.251C1378.51 651.3 1375.68 637.548 1375.68 621.992C1375.68 606.504 1378.51 592.751 1384.19 580.734C1389.93 568.65 1397.84 559.203 1407.92 552.393C1418.07 545.517 1429.79 542.079 1443.07 542.079C1451.42 542.079 1459.46 543.614 1467.21 546.685C1474.95 549.69 1481.89 554.33 1488.04 560.605C1494.25 566.814 1499.15 574.658 1502.76 584.138C1506.36 593.552 1508.16 604.701 1508.16 617.586V626.398H1387.99V610.676H1489.94C1489.94 600.795 1487.94 591.916 1483.93 584.038C1479.99 576.094 1474.48 569.818 1467.41 565.212C1460.4 560.605 1452.29 558.302 1443.07 558.302C1433.33 558.302 1424.75 560.906 1417.34 566.113C1409.93 571.32 1404.12 578.197 1399.91 586.742C1395.77 595.288 1393.67 604.634 1393.6 614.782V624.195C1393.6 636.413 1395.71 647.094 1399.91 656.241C1404.18 665.32 1410.23 672.364 1418.04 677.371C1425.85 682.378 1435.09 684.881 1445.78 684.881C1453.05 684.881 1459.43 683.746 1464.9 681.477C1470.44 679.207 1475.08 676.169 1478.82 672.364C1482.63 668.491 1485.5 664.252 1487.44 659.646L1504.36 665.153C1502.02 671.629 1498.18 677.604 1492.84 683.079C1487.57 688.553 1480.96 692.96 1473.01 696.298C1465.14 699.569 1456.06 701.205 1445.78 701.205ZM1547.45 698V544.182H1564.77V567.815H1566.07C1569.14 560.071 1574.48 553.829 1582.09 549.089C1589.77 544.282 1598.45 541.879 1608.13 541.879C1609.6 541.879 1611.24 541.912 1613.04 541.979C1614.84 542.045 1616.34 542.112 1617.54 542.179V560.305C1616.74 560.171 1615.34 559.971 1613.34 559.704C1611.34 559.437 1609.17 559.303 1606.83 559.303C1598.82 559.303 1591.67 561.006 1585.4 564.411C1579.19 567.749 1574.28 572.388 1570.68 578.33C1567.07 584.272 1565.27 591.048 1565.27 598.659V698H1547.45ZM1718.19 544.182V559.704H1644.78V544.182H1718.19ZM1667.72 507.33H1685.64V657.843C1685.64 664.252 1686.74 669.293 1688.95 672.964C1691.15 676.57 1694.02 679.14 1697.56 680.675C1701.1 682.144 1704.87 682.879 1708.87 682.879C1711.21 682.879 1713.21 682.745 1714.88 682.478C1716.55 682.144 1718.02 681.81 1719.29 681.477L1723.09 697.599C1721.36 698.267 1719.22 698.868 1716.69 699.402C1714.15 700.003 1711.01 700.303 1707.27 700.303C1700.73 700.303 1694.42 698.868 1688.35 695.997C1682.34 693.126 1677.4 688.854 1673.52 683.179C1669.65 677.504 1667.72 670.461 1667.72 662.049V507.33ZM1859.26 577.93L1842.94 582.536C1841.34 577.93 1839.07 573.757 1836.13 570.018C1833.19 566.28 1829.35 563.309 1824.61 561.106C1819.94 558.903 1814.13 557.801 1807.19 557.801C1796.77 557.801 1788.23 560.271 1781.55 565.212C1774.88 570.152 1771.54 576.528 1771.54 584.339C1771.54 590.948 1773.81 596.322 1778.35 600.462C1782.95 604.534 1790.03 607.772 1799.58 610.175L1822.81 615.884C1835.7 619.021 1845.34 623.995 1851.75 630.805C1858.23 637.614 1861.47 646.16 1861.47 656.441C1861.47 665.12 1859.06 672.831 1854.26 679.574C1849.45 686.317 1842.74 691.624 1834.13 695.496C1825.58 699.302 1815.67 701.205 1804.38 701.205C1789.36 701.205 1776.98 697.833 1767.23 691.09C1757.49 684.281 1751.24 674.467 1748.51 661.648L1765.63 657.442C1767.83 666.589 1772.14 673.499 1778.55 678.172C1785.02 682.845 1793.54 685.182 1804.08 685.182C1815.9 685.182 1825.35 682.545 1832.42 677.271C1839.5 671.93 1843.04 665.254 1843.04 657.242C1843.04 651.033 1840.97 645.826 1836.83 641.62C1832.69 637.347 1826.42 634.21 1818 632.207L1792.87 626.198C1779.52 622.994 1769.64 617.92 1763.23 610.977C1756.82 604.033 1753.61 595.421 1753.61 585.14C1753.61 576.661 1755.92 569.217 1760.52 562.808C1765.13 556.332 1771.47 551.259 1779.55 547.587C1787.63 543.915 1796.84 542.079 1807.19 542.079C1821.28 542.079 1832.52 545.283 1840.94 551.692C1849.42 558.035 1855.52 566.781 1859.26 577.93ZM2034.69 700.804C2022.07 700.804 2011.05 698.367 2001.64 693.494C1992.23 688.553 1984.92 681.844 1979.71 673.365C1974.5 664.886 1971.9 655.306 1971.9 644.624C1971.9 636.88 1973.47 629.903 1976.6 623.695C1979.81 617.419 1984.42 611.477 1990.42 605.869C1996.43 600.195 2003.71 594.32 2012.25 588.244L2042 566.113C2049.07 561.039 2054.45 556.065 2058.12 551.192C2061.86 546.251 2063.73 540.21 2063.73 533.066C2063.73 526.19 2061.12 520.048 2055.92 514.64C2050.78 509.165 2044.1 506.428 2035.89 506.428C2030.15 506.428 2025.01 507.864 2020.47 510.734C2015.99 513.605 2012.42 517.344 2009.75 521.95C2007.15 526.49 2005.85 531.263 2005.85 536.271C2005.85 540.944 2007.05 545.651 2009.45 550.391C2011.85 555.064 2015.09 560.004 2019.16 565.212C2023.24 570.352 2027.78 576.027 2032.78 582.236L2126.52 698H2104.89L2023.17 597.758C2016.29 589.346 2010.19 581.835 2004.84 575.226C1999.5 568.55 1995.3 562.141 1992.23 555.999C1989.16 549.79 1987.62 543.147 1987.62 536.07C1987.62 527.325 1989.66 519.547 1993.73 512.737C1997.8 505.861 2003.41 500.453 2010.55 496.514C2017.76 492.575 2026.01 490.606 2035.29 490.606C2044.77 490.606 2052.98 492.542 2059.92 496.414C2066.93 500.286 2072.34 505.427 2076.15 511.836C2080.02 518.245 2081.95 525.322 2081.95 533.066C2081.95 542.346 2079.55 550.558 2074.74 557.701C2070 564.844 2063.09 571.854 2054.01 578.731L2016.76 606.57C2006.55 614.248 1999.54 621.358 1995.73 627.901C1991.93 634.443 1990.02 640.018 1990.02 644.624C1990.02 651.835 1991.89 658.477 1995.63 664.553C1999.37 670.628 2004.54 675.501 2011.15 679.173C2017.83 682.845 2025.47 684.714 2034.09 684.781C2042.63 684.714 2050.68 683.012 2058.22 679.674C2065.76 676.269 2072.51 671.429 2078.45 665.153C2084.46 658.878 2089.26 651.367 2092.87 642.621C2096.54 633.876 2098.68 624.129 2099.28 613.38L2116.6 613.58C2116.34 624.596 2114.83 633.942 2112.1 641.62C2109.43 649.231 2106.35 655.506 2102.88 660.447C2099.41 665.387 2096.37 669.359 2093.77 672.364C2093.04 673.365 2092.3 674.366 2091.57 675.368C2090.83 676.369 2090.07 677.371 2089.26 678.372C2082.59 685.716 2074.28 691.29 2064.33 695.096C2054.45 698.901 2044.57 700.804 2034.69 700.804ZM2237.97 698V492.909H2304.17C2318.72 492.909 2330.87 495.546 2340.62 500.82C2350.43 506.028 2357.81 513.271 2362.75 522.551C2367.76 531.764 2370.26 542.346 2370.26 554.296C2370.26 566.246 2367.76 576.795 2362.75 585.941C2357.81 595.087 2350.47 602.231 2340.72 607.371C2330.97 612.512 2318.89 615.082 2304.47 615.082H2248.09V597.958H2303.97C2314.65 597.958 2323.53 596.189 2330.61 592.651C2337.75 589.112 2343.06 584.072 2346.53 577.529C2350.07 570.987 2351.84 563.242 2351.84 554.296C2351.84 545.35 2350.07 537.539 2346.53 530.863C2342.99 524.12 2337.65 518.913 2330.51 515.241C2323.43 511.569 2314.48 509.733 2303.67 509.733H2256.7V698H2237.97ZM2328.4 605.469L2378.87 698H2357.24L2307.27 605.469H2328.4ZM2455.13 701.505C2445.85 701.505 2437.37 699.702 2429.7 696.097C2422.02 692.425 2415.91 687.151 2411.37 680.275C2406.83 673.332 2404.56 664.92 2404.56 655.039C2404.56 647.428 2406 641.019 2408.87 635.812C2411.74 630.604 2415.81 626.332 2421.08 622.994C2426.36 619.656 2432.6 617.018 2439.81 615.082C2447.02 613.146 2454.97 611.644 2463.65 610.576C2472.26 609.508 2479.53 608.573 2485.48 607.772C2491.48 606.971 2496.06 605.702 2499.2 603.967C2502.33 602.231 2503.9 599.427 2503.9 595.555V591.95C2503.9 581.468 2500.76 573.223 2494.49 567.214C2488.28 561.139 2479.33 558.102 2467.65 558.102C2456.57 558.102 2447.52 560.538 2440.51 565.412C2433.57 570.286 2428.7 576.027 2425.89 582.636L2408.97 576.528C2412.44 568.116 2417.25 561.406 2423.39 556.399C2429.53 551.325 2436.41 547.687 2444.02 545.484C2451.63 543.214 2459.34 542.079 2467.15 542.079C2473.03 542.079 2479.13 542.847 2485.48 544.382C2491.89 545.918 2497.83 548.588 2503.3 552.393C2508.78 556.132 2513.22 561.373 2516.62 568.116C2520.03 574.792 2521.73 583.271 2521.73 593.552V698H2503.9V673.665H2502.8C2500.66 678.205 2497.49 682.612 2493.29 686.884C2489.08 691.157 2483.81 694.662 2477.46 697.399C2471.12 700.136 2463.68 701.505 2455.13 701.505ZM2457.54 685.182C2467.02 685.182 2475.23 683.079 2482.17 678.873C2489.11 674.667 2494.46 669.092 2498.19 662.149C2502 655.139 2503.9 647.428 2503.9 639.016V616.785C2502.57 618.053 2500.33 619.188 2497.19 620.19C2494.12 621.191 2490.55 622.092 2486.48 622.893C2482.47 623.628 2478.47 624.262 2474.46 624.796C2470.45 625.33 2466.85 625.798 2463.65 626.198C2454.97 627.266 2447.56 628.935 2441.41 631.205C2435.27 633.475 2430.56 636.613 2427.29 640.619C2424.02 644.558 2422.39 649.631 2422.39 655.84C2422.39 665.187 2425.72 672.43 2432.4 677.571C2439.08 682.645 2447.46 685.182 2457.54 685.182ZM2629.73 544.182V559.704H2556.33V544.182H2629.73ZM2579.26 507.33H2597.18V657.843C2597.18 664.252 2598.29 669.293 2600.49 672.964C2602.69 676.57 2605.56 679.14 2609.1 680.675C2612.64 682.144 2616.41 682.879 2620.42 682.879C2622.75 682.879 2624.76 682.745 2626.43 682.478C2628.09 682.144 2629.56 681.81 2630.83 681.477L2634.64 697.599C2632.9 698.267 2630.77 698.868 2628.23 699.402C2625.69 700.003 2622.55 700.303 2618.82 700.303C2612.27 700.303 2605.96 698.868 2599.89 695.997C2593.88 693.126 2588.94 688.854 2585.07 683.179C2581.2 677.504 2579.26 670.461 2579.26 662.049V507.33ZM2670.41 698V544.182H2688.34V698H2670.41ZM2679.53 517.744C2675.85 517.744 2672.72 516.509 2670.11 514.039C2667.51 511.502 2666.21 508.464 2666.21 504.926C2666.21 501.388 2667.51 498.384 2670.11 495.913C2672.72 493.376 2675.85 492.108 2679.53 492.108C2683.2 492.108 2686.34 493.376 2688.94 495.913C2691.54 498.384 2692.85 501.388 2692.85 504.926C2692.85 508.464 2691.54 511.502 2688.94 514.039C2686.34 516.509 2683.2 517.744 2679.53 517.744ZM2753.31 601.864V698H2735.48V544.182H2752.81V568.316H2754.41C2758.01 560.438 2763.62 554.129 2771.23 549.389C2778.91 544.582 2788.39 542.179 2799.67 542.179C2810.02 542.179 2819.1 544.349 2826.91 548.688C2834.79 552.961 2840.9 559.27 2845.24 567.615C2849.64 575.96 2851.85 586.208 2851.85 598.359V698H2834.02V599.46C2834.02 586.842 2830.48 576.862 2823.41 569.518C2816.4 562.174 2806.98 558.502 2795.17 558.502C2787.09 558.502 2779.91 560.238 2773.63 563.71C2767.36 567.181 2762.39 572.188 2758.71 578.731C2755.11 585.207 2753.31 592.918 2753.31 601.864ZM2957.47 758.886C2946.99 758.886 2937.81 757.518 2929.93 754.781C2922.05 752.11 2915.41 748.438 2910 743.765C2904.6 739.092 2900.39 733.851 2897.39 728.043L2912.01 718.429C2914.21 722.301 2917.15 726.107 2920.82 729.845C2924.56 733.584 2929.4 736.688 2935.34 739.158C2941.35 741.629 2948.72 742.864 2957.47 742.864C2971.09 742.864 2982.07 739.459 2990.42 732.649C2998.83 725.839 3003.04 715.258 3003.04 700.904V666.255H3001.43C2999.36 670.928 2996.39 675.602 2992.52 680.275C2988.65 684.881 2983.57 688.72 2977.3 691.791C2971.09 694.862 2963.38 696.398 2954.17 696.398C2941.88 696.398 2930.97 693.36 2921.42 687.285C2911.94 681.21 2904.46 672.531 2898.99 661.248C2893.58 649.898 2890.88 636.379 2890.88 620.69C2890.88 605.135 2893.51 591.449 2898.79 579.632C2904.13 567.815 2911.57 558.602 2921.12 551.993C2930.67 545.384 2941.78 542.079 2954.47 542.079C2963.88 542.079 2971.69 543.748 2977.9 547.086C2984.11 550.357 2989.08 554.43 2992.82 559.303C2996.63 564.177 2999.6 568.917 3001.73 573.523H3003.54V544.182H3020.96V702.006C3020.96 715.024 3018.19 725.739 3012.65 734.151C3007.11 742.563 2999.56 748.772 2990.02 752.778C2980.47 756.85 2969.62 758.886 2957.47 758.886ZM2956.27 680.075C2966.15 680.075 2974.59 677.705 2981.6 672.964C2988.61 668.158 2993.99 661.281 2997.73 652.335C3001.47 643.389 3003.34 632.741 3003.34 620.39C3003.34 608.373 3001.5 597.724 2997.83 588.445C2994.16 579.098 2988.81 571.754 2981.81 566.413C2974.86 561.006 2966.35 558.302 2956.27 558.302C2945.99 558.302 2937.31 561.072 2930.23 566.614C2923.16 572.155 2917.81 579.632 2914.21 589.045C2910.6 598.392 2908.8 608.84 2908.8 620.39C2908.8 632.14 2910.64 642.521 2914.31 651.534C2917.98 660.48 2923.36 667.49 2930.43 672.564C2937.51 677.571 2946.12 680.075 2956.27 680.075ZM3171.5 577.93L3155.18 582.536C3153.57 577.93 3151.3 573.757 3148.37 570.018C3145.43 566.28 3141.59 563.309 3136.85 561.106C3132.18 558.903 3126.37 557.801 3119.43 557.801C3109.01 557.801 3100.47 560.271 3093.79 565.212C3087.11 570.152 3083.77 576.528 3083.77 584.339C3083.77 590.948 3086.04 596.322 3090.58 600.462C3095.19 604.534 3102.27 607.772 3111.81 610.175L3135.05 615.884C3147.93 619.021 3157.58 623.995 3163.99 630.805C3170.46 637.614 3173.7 646.16 3173.7 656.441C3173.7 665.12 3171.3 672.831 3166.49 679.574C3161.69 686.317 3154.98 691.624 3146.36 695.496C3137.82 699.302 3127.9 701.205 3116.62 701.205C3101.6 701.205 3089.22 697.833 3079.47 691.09C3069.72 684.281 3063.48 674.467 3060.74 661.648L3077.87 657.442C3080.07 666.589 3084.38 673.499 3090.78 678.172C3097.26 682.845 3105.77 685.182 3116.32 685.182C3128.14 685.182 3137.58 682.545 3144.66 677.271C3151.74 671.93 3155.28 665.254 3155.28 657.242C3155.28 651.033 3153.21 645.826 3149.07 641.62C3144.93 637.347 3138.65 634.21 3130.24 632.207L3105.1 626.198C3091.75 622.994 3081.87 617.92 3075.46 610.977C3069.05 604.033 3065.85 595.421 3065.85 585.14C3065.85 576.661 3068.15 569.217 3072.76 562.808C3077.37 556.332 3083.71 551.259 3091.79 547.587C3099.86 543.915 3109.08 542.079 3119.43 542.079C3133.51 542.079 3144.76 545.283 3153.17 551.692C3161.65 558.035 3167.76 566.781 3171.5 577.93Z" fill="#122B70"/>
<path d="M1122.89 988H1113.7L1148.63 892H1158L1192.92 988H1183.73L1153.64 903.391H1152.98L1122.89 988ZM1129.5 951.203H1177.13V959.078H1129.5V951.203ZM1244.77 1015V916H1252.88V929.734H1253.86C1254.86 927.578 1256.23 925.375 1257.98 923.125C1259.73 920.844 1262.05 918.922 1264.92 917.359C1267.83 915.797 1271.48 915.016 1275.89 915.016C1281.83 915.016 1287.02 916.578 1291.45 919.703C1295.92 922.797 1299.39 927.141 1301.86 932.734C1304.36 938.297 1305.61 944.781 1305.61 952.188C1305.61 959.625 1304.36 966.141 1301.86 971.734C1299.39 977.328 1295.92 981.687 1291.45 984.812C1287.02 987.937 1281.86 989.5 1275.98 989.5C1271.64 989.5 1268 988.719 1265.06 987.156C1262.16 985.594 1259.8 983.672 1257.98 981.391C1256.2 979.078 1254.83 976.828 1253.86 974.641H1253.11V1015H1244.77ZM1253.02 952.047C1253.02 957.859 1253.87 963.016 1255.59 967.516C1257.34 971.984 1259.84 975.5 1263.09 978.062C1266.37 980.594 1270.34 981.859 1275 981.859C1279.78 981.859 1283.81 980.547 1287.09 977.922C1290.41 975.266 1292.92 971.687 1294.64 967.188C1296.39 962.687 1297.27 957.641 1297.27 952.047C1297.27 946.516 1296.41 941.531 1294.69 937.094C1293 932.656 1290.5 929.141 1287.19 926.547C1283.88 923.922 1279.81 922.609 1275 922.609C1270.31 922.609 1266.33 923.875 1263.05 926.406C1259.77 928.906 1257.27 932.375 1255.55 936.812C1253.86 941.219 1253.02 946.297 1253.02 952.047ZM1344.02 989.641C1339.68 989.641 1335.71 988.797 1332.12 987.109C1328.52 985.391 1325.66 982.922 1323.54 979.703C1321.41 976.453 1320.35 972.516 1320.35 967.891C1320.35 964.328 1321.02 961.328 1322.37 958.891C1323.71 956.453 1325.62 954.453 1328.09 952.891C1330.55 951.328 1333.48 950.094 1336.85 949.187C1340.23 948.281 1343.95 947.578 1348.01 947.078C1352.04 946.578 1355.45 946.141 1358.23 945.766C1361.04 945.391 1363.18 944.797 1364.65 943.984C1366.12 943.172 1366.85 941.859 1366.85 940.047V938.359C1366.85 933.453 1365.38 929.594 1362.45 926.781C1359.54 923.937 1355.35 922.516 1349.88 922.516C1344.7 922.516 1340.46 923.656 1337.18 925.937C1333.93 928.219 1331.65 930.906 1330.34 934L1322.41 931.141C1324.04 927.203 1326.29 924.062 1329.16 921.719C1332.04 919.344 1335.26 917.641 1338.82 916.609C1342.38 915.547 1345.99 915.016 1349.65 915.016C1352.4 915.016 1355.26 915.375 1358.23 916.094C1361.23 916.812 1364.01 918.062 1366.57 919.844C1369.13 921.594 1371.21 924.047 1372.8 927.203C1374.4 930.328 1375.2 934.297 1375.2 939.109V988H1366.85V976.609H1366.34C1365.34 978.734 1363.85 980.797 1361.88 982.797C1359.91 984.797 1357.45 986.437 1354.48 987.719C1351.51 989 1348.02 989.641 1344.02 989.641ZM1345.15 982C1349.59 982 1353.43 981.016 1356.68 979.047C1359.93 977.078 1362.43 974.469 1364.18 971.219C1365.96 967.937 1366.85 964.328 1366.85 960.391V949.984C1366.23 950.578 1365.18 951.109 1363.71 951.578C1362.27 952.047 1360.6 952.469 1358.7 952.844C1356.82 953.187 1354.95 953.484 1353.07 953.734C1351.2 953.984 1349.51 954.203 1348.01 954.391C1343.95 954.891 1340.48 955.672 1337.6 956.734C1334.73 957.797 1332.52 959.266 1330.99 961.141C1329.46 962.984 1328.7 965.359 1328.7 968.266C1328.7 972.641 1330.26 976.031 1333.38 978.437C1336.51 980.812 1340.43 982 1345.15 982ZM1397.39 988V916H1405.5V927.062H1406.11C1407.55 923.437 1410.05 920.516 1413.61 918.297C1417.2 916.047 1421.27 914.922 1425.8 914.922C1426.48 914.922 1427.25 914.937 1428.09 914.969C1428.94 915 1429.64 915.031 1430.2 915.063V923.547C1429.83 923.484 1429.17 923.391 1428.23 923.266C1427.3 923.141 1426.28 923.078 1425.19 923.078C1421.44 923.078 1418.09 923.875 1415.16 925.469C1412.25 927.031 1409.95 929.203 1408.27 931.984C1406.58 934.766 1405.73 937.937 1405.73 941.5V988H1397.39ZM1477.31 916V923.266H1442.95V916H1477.31ZM1453.69 898.75H1462.08V969.203C1462.08 972.203 1462.59 974.562 1463.63 976.281C1464.66 977.969 1466 979.172 1467.66 979.891C1469.31 980.578 1471.08 980.922 1472.95 980.922C1474.05 980.922 1474.98 980.859 1475.77 980.734C1476.55 980.578 1477.23 980.422 1477.83 980.266L1479.61 987.812C1478.8 988.125 1477.8 988.406 1476.61 988.656C1475.42 988.938 1473.95 989.078 1472.2 989.078C1469.14 989.078 1466.19 988.406 1463.34 987.062C1460.53 985.719 1458.22 983.719 1456.41 981.062C1454.59 978.406 1453.69 975.109 1453.69 971.172V898.75ZM1561.37 989.5C1555.15 989.5 1549.65 987.922 1544.87 984.766C1540.12 981.609 1536.4 977.25 1533.71 971.687C1531.03 966.094 1529.68 959.641 1529.68 952.328C1529.68 944.953 1531.03 938.469 1533.71 932.875C1536.4 927.25 1540.12 922.875 1544.87 919.75C1549.65 916.594 1555.15 915.016 1561.37 915.016C1567.59 915.016 1573.07 916.594 1577.82 919.75C1582.57 922.906 1586.29 927.281 1588.98 932.875C1591.7 938.469 1593.06 944.953 1593.06 952.328C1593.06 959.641 1591.71 966.094 1589.03 971.687C1586.34 977.25 1582.61 981.609 1577.82 984.766C1573.07 987.922 1567.59 989.5 1561.37 989.5ZM1561.37 981.859C1566.37 981.859 1570.61 980.516 1574.07 977.828C1577.54 975.141 1580.17 971.562 1581.95 967.094C1583.76 962.625 1584.67 957.703 1584.67 952.328C1584.67 946.953 1583.76 942.016 1581.95 937.516C1580.17 933.016 1577.54 929.406 1574.07 926.687C1570.61 923.969 1566.37 922.609 1561.37 922.609C1556.4 922.609 1552.17 923.969 1548.67 926.687C1545.2 929.406 1542.56 933.016 1540.75 937.516C1538.96 942.016 1538.07 946.953 1538.07 952.328C1538.07 957.703 1538.96 962.625 1540.75 967.094C1542.56 971.562 1545.2 975.141 1548.67 977.828C1552.14 980.516 1556.37 981.859 1561.37 981.859ZM1641 916V923.266H1605.61V916H1641ZM1616.67 988V905.453C1616.67 901.578 1617.56 898.312 1619.34 895.656C1621.16 893 1623.52 890.984 1626.42 889.609C1629.33 888.234 1632.41 887.547 1635.66 887.547C1637.84 887.547 1639.66 887.734 1641.09 888.109C1642.56 888.453 1643.72 888.797 1644.56 889.141L1642.12 896.453C1641.5 896.266 1640.73 896.047 1639.83 895.797C1638.92 895.547 1637.78 895.422 1636.41 895.422C1632.78 895.422 1629.98 896.437 1628.02 898.469C1626.05 900.5 1625.06 903.406 1625.06 907.187L1625.02 988H1616.67ZM1748.64 916C1748.11 910.656 1745.75 906.406 1741.56 903.25C1737.37 900.094 1732.11 898.516 1725.76 898.516C1721.29 898.516 1717.36 899.281 1713.95 900.812C1710.57 902.344 1707.92 904.469 1705.98 907.187C1704.07 909.875 1703.12 912.938 1703.12 916.375C1703.12 918.906 1703.67 921.125 1704.76 923.031C1705.86 924.937 1707.32 926.578 1709.17 927.953C1711.04 929.297 1713.11 930.453 1715.36 931.422C1717.64 932.391 1719.93 933.203 1722.25 933.859L1732.37 936.766C1735.43 937.609 1738.5 938.687 1741.56 940C1744.62 941.312 1747.42 942.969 1749.95 944.969C1752.51 946.937 1754.56 949.359 1756.09 952.234C1757.65 955.078 1758.43 958.5 1758.43 962.5C1758.43 967.625 1757.11 972.234 1754.45 976.328C1751.79 980.422 1747.98 983.672 1743.01 986.078C1738.04 988.453 1732.09 989.641 1725.15 989.641C1718.62 989.641 1712.95 988.562 1708.14 986.406C1703.32 984.219 1699.54 981.203 1696.79 977.359C1694.04 973.516 1692.5 969.062 1692.15 964H1701.15C1701.46 967.781 1702.71 970.984 1704.9 973.609C1707.09 976.234 1709.93 978.234 1713.43 979.609C1716.93 980.953 1720.84 981.625 1725.15 981.625C1729.93 981.625 1734.18 980.828 1737.9 979.234C1741.65 977.609 1744.59 975.359 1746.71 972.484C1748.87 969.578 1749.95 966.203 1749.95 962.359C1749.95 959.109 1749.11 956.391 1747.42 954.203C1745.73 951.984 1743.37 950.125 1740.34 948.625C1737.34 947.125 1733.86 945.797 1729.89 944.641L1718.4 941.266C1710.87 939.016 1705.03 935.906 1700.87 931.937C1696.71 927.969 1694.64 922.906 1694.64 916.75C1694.64 911.594 1696.01 907.062 1698.76 903.156C1701.54 899.219 1705.29 896.156 1710.01 893.969C1714.76 891.75 1720.09 890.641 1726 890.641C1731.96 890.641 1737.25 891.734 1741.84 893.922C1746.43 896.109 1750.07 899.125 1752.76 902.969C1755.48 906.781 1756.93 911.125 1757.12 916H1748.64ZM1779.53 988V892H1835.21V899.875H1788.29V936.016H1832.26V943.891H1788.29V980.125H1836.15V988H1779.53ZM1852.09 899.875V892H1921.7V899.875H1891.28V988H1882.51V899.875H1852.09ZM2005.42 892H2014.18V955.562C2014.18 962.094 2012.65 967.937 2009.59 973.094C2006.53 978.219 2002.26 982.266 1996.79 985.234C1991.36 988.172 1985.03 989.641 1977.81 989.641C1970.62 989.641 1964.29 988.156 1958.82 985.187C1953.36 982.219 1949.09 978.172 1946.03 973.047C1942.96 967.922 1941.43 962.094 1941.43 955.562V892H1950.2V954.953C1950.2 960.047 1951.34 964.594 1953.62 968.594C1955.9 972.562 1959.11 975.687 1963.23 977.969C1967.39 980.25 1972.25 981.391 1977.81 981.391C1983.37 981.391 1988.23 980.25 1992.39 977.969C1996.54 975.687 1999.75 972.562 2002 968.594C2004.28 964.594 2005.42 960.047 2005.42 954.953V892ZM2076.79 988V892H2085.18V929.734H2085.93C2086.86 927.578 2088.21 925.359 2089.96 923.078C2091.74 920.797 2094.07 918.891 2096.94 917.359C2099.85 915.797 2103.5 915.016 2107.91 915.016C2113.82 915.016 2119 916.578 2123.47 919.703C2127.94 922.797 2131.43 927.141 2133.93 932.734C2136.43 938.297 2137.68 944.781 2137.68 952.188C2137.68 959.625 2136.43 966.141 2133.93 971.734C2131.46 977.328 2127.99 981.687 2123.52 984.812C2119.08 987.937 2113.93 989.5 2108.05 989.5C2103.68 989.5 2100.02 988.719 2097.08 987.156C2094.18 985.594 2091.83 983.672 2090.05 981.391C2088.27 979.078 2086.89 976.828 2085.93 974.641H2084.89V988H2076.79ZM2085.04 952.047C2085.04 957.859 2085.89 963.016 2087.61 967.516C2089.36 971.984 2091.86 975.5 2095.11 978.062C2098.39 980.594 2102.36 981.859 2107.02 981.859C2111.8 981.859 2115.85 980.547 2119.16 977.922C2122.47 975.266 2124.99 971.687 2126.71 967.188C2128.43 962.687 2129.29 957.641 2129.29 952.047C2129.29 946.516 2128.43 941.531 2126.71 937.094C2125.02 932.656 2122.52 929.141 2119.21 926.547C2115.89 923.922 2111.83 922.609 2107.02 922.609C2102.33 922.609 2098.35 923.875 2095.07 926.406C2091.82 928.906 2089.33 932.375 2087.61 936.812C2085.89 941.219 2085.04 946.297 2085.04 952.047ZM2159.24 1015C2157.58 1015 2156.04 1014.84 2154.6 1014.53C2153.16 1014.22 2152.02 1013.88 2151.18 1013.5L2153.43 1006.14C2156.27 1007.02 2158.8 1007.33 2161.02 1007.08C2163.24 1006.86 2165.21 1005.86 2166.93 1004.08C2168.64 1002.33 2170.18 999.641 2171.52 996.016L2174.14 988.703L2147.66 916H2156.71L2178.08 976.984H2178.74L2200.11 916H2209.16L2178.69 999.391C2177.41 1002.86 2175.83 1005.75 2173.96 1008.06C2172.08 1010.41 2169.91 1012.14 2167.44 1013.27C2165 1014.42 2162.27 1015 2159.24 1015ZM2281.03 988L2254.73 892H2263.64L2285.39 974.547H2286.14L2307.89 892H2318.02L2339.77 974.547H2340.52L2362.27 892H2371.22L2344.92 988H2335.55L2313.28 906.578H2312.67L2290.41 988H2281.03ZM2393.67 943V988H2385.33V892H2393.67V927.297H2394.42C2396.11 923.578 2398.72 920.609 2402.25 918.391C2405.81 916.172 2410.31 915.063 2415.75 915.063C2420.63 915.063 2424.91 916.062 2428.59 918.062C2432.28 920.062 2435.16 923.016 2437.22 926.922C2439.28 930.828 2440.31 935.641 2440.31 941.359V988H2431.92V941.875C2431.92 935.937 2430.27 931.266 2426.95 927.859C2423.67 924.422 2419.23 922.703 2413.64 922.703C2409.8 922.703 2406.38 923.516 2403.38 925.141C2400.38 926.766 2398 929.109 2396.25 932.172C2394.53 935.203 2393.67 938.812 2393.67 943ZM2482.39 989.641C2478.05 989.641 2474.08 988.797 2470.49 987.109C2466.89 985.391 2464.04 982.922 2461.91 979.703C2459.79 976.453 2458.72 972.516 2458.72 967.891C2458.72 964.328 2459.39 961.328 2460.74 958.891C2462.08 956.453 2463.99 954.453 2466.46 952.891C2468.93 951.328 2471.85 950.094 2475.22 949.187C2478.6 948.281 2482.32 947.578 2486.38 947.078C2490.41 946.578 2493.82 946.141 2496.6 945.766C2499.41 945.391 2501.55 944.797 2503.02 943.984C2504.49 943.172 2505.22 941.859 2505.22 940.047V938.359C2505.22 933.453 2503.75 929.594 2500.82 926.781C2497.91 923.937 2493.72 922.516 2488.25 922.516C2483.07 922.516 2478.83 923.656 2475.55 925.937C2472.3 928.219 2470.02 930.906 2468.71 934L2460.79 931.141C2462.41 927.203 2464.66 924.062 2467.54 921.719C2470.41 919.344 2473.63 917.641 2477.19 916.609C2480.75 915.547 2484.36 915.016 2488.02 915.016C2490.77 915.016 2493.63 915.375 2496.6 916.094C2499.6 916.812 2502.38 918.062 2504.94 919.844C2507.5 921.594 2509.58 924.047 2511.18 927.203C2512.77 930.328 2513.57 934.297 2513.57 939.109V988H2505.22V976.609H2504.71C2503.71 978.734 2502.22 980.797 2500.25 982.797C2498.29 984.797 2495.82 986.437 2492.85 987.719C2489.88 989 2486.39 989.641 2482.39 989.641ZM2483.52 982C2487.96 982 2491.8 981.016 2495.05 979.047C2498.3 977.078 2500.8 974.469 2502.55 971.219C2504.33 967.937 2505.22 964.328 2505.22 960.391V949.984C2504.6 950.578 2503.55 951.109 2502.08 951.578C2500.64 952.047 2498.97 952.469 2497.07 952.844C2495.19 953.187 2493.32 953.484 2491.44 953.734C2489.57 953.984 2487.88 954.203 2486.38 954.391C2482.32 954.891 2478.85 955.672 2475.97 956.734C2473.1 957.797 2470.89 959.266 2469.36 961.141C2467.83 962.984 2467.07 965.359 2467.07 968.266C2467.07 972.641 2468.63 976.031 2471.75 978.437C2474.88 980.812 2478.8 982 2483.52 982ZM2564.12 916V923.266H2529.76V916H2564.12ZM2540.5 898.75H2548.89V969.203C2548.89 972.203 2549.4 974.562 2550.43 976.281C2551.46 977.969 2552.81 979.172 2554.46 979.891C2556.12 980.578 2557.89 980.922 2559.76 980.922C2560.86 980.922 2561.79 980.859 2562.57 980.734C2563.36 980.578 2564.04 980.422 2564.64 980.266L2566.42 987.812C2565.61 988.125 2564.61 988.406 2563.42 988.656C2562.23 988.938 2560.76 989.078 2559.01 989.078C2555.95 989.078 2553 988.406 2550.15 987.062C2547.34 985.719 2545.03 983.719 2543.21 981.062C2541.4 978.406 2540.5 975.109 2540.5 971.172V898.75ZM2593.76 892V900.437C2593.76 903 2593.29 905.734 2592.35 908.641C2591.45 911.516 2590.1 914.312 2588.32 917.031C2586.57 919.719 2584.45 922.062 2581.95 924.062L2577.4 920.078C2579.74 917.328 2581.73 914.281 2583.35 910.938C2584.98 907.562 2585.79 904.109 2585.79 900.578V892H2593.76ZM2647.69 931.797L2640.05 933.953C2639.3 931.797 2638.23 929.844 2636.86 928.094C2635.48 926.344 2633.69 924.953 2631.47 923.922C2629.28 922.891 2626.56 922.375 2623.31 922.375C2618.44 922.375 2614.44 923.531 2611.31 925.844C2608.19 928.156 2606.63 931.141 2606.63 934.797C2606.63 937.891 2607.69 940.406 2609.81 942.344C2611.97 944.25 2615.28 945.766 2619.75 946.891L2630.63 949.562C2636.66 951.031 2641.17 953.359 2644.17 956.547C2647.2 959.734 2648.72 963.734 2648.72 968.547C2648.72 972.609 2647.59 976.219 2645.34 979.375C2643.09 982.531 2639.95 985.016 2635.92 986.828C2631.92 988.609 2627.28 989.5 2622 989.5C2614.97 989.5 2609.17 987.922 2604.61 984.766C2600.05 981.578 2597.12 976.984 2595.84 970.984L2603.86 969.016C2604.89 973.297 2606.91 976.531 2609.91 978.719C2612.94 980.906 2616.92 982 2621.86 982C2627.39 982 2631.81 980.766 2635.13 978.297C2638.44 975.797 2640.09 972.672 2640.09 968.922C2640.09 966.016 2639.13 963.578 2637.19 961.609C2635.25 959.609 2632.31 958.141 2628.37 957.203L2616.61 954.391C2610.36 952.891 2605.73 950.516 2602.73 947.266C2599.73 944.016 2598.23 939.984 2598.23 935.172C2598.23 931.203 2599.31 927.719 2601.47 924.719C2603.63 921.687 2606.59 919.312 2610.38 917.594C2614.16 915.875 2618.47 915.016 2623.31 915.016C2629.91 915.016 2635.17 916.516 2639.11 919.516C2643.08 922.484 2645.94 926.578 2647.69 931.797ZM2784.55 940C2784.55 950 2782.77 958.703 2779.21 966.109C2775.64 973.484 2770.74 979.203 2764.49 983.266C2758.27 987.297 2751.11 989.312 2743.02 989.312C2734.93 989.312 2727.75 987.297 2721.5 983.266C2715.29 979.203 2710.39 973.484 2706.83 966.109C2703.3 958.703 2701.54 950 2701.54 940C2701.54 930 2703.3 921.312 2706.83 913.937C2710.39 906.531 2715.3 900.812 2721.55 896.781C2727.8 892.719 2734.96 890.687 2743.02 890.687C2751.11 890.687 2758.27 892.719 2764.49 896.781C2770.74 900.812 2775.64 906.531 2779.21 913.937C2782.77 921.312 2784.55 930 2784.55 940ZM2776.02 940C2776.02 931.406 2774.58 924.047 2771.71 917.922C2768.83 911.766 2764.91 907.062 2759.94 903.812C2754.97 900.562 2749.33 898.937 2743.02 898.937C2736.74 898.937 2731.11 900.562 2726.14 903.812C2721.18 907.062 2717.24 911.75 2714.33 917.875C2711.46 924 2710.02 931.375 2710.02 940C2710.02 948.594 2711.46 955.953 2714.33 962.078C2717.21 968.203 2721.13 972.906 2726.1 976.187C2731.07 979.437 2736.71 981.062 2743.02 981.062C2749.33 981.062 2754.97 979.437 2759.94 976.187C2764.94 972.937 2768.88 968.25 2771.75 962.125C2774.63 955.969 2776.05 948.594 2776.02 940ZM2812.36 943V988H2804.02V916H2812.13V927.297H2812.88C2814.56 923.609 2817.19 920.656 2820.75 918.438C2824.34 916.188 2828.78 915.063 2834.06 915.063C2838.91 915.063 2843.16 916.078 2846.81 918.109C2850.5 920.109 2853.36 923.062 2855.39 926.969C2857.45 930.875 2858.48 935.672 2858.48 941.359V988H2850.14V941.875C2850.14 935.969 2848.48 931.297 2845.17 927.859C2841.89 924.422 2837.48 922.703 2831.95 922.703C2828.17 922.703 2824.81 923.516 2821.88 925.141C2818.94 926.766 2816.61 929.109 2814.89 932.172C2813.2 935.203 2812.36 938.812 2812.36 943ZM2892.18 892L2891.57 960.484H2883.32L2882.71 892H2892.18ZM2887.44 988.703C2885.6 988.703 2884 988.047 2882.66 986.734C2881.35 985.391 2880.69 983.797 2880.69 981.953C2880.69 980.078 2881.35 978.484 2882.66 977.172C2884 975.859 2885.6 975.203 2887.44 975.203C2889.29 975.203 2890.86 975.859 2892.18 977.172C2893.52 978.484 2894.19 980.078 2894.19 981.953C2894.19 983.172 2893.88 984.297 2893.25 985.328C2892.66 986.359 2891.85 987.187 2890.82 987.812C2889.82 988.406 2888.69 988.703 2887.44 988.703Z" fill="#122B70"/>
<line x1="969.5" y1="43" x2="969.5" y2="1039" stroke="#122B70" stroke-width="5"/>
</svg>
