<svg width="365" height="735" viewBox="0 0 365 735" fill="none" xmlns="http://www.w3.org/2000/svg">
<path d="M182.241 0C204.586 0.441 221.511 9.684 239.221 23.2275C274.001 49.8985 283.116 93.836 299.481 132.034C311.586 160.281 313.346 173.02 293.706 196.872C300.766 203.964 318.396 205.419 329.606 211.814C343.791 219.905 350.986 228.263 355.396 244.831C363.021 273.481 365.616 308.857 363.546 338.367C363.001 346.082 359.941 355.435 356.336 361.978C344.296 383.803 326.336 387.799 304.986 394.304C304.761 404.229 303.146 413.404 297.311 421.594C295.276 424.449 293.156 426.834 291.191 429.749L290.876 430.224C290.741 491.649 249.711 522.974 200.551 549.864C188.566 557.549 162.341 568.823 165.955 586.633C169.452 599.818 186.381 604.173 197.801 607.763C216.561 613.658 243.881 621.719 248.581 643.929C254.771 673.184 224.781 689.074 201.076 695.229C189.741 698.174 177.811 700.048 166.772 703.943C161.786 705.853 158.198 707.974 155.333 712.534C151.706 723.794 157.945 727.273 164.707 734.628C150.199 733.638 129.606 724.093 134.051 705.753C139.14 686.173 166.049 683.409 179.376 674.179C203.946 657.164 170.626 642.888 155.732 640.013C145.109 637.963 134.297 635.638 124.228 633.448C118.333 632.123 112.554 630.328 106.948 628.078C48.3328 604.583 42.9238 542.888 64.1553 490.508C67.6218 481.958 74.6193 465.918 76.1078 457.453C74.5013 456.418 71.8558 454.829 70.8678 453.234C66.9853 446.969 70.3613 432.598 71.7423 425.453C59.8048 414.673 58.5769 405.334 58.4904 389.539C41.2469 385.689 26.1613 382.479 14.0263 367.97C-5.53217 343.8 0.18433 303.909 3.01083 275.408C6.23233 242.923 13.0318 216.906 47.4263 207.106C55.9273 204.684 64.5358 202.084 71.4093 196.507C64.1498 185.972 58.1178 178.187 57.4388 164.915C56.4853 152.062 61.9093 140.258 66.5058 128.612C70.9918 117.245 75.6013 105.752 79.8253 94.295C87.2053 74.2745 95.3559 54.366 109.794 38.2235C127.86 18.024 154.806 1.802 182.241 0Z" fill="black"/>
<path d="M131.53 231.526L132.085 231.195C127.046 227.316 120.668 224.388 115.14 220.436C95.2455 206.212 62.2219 182.068 69.3059 153.829C71.6379 144.533 76.2369 135.132 79.4729 126.075C88.7164 102.462 97.8119 70.3032 113.065 50.2057C127.219 31.5557 155.54 13.3797 178.869 10.5277C196.804 8.33468 217.959 19.9127 231.644 30.5472C241.474 38.0742 249.904 47.2692 256.554 57.7132C267.989 75.9352 275.329 101.091 283.499 121.09C293.229 144.915 306.864 165.367 287.254 188.302C273.864 203.961 259.824 214.608 242.289 225.198C240.664 226.179 232.519 230.723 232.004 231.714C232.199 235.336 232.274 237.961 232.159 241.579C250.784 235.237 268.604 227.852 285.454 217.589C289.084 215.377 292.574 212.972 296.184 210.756C311.074 214.668 330.544 219.263 338.969 233.502C350.899 253.666 356.879 321.698 350.829 345.098C348.664 353.469 344.179 362.054 337.739 367.929C332.884 372.872 324.589 377.684 318.089 379.974C272.779 395.949 210.294 380.594 168.24 361.717C176.059 356.863 192.479 345.998 200.319 342.565C210.849 335.985 235.549 322.697 247.529 320.938C269.709 315.346 287.224 313.98 309.489 320.453C315.719 321.849 319.909 324.041 325.644 326.669C310.364 309.56 296.384 307.734 275.039 305.149C285.144 296.962 292.604 292.27 303.489 285.33C291.809 286.691 287.084 286.606 275.184 290.131C284.694 269.112 294.249 254.827 307.394 236.27C282.479 250.87 268.399 273.565 256.039 298.751C251.279 295.658 246.289 292.94 241.104 290.62C223.974 282.945 201.299 278.395 182.439 281.049C175.269 282.059 167.612 284.767 160.859 287.366C138.949 281.508 124.522 283.465 102.341 287.887C94.6559 274.559 83.9629 259.374 72.3899 249.15C68.0219 245.292 60.6769 240.212 55.7359 236.585C65.9899 250.584 75.4099 264.953 81.9934 281.107C64.4674 277.348 45.7644 283.311 32.2964 294.741C49.0579 289.665 59.1674 288.554 76.4594 292.226C61.7239 299.195 51.1089 304.452 41.6869 317.964L52.3804 313.227C75.1394 301.014 105.665 294.344 131.546 292.575C145.135 291.646 158.209 293.138 168.677 302.54C176.399 309.961 180.779 320.279 181.519 330.9C181.869 333.931 181.779 336.991 181.769 340.045C156.146 355.619 130.048 368.851 100.493 375.074C77.9254 379.824 44.1665 382.934 26.278 365.038C5.59295 345.535 11.3389 304.887 14.1739 279.273C19.4549 231.564 23.6154 223.738 69.1074 210.447C87.7624 223.195 109.649 233.482 130.77 241.392C130.729 239.013 130.28 233.169 131.53 231.526Z" fill="#FBD433"/>
<path d="M168.242 361.722C176.061 356.868 192.481 346.003 200.321 342.57C201.226 342.95 201.221 343.022 202.171 343.185L202.306 343.81C200.146 346.667 197.641 349.281 197.206 352.749C197.941 354.923 198.451 355.289 200.746 356.296C233.611 370.716 271.966 377.509 307.746 373.708C314.421 372.999 333.976 367.872 337.741 367.934C332.886 372.877 324.591 377.689 318.091 379.979C272.781 395.954 210.296 380.599 168.242 361.722Z" fill="white"/>
<path d="M181.519 330.898C181.869 333.929 181.779 336.989 181.769 340.044C156.145 355.617 130.047 368.85 100.493 375.073C77.9248 379.823 44.1658 382.933 26.2773 365.036C28.5618 364.118 32.3943 365.693 34.9798 366.279C83.9703 377.383 134.524 353.033 178.339 333.782C180.454 332.853 180.754 332.942 181.519 330.898Z" fill="white"/>
<path d="M52.3789 313.225C75.1379 301.013 105.663 294.343 131.544 292.573C145.134 291.644 158.207 293.137 168.675 302.538C166.887 303.31 156.392 301.939 153.346 301.826C143.026 301.42 132.692 301.639 122.399 302.482C96.1994 304.755 78.7254 309.487 53.5999 316.438C52.7234 315.411 52.6729 314.547 52.3789 313.225Z" fill="white"/>
<path d="M232.003 231.719C232.198 235.341 232.273 237.966 232.158 241.584C232.098 248.188 231.743 255.221 232.493 261.752C232.738 263.899 237.673 269.002 234.578 271.536C230.658 274.746 232.883 281.964 227.303 282.951C221.153 280.803 223.493 276.485 222.648 275.379C215.928 266.559 220.508 267.209 222.878 258.62C223.713 255.587 223.273 245.273 223.263 240.858L223.283 235.882C225.108 235.253 230.183 232.658 232.003 231.719Z" fill="#FEFEFE"/>
<path d="M130.77 241.397C130.729 239.018 130.28 233.174 131.53 231.531C133.379 232.66 137.654 235.139 139.736 235.443L139.727 243.142C139.732 248.653 139.14 258.73 141.607 262.924C144.585 267.791 143.888 269.556 140.65 273.702C139.719 274.895 140.577 280.191 137.698 280.809C136.464 281.074 133.553 280.975 132.801 279.872C130.614 276.663 128.608 271.974 127.374 268.294C126.912 265.813 130.398 261.562 130.622 258.955C131.113 253.244 130.855 247.075 130.77 241.397Z" fill="#FEFEFE"/>
<path d="M247.531 320.942C269.711 315.35 287.226 313.984 309.491 320.457C311.911 323.191 312.161 323.843 313.631 327.06C295.161 322.952 275.536 322.426 256.701 321.505C253.611 321.354 250.616 321.273 247.531 320.942Z" fill="white"/>
<path d="M139.736 235.438C143.629 236.482 159.79 246.735 164.034 249.318C159.102 247.804 144.372 243.378 139.727 243.137L139.736 235.438Z" fill="black"/>
<path d="M200.098 248.622C205.308 245.403 217.793 238.119 223.283 235.883L223.263 240.859C223.198 241.18 223.093 241.763 222.958 242.049C222.188 243.673 203.233 247.783 200.098 248.622Z" fill="black"/>
<path d="M134.588 221.168C133.989 221.107 133.202 220.959 132.696 220.638C101.201 200.673 65.5708 161.227 87.6988 122.171C105.83 90.1687 127.004 63.6097 163.582 52.0547C153.321 60.2152 146.984 65.5252 137.818 75.0047C178.176 52.8492 218.686 65.3692 252.251 94.7597C292.866 130.32 293.856 168.922 252.831 205.555C249.221 208.782 235.771 219.351 230.871 219.546C214.061 232.164 197.646 247.3 180.181 258.887C168.846 250.8 157.903 240.368 147.047 231.547C145.255 230.091 136.069 221.9 134.588 221.168Z" fill="black"/>
<path d="M134.588 221.168C133.989 221.107 133.202 220.959 132.696 220.638C101.201 200.673 65.5708 161.227 87.6988 122.171C105.83 90.1687 127.004 63.6097 163.582 52.0547C153.321 60.2152 146.984 65.5252 137.818 75.0047C178.176 52.8492 218.686 65.3692 252.251 94.7597C292.866 130.32 293.856 168.922 252.831 205.555C249.221 208.782 235.771 219.351 230.871 219.546C248.556 203.711 273.351 179.293 274.161 154.789C275.516 113.572 220.556 74.9357 183.186 72.9032C160.657 71.6777 135.157 85.9842 118.998 100.47C80.4808 135.611 82.9568 167.327 117.296 204.262C122.83 210.128 128.599 215.768 134.588 221.168Z" fill="white"/>
<path d="M115.728 146.456C114.567 134.743 111.397 122.93 119.571 112.899C127.483 103.189 148.186 91.3169 161.016 95.4809C163.101 98.2329 161.051 102.057 163.879 103.761C167.51 105.948 174.383 103.687 178.233 102.535C196.713 95.4169 208.063 90.6349 227.208 99.9539C235.373 103.927 246.293 112.461 249.208 121.529C251.088 127.373 249.583 138.757 248.968 145.303C250.353 145.774 249.973 145.494 251.053 146.362C249.348 152.954 250.088 158.73 249.043 163.607C248.793 164.505 248.558 165.404 248.328 166.306L247.068 164.33C244.593 180.902 238.458 191.403 224.828 201.542C215.478 208.378 204.828 213.237 193.533 215.82L196.068 216.564L196.078 216.906C194.018 217.435 191.748 217.617 189.618 217.867C184.493 217.937 179.213 217.817 174.078 217.765L173.638 217.114L174.098 216.064C172.798 215.396 165.521 213.922 163.541 213.298C139.463 205.718 124.188 192.547 118.339 167.959L117.47 166.653L116.594 166.399L116.052 165.033C114.95 157.885 116.466 154.765 113.676 146.486C113.835 145.564 114.064 144.705 114.286 143.798C114.7 144.729 115.193 145.588 115.728 146.456Z" fill="#A6D2FC"/>
<path d="M113.676 146.485C113.835 145.563 114.064 144.704 114.286 143.797C114.7 144.728 115.193 145.587 115.728 146.455C116.922 153.558 117.587 160.792 118.339 167.958L117.47 166.652L116.594 166.398L116.052 165.032C114.95 157.884 116.466 154.764 113.676 146.485Z" fill="black"/>
<path d="M248.97 145.305C250.355 145.775 249.975 145.495 251.055 146.364C249.35 152.955 250.09 158.731 249.045 163.609C248.795 164.506 248.56 165.406 248.33 166.308L247.07 164.332C247.74 157.993 248.375 151.651 248.97 145.305Z" fill="black"/>
<path d="M174.101 216.064C182.271 216.938 185.331 216.759 193.536 215.82L196.071 216.564L196.081 216.907C194.021 217.436 191.751 217.618 189.621 217.868C184.496 217.938 179.216 217.817 174.081 217.766L173.641 217.114L174.101 216.064Z" fill="black"/>
<path d="M216.306 122.869C227.891 122.539 233.446 130.455 235.696 140.912C238.491 153.916 231.391 152.787 221.631 152.675C216.606 152.682 201.271 154.344 200.761 147.514C199.971 137.02 204.931 125.101 216.306 122.869Z" fill="black"/>
<path d="M219.944 127.024C223.144 126.207 226.409 128.128 227.249 131.325C228.089 134.523 226.189 137.798 222.994 138.659C219.774 139.527 216.459 137.606 215.614 134.378C214.764 131.15 216.709 127.85 219.944 127.024Z" fill="#FEFEFE"/>
<path d="M145.325 122.866L145.989 122.834C150.833 122.632 153.639 123.414 157.513 126.975C162.431 131.493 167.201 145.437 161.853 150.982C159.969 152.935 151.147 152.418 148.021 152.412C143.48 152.531 129.91 154.25 129.281 147.793C128.205 136.73 133.476 125.24 145.325 122.866Z" fill="black"/>
<path d="M148.631 126.959C151.839 125.82 155.363 127.491 156.512 130.695C157.661 133.898 156.001 137.428 152.801 138.587C149.587 139.751 146.038 138.083 144.884 134.865C143.73 131.647 145.409 128.103 148.631 126.959Z" fill="#FEFEFE"/>
<path d="M213.295 165.758C218.235 165.764 220.68 168.327 218.755 173.046C217.315 174.305 214.935 174.145 212.93 174.551C198.83 190.651 171.425 187.726 153.966 179.181C151.622 177.178 149.447 175.128 151.445 171.977C154.964 170.487 162.292 177.076 165.792 178.78C178.555 184.992 193.935 182.057 204.75 173.272C207.625 170.933 210.265 168.168 213.295 165.758Z" fill="black"/>
<path d="M213.191 103.366C222.266 102.268 231.896 106.02 236.166 114.754C236.776 116.012 236.726 116.65 236.236 117.839C234.551 118.021 234.831 117.774 233.001 116.718C227.876 113.28 224.581 111.385 218.451 110.022C214.606 109.167 209.851 111.521 207.486 109.954L207.336 108.765C208.801 105.915 210.381 104.785 213.191 103.366Z" fill="black"/>
<path d="M142.965 103.386C147.187 103.126 156.01 102.605 156.027 108.807C154.079 111.218 146.55 109.939 142.809 110.989C139.336 111.964 138.955 112.188 135.771 113.815C133.392 115.324 130.908 117.328 128.187 117.337L127.551 116.595C128.818 110.222 137.242 105.291 142.965 103.386Z" fill="black"/>
<path d="M176.85 159.367C179.505 159.225 182.64 159.242 184.865 160.945L184.16 161.225C181.38 160.658 177.42 161.112 175.66 160.259L176.85 159.367Z" fill="black"/>
<path d="M144.82 213.289C154.286 217.499 164.088 222.63 174.27 223.025C179.405 223.076 185.145 223.095 190.27 223.025C197.16 223.921 208.689 217.649 215.419 215.842C213.549 218.185 211.449 221.034 209.269 223.025C203.064 230.038 187.774 243.659 180.354 249.21C168.841 240.119 158.55 229.363 148.94 218.334C147.494 217.06 146.01 214.883 144.82 213.289Z" fill="#A6D2FC"/>
<path d="M144.82 213.289C154.286 217.499 163.588 222.63 173.77 223.025C178.905 223.076 185.145 223.095 190.27 223.025C197.16 223.921 208.689 217.649 215.419 215.842C213.549 218.185 211.449 221.034 209.269 223.025C207.129 223.788 203.409 225.831 200.969 226.848C183.129 234.279 165.916 225.443 149.631 218.438C149.401 218.403 149.17 218.369 148.94 218.334C147.494 217.06 146.01 214.883 144.82 213.289Z" fill="white"/>
<path d="M116.052 165.032C115.86 166.797 116.251 166.16 115.309 167.327C102.13 168.645 88.6084 144.767 107.801 133.375C109.811 137.264 111.892 142.399 113.676 146.485C116.467 154.764 114.951 157.884 116.052 165.032Z" fill="#A6D3FA"/>
<path d="M251.053 146.361C252.338 142.744 254.528 136.455 257.928 134.711C259.393 134.773 259.503 134.689 260.613 135.819C268.543 143.897 268.138 156.372 259.518 163.784C257.243 165.74 252.143 169.103 249.373 166.434L249.043 163.606C250.088 158.728 249.348 152.952 251.053 146.361Z" fill="#A6D3FA"/>
<path d="M90.4231 461.131C96.1111 462.626 102.016 463.801 107.843 464.631C164.382 472.656 227.748 467.716 277.978 438.766C272.358 492.761 236.093 518.761 192.198 543.196C178.598 550.701 148.671 567.251 153.753 586.941C161.54 617.111 204.613 615.066 228.138 631.941C226.568 634.421 226.948 638.046 226.668 641.006C225.233 656.221 215.183 670.976 199.913 675.001C197.753 675.571 195.558 676.526 193.348 676.706C198.393 670.551 201.188 663.986 197.913 656.116C187.948 632.171 154.765 630.111 132.782 625.111C105.022 618.791 80.4041 605.681 70.1981 577.441C55.6331 537.141 73.6591 497.426 90.4231 461.131Z" fill="#A6D4FA"/>
<path d="M132.199 379.391C138.892 376.776 144.939 374.216 151.274 370.758C185.151 386.606 220.171 397.296 257.781 398.691C271.726 399.206 280.451 398.246 293.841 397.651C291.991 411.251 288.396 419.671 277.071 428.006C268.631 434.216 257.791 438.926 247.886 442.186C199.046 458.276 129.62 464.381 80.7769 446.081C81.2279 439.891 81.8339 432.511 83.0169 426.401C94.7089 429.126 106.273 431.731 118.197 433.261C151.703 437.556 217.206 439.541 246.241 421.696C249.006 419.996 251.611 417.986 254.221 416.056C203.231 428.796 156.742 432.381 104.598 422.111C96.4339 420.501 84.9664 417.891 77.6149 414.141C74.0644 412.331 72.1024 407.016 70.8119 403.336C69.6889 398.576 69.3009 394.871 69.2344 390.031C96.7249 389.311 106.473 387.191 132.199 379.391Z" fill="#FBD433"/>
<path d="M69.2344 390.031C96.7249 389.311 106.473 387.191 132.199 379.391C132.933 380.936 132.364 380.256 134.477 381.046C133.393 382.601 130.043 384.511 128.387 385.556C114.26 394.436 87.9889 406.056 70.8119 403.336C69.6889 398.576 69.3009 394.871 69.2344 390.031Z" fill="white"/>
<path d="M228.138 631.938C233.388 636.753 237.618 642.203 238.038 649.628C238.458 656.988 234.688 663.993 229.833 669.268C207.518 693.508 163.508 688.378 149.856 705.268C147.271 708.468 146.562 711.833 145.577 715.698L144.959 715.633C139.856 707.058 148.473 698.233 155.563 694.348C168.425 687.293 181.333 685.548 193.348 676.703C195.558 676.523 197.753 675.567 199.913 674.997C215.183 670.972 225.233 656.218 226.668 641.003C226.948 638.043 226.568 634.418 228.138 631.938Z" fill="white"/>
<path d="M170.84 292.786C180.115 289.472 196.26 285.63 204.175 293.269C211.345 301.986 212.13 313.377 211.785 324.192C204.395 327.89 197.07 331.716 189.81 335.67C188.785 319.917 186.9 311.385 176.96 298.335C174.595 295.777 173.54 294.925 170.84 292.786Z" fill="#FBD433"/>
<path d="M170.84 292.786C180.115 289.472 196.26 285.63 204.175 293.269C201.135 294.479 182.275 297.119 176.96 298.335C174.595 295.777 173.54 294.925 170.84 292.786Z" fill="white"/>
<path d="M213.176 291.547C230.476 295.319 240.566 299.199 254.571 310.198L245.561 313.03C237.391 315.795 229.256 318.662 221.161 321.63C220.486 309.63 219.426 302.058 213.176 291.547Z" fill="white"/>
</svg>
