<svg width="569" height="489" viewBox="0 0 569 489" fill="none" xmlns="http://www.w3.org/2000/svg">
<path d="M243.791 26.0308C254.43 25.528 250.025 31.2769 253.901 35.942C259.517 42.7002 262.46 43.2431 264.965 52.94C268.139 65.2225 264.901 74.7537 258.761 85.3941C263.824 90.2411 267.717 92.2444 272.751 96.4219C280.557 102.9 286.872 114.558 289.024 124.392C289.917 128.471 290.381 133.707 291.381 137.593C295.348 153.025 306.2 170.238 319.903 178.552C349.793 196.688 387.986 171.727 414.729 158.233C424.051 153.529 436.492 148.803 446.692 146.331C479.765 138.318 515.729 144.687 544.789 162.126C550.153 165.612 557.092 169.995 558.699 176.61C559.766 180.993 557.159 184.741 552.488 184.302C546.965 183.779 541.714 181.701 536.245 180.708C496.093 173.413 450.913 189.782 424.602 220.973C418.675 228 414.108 235.929 408.368 243.183C403.019 249.945 395.857 253.671 391.248 260.722C388.692 264.837 386.024 273.573 384.138 278.518C380.601 287.67 376.096 296.418 370.698 304.613C350.163 335.335 316.889 354.907 281.016 362.035C278.338 368.735 277.339 369.805 271.544 374.041C272.704 375.955 273.87 378.651 275.048 380.732C278.164 386.237 281.545 391.382 285.796 396.119C289.192 399.79 296.244 406.399 301.303 407.591C309.733 409.578 318.072 408.239 324.607 416.027C327.058 419.007 328.171 422.865 327.688 426.695C327 432.432 322.507 437.488 317.98 440.893C297.84 456.045 268.475 462.268 243.673 463.115C236.55 463.356 226.657 462.464 219.857 461.681C210.802 461 198.457 457.876 189.656 454.902C177.956 450.949 156.578 440.966 160.188 425.237C162.185 416.538 172.563 412.891 179.805 409.284C183.661 407.408 187.363 405.231 190.877 402.774C201.463 395.218 208.668 385.996 213.043 373.791C207.405 369.866 205.661 367.858 204.78 360.87C198.437 359.021 193.112 357.869 186.569 355.747C169.57 350.233 148.315 338.178 135.219 326.021C135.671 341.023 126.489 352.391 113.01 358.147C94.7791 365.932 67.9338 359.73 59.7478 340.281C55.4826 330.148 58.5713 318.096 69.4093 313.77C73.662 312.034 78.4432 312.132 82.621 314.043C90.0507 317.454 85.412 325.01 87.8435 330.704C88.4961 332.233 90.6664 332.774 92.1769 333.29C95.501 332.569 99.3072 330.732 100.504 327.348C105.433 313.41 84.731 301.935 75.2279 296.21C70.6524 293.514 66.1154 290.754 61.6185 287.93C40.6129 274.447 24.0239 259.943 14.7504 236.017C0.886126 200.245 18.2964 155.808 54.9021 142.355C69.1015 137.064 84.8297 137.691 98.5632 144.093C116.743 152.54 127.711 169.612 136.42 186.882C137.844 189.706 139.256 192.619 140.334 195.591C146.974 191.29 153.584 186.943 160.164 182.552C177.465 171.058 191.728 159.999 197.893 139.182C202.796 122.624 206.564 104.511 222.143 94.488C227.582 90.9884 229.723 91.2913 233.809 85.4999C225.464 75.4041 221.937 59.9277 227.441 47.6773C229.803 42.4184 233.687 39.1906 237.887 35.4624C238.686 30.8952 238.728 27.5084 243.791 26.0308ZM368.971 294.303C372.957 287.321 376.447 280.068 379.412 272.597C381.472 267.49 383.395 261.908 385.507 256.911C380.192 256.293 377.41 255.419 372.455 253.252C343.053 284.534 289.743 299.264 247.865 300.722C204.25 302.244 155.127 292.178 121.634 262.361C119.067 260.077 111.573 249.926 109.681 249.15C109.161 274 115.481 295.791 133.07 314.51C160.369 343.557 199.842 357.355 239.134 358.468C279.197 359.599 319.236 348.76 348.696 320.336C356.622 312.633 363.444 303.873 368.971 294.303ZM327.471 196.111C333.364 203.97 334.892 212.966 333.725 222.535C332.322 234.044 323.488 243.783 311.164 241.704C299.616 239.754 290.562 231.384 283.907 222.299C281.685 219.223 279.478 216.136 277.287 213.038C275.048 217.53 273.067 222.234 271.012 226.823C259.668 252.158 226.512 263.253 216.14 229.884C214.655 224.95 213.757 219.857 213.465 214.712C211.688 214.203 209.975 213.666 208.155 213.339C197.737 225.448 182.753 234.808 166.609 236.34C156.505 237.299 144.117 232.512 143.47 220.79C142.795 208.537 152.694 200.416 161.959 194.169L158.647 191.187C148.476 197.854 137.703 204.549 128.501 212.442C124.188 216.485 120.179 220.719 117.297 225.954C120.353 238.574 128.224 249.498 139.227 256.391C148.31 262.018 158.404 263.461 168.755 260.988C173.546 259.845 178.036 257.935 182.306 255.493C188.512 251.947 198.544 242.19 206.036 246.974C216.335 253.552 213.733 274.288 234.73 277.58C239.413 278.341 244.192 278.286 248.855 277.412C267.758 273.75 269.439 256.859 282.905 251.002C294.731 245.858 312.906 269.143 328.235 264.149C340.275 260.227 350.946 253.579 360.32 245.127C349.029 234.343 342.24 221.817 341.874 205.863C341.803 201.002 342.418 196.155 343.702 191.465C340.602 191.521 337.503 191.494 334.406 191.383C332.309 192.789 329.482 195.014 327.471 196.111ZM95.1376 279.707C99.9558 282.629 104.469 285.386 109.043 288.685C107.571 283.439 106.02 278.815 104.852 273.435C101.305 257.103 101.326 239.482 109.652 224.533C112.313 219.756 115.626 216.376 118.613 212.088C118.113 210.338 117.628 208.589 117.209 206.817C112.401 186.481 97.6755 166.96 74.9849 166.711C50.359 168.345 34.9676 186.832 36.4953 211.241C38.5173 243.541 69.5071 265.054 95.1376 279.707ZM80.5015 321.742C78.2261 319.972 76.1534 318.548 73.1081 319.077C66.2404 320.269 63.384 328.326 64.7543 334.387C66.9924 344.288 76.3127 351.312 85.7485 353.712C100.546 357.297 116.701 352.501 125.216 339.413C128.868 333.801 129.286 327.394 128.325 320.944L128.176 320.559C126.038 315.18 122.676 313.41 120.369 309.555C114.243 299.319 111.25 297.631 101.115 291.527C73.2377 274.737 38.5182 255.282 31.0325 220.769C28.6208 209.707 29.0916 197.872 33.549 187.363C38.2765 176.295 47.2229 167.568 58.4056 163.117C69.4374 158.807 81.7251 159.03 92.5933 163.736C111.97 172.288 118.555 188.602 123.932 207.614C127.661 204.775 131.197 202.087 134.776 199.067C134.718 198.973 134.66 198.879 134.602 198.785C121.374 170.199 106.36 144.069 70.6166 145.585C35.4964 150.248 13.212 183.619 17.3278 218.098C20.1188 241.481 34.8921 260.276 53.2598 274.071C57.6711 277.399 62.2757 280.462 67.0492 283.247C81.4115 291.656 104.682 302.284 107.617 320.626C108.363 325.285 107.031 330.441 104.086 334.189C101.658 337.34 98.0368 339.355 94.077 339.749C86.3608 340.547 81.0483 335.479 80.5794 327.84C80.4559 325.829 80.5039 323.756 80.5015 321.742ZM222.061 133.506C219.049 149.369 210.182 160.11 193.9 162.782C191.425 165.248 189.229 167.903 186.753 170.402C181.805 175.395 176.868 179.136 171.118 183.124C182.515 189.42 191.122 195.608 204.805 194.249C219.232 192.816 230.901 189.402 238.802 176.33C246.149 164.173 234.939 160.608 234.266 155.135C234.744 154.206 234.416 154.621 235.457 154.004C239.85 153.723 242.58 162.739 243.935 163.423L244.283 163.348C246.019 160.046 247.997 155.11 251.624 153.963L252.384 154.195C253.161 157.49 247.825 163.164 246.937 166.601C244.202 177.193 253.8 186.679 262.812 190.372C267.386 192.245 271.698 193.211 276.481 194.126C290.122 197.27 298.219 193.685 310.867 188.448L318.276 185.327C309.647 179.478 306.224 176.118 299.185 168.625C279.439 166.424 270.611 152.753 272.857 133.477C272.897 133.126 272.943 132.777 272.994 132.428C264.251 133.081 256.97 133.778 249.366 127.873C248.209 126.975 246.36 124.81 245.101 124.545C238.627 132.156 232.173 134.979 222.061 133.506ZM348.063 191.041C347.785 192.413 347.519 193.8 347.247 195.171C342.509 218.965 353.324 237.856 373.855 249.703C374.274 232.125 382.255 217.03 394.726 204.798C418.941 180.532 452.775 162.558 487.648 162.506C501.036 162.583 514.317 164.887 526.95 169.324C536.594 172.792 542.074 175.775 552.663 177.827C542.493 160.235 495.017 148.118 475.091 149.285C444.296 150.757 421.469 160.652 395.24 175.821C381.427 183.809 363.936 189.538 348.063 191.041ZM219.199 376.383C215.945 387.405 208.05 397.908 199.018 404.748C195.956 407.068 186.303 413.551 188.989 417.516C193.719 424.5 211.792 428.034 219.133 428.792C238.5 432.093 261.467 431.219 280.188 424.644C287.206 422.177 292.176 418.577 295.761 411.968C287.893 408.196 282.275 402.453 277.134 395.462C274.448 391.813 272.042 387.967 269.936 383.954C268.876 381.888 267.345 376.713 265.143 376.367C253.478 378.669 243.743 379.678 231.828 378.376C227.796 377.935 222.886 376.707 219.199 376.383ZM380.962 252.271C382.249 252.515 383.997 252.897 385.275 252.714C393.091 251.589 398.58 244.531 403.349 238.871C406.066 235.125 409.104 231.068 411.55 227.206C432.555 194.045 470.965 175.623 509.313 172.64C511.563 172.466 519.247 172.758 520.883 172.211L520.981 171.686C517.245 168.129 491.591 166.15 485.245 166.291C483.98 166.323 482.714 166.376 481.452 166.451C451.32 167.7 418.51 185.574 398.009 207.279C390.48 215.251 369.139 241.686 380.962 252.271ZM151.598 265.677C156.952 269.137 167.58 272.928 173.674 274.924C209.379 286.548 247.527 288.495 284.231 280.572C287.508 279.869 292.335 278.775 295.51 277.769C303.54 275.452 314.896 272.231 322.201 268.129C316.235 267.291 314.514 266.866 308.941 264.247C300.328 260.197 290.091 248.523 280.279 255.826C276.899 258.344 273.525 263.535 270.875 266.872C261.54 278.634 250.968 283.412 236.006 281.48C227.797 280.423 220.97 276.923 215.92 270.302C214.713 268.716 213.647 267.025 212.733 265.252C209.943 259.723 207.087 249.187 199.681 249.456C194.67 251.14 191.291 254.145 186.939 257.058C174.549 265.359 165.463 265.509 151.598 265.677ZM281.667 122.91C280.056 118.222 278.513 113.621 275.571 109.547C268.777 114.93 261.202 115.217 253.737 110.671C250.831 108.901 245.631 101.953 244.443 101.637C236.825 111.59 227.067 117.82 214.649 111.951C212.864 115.851 210.518 120.661 209.314 124.718C217.054 129.193 222.907 130.729 232.056 128.752C238.279 127.407 240.193 123.527 244.887 120.365C245.433 119.997 246.385 120.503 246.955 120.755C258.708 131.586 268.291 130.784 281.667 122.91ZM246.534 87.9626C259.873 82.0309 263.767 52.5628 251.418 43.328C244.51 38.1626 249.03 32.3596 244.396 31.2479C243.696 37.6054 243.386 40.6125 238.019 44.6094C225.765 53.7365 233.291 83.8567 246.534 87.9626ZM241.714 201.622C251.108 201.565 259.739 201.019 269.045 199.671C271.15 199.366 274.433 199.216 276.296 198.614L276.397 198.205C275.058 196.952 270.945 196.666 269.137 196.145C260.841 193.752 253.459 190.637 248.395 183.314C246.969 181.251 244.713 174.667 243.412 174.015C238.255 184.499 232.639 190.916 221.449 194.832C215.656 196.86 212.125 196.614 207.44 197.883C217.474 201.55 231.041 201.667 241.714 201.622ZM270.405 367.674C272.422 366.005 273.541 364.899 275.165 362.774C270.701 363.805 265.661 364.101 261.107 364.556C249.607 365.703 239.151 366.015 227.656 364.774C222.762 364.245 214.609 362.567 210.189 362.484C217.281 378.085 257.899 376.505 270.405 367.674ZM216.629 215.222C217.818 224.224 220.229 233.371 225.959 240.613C230.386 245.65 235.433 248.132 242.334 246.876C259.406 243.77 266.575 228.433 273.295 214.458L269.838 214.67C254.954 216.659 239.905 217.104 224.929 215.997C222.647 215.812 218.811 215.592 216.629 215.222ZM275.821 131.305C275.015 145.594 276.409 158.453 291.745 163.985L297.296 165.628C293.019 158.482 289.538 151.786 286.695 143.942C285.359 140.262 283.914 130.098 282.706 128.181L282.147 128.058C280.074 129.084 277.803 130.154 275.821 131.305ZM196.124 159.105C199.841 158.183 200.874 157.948 204.162 155.99C212.403 149.557 216.474 143.425 218.841 133.194C214.845 132.251 211.427 131.082 207.873 128.95C206.446 133.215 205.287 137.464 203.852 141.731C201.761 147.947 199.156 153.32 196.124 159.105ZM236.781 88.4783C235.637 91.3937 235.879 93.6446 239.196 94.7625C244.436 96.528 251.053 96.384 255.894 93.6615C256.105 92.5479 255.896 90.1414 254.578 89.807C252.995 89.4054 250.877 91.1012 249.356 91.4769C244.996 92.6222 240.41 90.6283 236.781 88.4783ZM280.716 212.827C286.169 219.714 289.752 224.394 296.168 230.329C301.997 234.71 308.963 239.136 316.675 237.941C329.357 235.977 331.872 220.575 329.885 210.161C329.225 206.638 327.59 200.149 324.625 198.071L323.98 198.062C311.854 204.25 294.138 210.139 280.716 212.827ZM248.503 99.683C252.557 105.535 255.162 108.405 262.291 110.187C266.745 110.163 269.955 109.633 273.786 107.078C271.692 104.451 264.008 95.4123 260.576 95.2426C256.44 99.0919 253.998 99.3636 248.503 99.683ZM242.152 99.2368C240.631 98.9439 231.942 96.1786 231.996 96.1761C223.767 101 221.869 102.3 216.114 109.878C220.656 110.431 222.218 110.686 226.783 110.188C233.674 108.105 238.13 105.264 242.152 99.2368ZM298.274 412.686C296.562 418.677 294.367 422.257 288.419 425.222C263.403 437.684 227.889 436.051 201.472 428.935C196.362 427.557 188.189 424.195 185.591 419.454C184.626 417.693 184.207 416.012 183.746 414.102C176.685 417.387 173.824 422.773 180.366 428.593C201.738 443.231 245.667 444.066 270.674 439.194C282.92 436.657 297.76 433.203 306.841 424.155C307.655 423.345 308.15 421.3 307.908 420.169C306.924 415.554 301.92 414.435 298.274 412.686ZM363.374 247.869C326.257 279.875 270.088 291.943 222.223 288.416C198.056 286.637 165.508 279.078 144.741 266.234C137.232 261.636 130.502 255.875 124.801 249.165C120.366 243.96 117.965 238.351 115.295 232.219C115.05 231.656 114.619 231.411 114.11 231.169C108.587 242.016 112.291 245.876 119.642 253.961C129.569 264.879 141.434 272.961 154.686 279.295C201.568 301.853 262.273 302.204 311.011 285.353C331.839 278.151 348.335 269.036 365.092 254.942C366.266 253.888 368.075 252.338 369.124 251.235C366.801 250.064 365.55 249.312 363.374 247.869ZM168.057 185.499C166.287 186.562 163.581 188.085 161.984 189.254C205.837 220.145 275.792 220.015 321.978 194.297C324.665 192.825 326.847 191.641 329.347 189.817C327.431 189.067 325.245 188.279 323.445 187.333C311.491 192.967 300.028 196.579 287.316 199.716C253.473 208.068 220.626 208.029 187.789 195.632C181.055 193.09 175.889 190.343 170.069 186.023C169.275 185.434 169.005 185.495 168.057 185.499ZM182.3 228.136C189.2 224.43 195.834 220.585 201.965 215.685C203.072 214.801 204.18 213.919 205.361 213.136C193.503 208.467 180.474 205.335 169.429 198.811C168.023 197.981 165.947 196.298 164.346 196.486C157.486 201.751 148.294 207.732 147.227 217.115C146.831 220.689 147.874 224.274 150.125 227.079C157.895 236.8 172.94 232.73 182.3 228.136ZM310.626 415.468C311.515 418.873 312.716 421.991 310.73 425.258C304.616 433.985 287.896 439.435 277.855 441.611C246.903 448.321 209.717 448.856 181.094 433.704C175.561 430.773 172.295 426.261 172.622 419.94C165.774 424.632 163.6 429.663 169.983 436.274C185.997 451.567 222.364 456.5 243.768 456.121C267.675 455.699 298.726 449.06 316.782 432.729C325.105 425.2 318.897 418.473 310.626 415.468Z" fill="black"/>
<path d="M243.658 146.812C244.042 146.951 244.585 147.221 244.973 147.396C246.573 149.309 246.108 152.389 244.667 154.256C241.447 152.899 241.957 149.209 243.658 146.812Z" fill="black" fill-opacity="0.984314"/>
</svg>
