<svg width="536" height="719" viewBox="0 0 536 719" fill="none" xmlns="http://www.w3.org/2000/svg">
<path d="M304 0H536L510 512H330L304 0Z" fill="#FBD433"/>
<path d="M0 194.578C70 194.578 1.10081 195.156 175.891 194.58C176.517 471.666 176.542 454.454 176.517 471.666C176.492 449.458 176.542 493.874 176.517 471.666C179.182 470.811 186.013 468.437 188.427 468.083C246.19 453.527 318.142 456.309 370 487.003C417 514.821 466.183 565.316 487.839 614.366C501 646.003 507.033 690.127 507.033 718.295H505.404C489.5 718.503 462.59 718.281 446 718.295H333C333 649.503 265.144 611.769 207.331 649.749L206.443 650.432C181.421 670.051 174.427 690.503 174.427 718.649C117.528 718.611 57 718.863 0.212741 718.863C0.212741 689.503 0.625522 656.423 0.600501 628.426L0.594239 548.577L0.587977 508.503V466.503L0.587977 296.503C0.600488 263.862 0.587973 228.003 0 194.578Z" fill="white"/>
<rect x="333" y="558" width="174" height="161" fill="#FBD433"/>
</svg>
