<svg width="206" height="206" viewBox="0 0 206 206" fill="none" xmlns="http://www.w3.org/2000/svg">
<path d="M145.973 141.036C143.846 141.101 141.539 141.094 139.412 141.028C123.725 140.544 109.703 129.534 105.105 114.628C103.72 110.14 103.295 106.167 103.465 101.435C103.881 91.7029 108.098 82.52 115.213 75.853C120.712 70.6517 127.661 67.2342 135.143 66.0505C138.161 65.5978 140.815 65.5417 143.842 65.5803C145.386 65.6001 146.929 65.5497 148.479 65.6055C149.61 66.3237 152.239 69.3044 153.381 70.3544C154.271 71.2854 155.338 72.2846 156.164 73.2232C154.643 73.1532 152.774 73.2548 151.371 73.1539C147.364 73.3373 142.963 72.9713 138.919 73.2536C130.928 73.8115 124.14 77.2355 118.783 83.0965C113.46 88.9855 110.674 96.7288 111.027 104.652C111.357 112.68 114.891 120.241 120.841 125.652C126.06 130.381 132.672 133.111 139.629 133.398C140.01 133.414 140.502 133.408 140.865 133.472L163.141 133.392C164.978 133.373 166.828 133.408 168.667 133.396C169.437 133.391 170.468 133.465 171.211 133.404C169.978 134.946 168.147 136.627 166.757 138.082C166.14 138.728 164.299 140.618 163.674 141.03C162.905 141.153 161.793 141.098 160.982 141.089C159.574 141.068 158.164 141.055 156.755 141.051L149.564 141.059C148.662 141.06 146.786 141.11 145.973 141.036Z" fill="#782C71"/>
<path d="M145.973 141.036C145.755 140.952 145.375 140.888 145.139 140.886C142.572 140.869 140.009 140.955 137.442 140.795C136.334 140.706 135.268 140.392 134.157 140.303C133.756 140.271 133.013 140.314 132.934 139.86C133.299 139.219 133.233 138.485 134.065 138.498L134.115 138.499C134.553 138.171 135.792 136.162 136.204 135.614C136.539 135.166 136.434 134.406 136.422 133.829C136.245 133.593 136.045 133.647 135.7 133.444L135.676 133.294C136.279 132.952 140.165 133.978 140.865 133.473L163.141 133.393C164.978 133.374 166.828 133.409 168.667 133.397C169.437 133.392 170.468 133.466 171.211 133.404C169.978 134.947 168.147 136.627 166.757 138.083C166.14 138.729 164.299 140.618 163.674 141.031C162.905 141.153 161.793 141.099 160.982 141.089C159.574 141.069 158.164 141.056 156.755 141.051L149.564 141.06C148.662 141.061 146.786 141.11 145.973 141.036Z" fill="#C12344"/>
<path d="M153.379 70.3555C154.269 71.2864 155.336 72.2857 156.162 73.2243C154.641 73.1543 152.772 73.2559 151.369 73.155C151.167 72.9795 150.955 73.0432 150.629 73.0427C151.453 72.9927 152.006 72.8663 152.814 72.7604C153.216 72.7079 153.689 72.7483 153.994 72.6924L153.983 72.5779C153.842 72.5399 153.764 72.5248 153.619 72.5029C153.503 72.1604 153.745 72.0497 153.706 71.8273C153.595 71.1933 153.295 71.0673 153.379 70.3555Z" fill="#C12344"/>
<path d="M155.514 125.96C151.445 126.034 147.343 125.907 143.274 125.965C140.397 126.007 138.031 125.951 135.222 125.212C129.425 123.661 124.486 119.871 121.492 114.679C115.254 103.934 118.949 90.0018 129.66 83.7461C136.187 79.9338 142.813 80.6136 150.05 80.5716C151.13 80.5654 154.972 80.4615 155.836 80.6924L155.874 80.8047C155.662 81.3113 149.359 87.5554 148.652 88.166C147.98 88.2502 146.688 88.217 145.968 88.1994C140.091 88.0553 135.173 88.052 130.627 92.5047C127.739 95.3704 126.089 99.2516 126.032 103.316C125.986 110.005 130.734 116.268 137.331 117.949C139.933 118.612 144.091 118.361 146.86 118.352L158.863 118.343C160.137 118.334 162.491 118.247 163.658 118.453C164.463 119.095 165.096 119.851 165.833 120.533C167.659 122.223 169.446 124.329 171.25 125.985L160.657 125.969C159.17 125.968 156.949 126.036 155.514 125.96Z" fill="#902A63"/>
<path d="M158.861 118.342C160.135 118.333 162.489 118.247 163.656 118.452C164.461 119.094 165.094 119.85 165.831 120.532C167.657 122.223 169.445 124.328 171.249 125.984L160.655 125.969C159.168 125.967 156.947 126.036 155.512 125.959C155.366 125.822 155.278 125.809 155.09 125.747C155.434 125.676 155.802 125.609 156.139 125.515C156.143 125.231 155.633 125.003 155.534 124.506C155.381 123.739 155.818 123.459 156.092 122.815C156.168 122.636 156.304 121.899 156.4 121.78C156.866 121.204 157.479 120.555 157.997 120.019C158.192 119.983 158.351 119.953 158.477 119.93C158.692 119.688 158.654 119.556 158.715 119.197C158.841 119.138 158.965 119.073 159.086 119.005L159.067 118.905C158.487 118.682 157.799 118.591 157.18 118.534C157.479 118.339 158.339 118.629 158.861 118.342Z" fill="#C92141"/>
<path d="M35.6211 80.5862C37.3635 80.5358 39.3619 80.5977 41.1209 80.596L53.4392 80.5898C58.4903 80.5696 63.5415 80.5782 68.5925 80.6154C70.1649 80.6289 71.8304 80.5705 73.3811 80.6177C73.4244 82.6148 73.3716 84.7591 73.3708 86.7758L73.364 99.8686L73.3957 140.928L73.2463 140.984C71.654 139.361 69.9378 137.795 68.3651 136.147C67.9144 135.674 65.8836 133.832 65.8606 133.299C65.7307 130.281 65.7918 127.212 65.7938 124.186L65.7867 107.927L65.7836 94.9892C65.7838 93.1251 65.6889 89.9432 65.8296 88.2364L52.19 88.2485C49.222 88.2625 46.1803 88.3368 43.2183 88.2835C42.3341 87.4497 35.97 81.2558 35.6211 80.5862Z" fill="#3C4D9A"/>
<path d="M99.0713 65.5922L110.941 65.5811L114.385 65.5665C114.738 65.5633 115.766 65.5244 116.054 65.5658C114.587 66.7381 113.185 67.5956 111.761 68.8945C110.963 69.6282 110.181 70.379 109.416 71.1464C108.893 71.68 107.897 72.7804 107.338 73.1579C106.702 73.1681 103.424 73.2293 102.92 73.1548C101.035 73.2425 98.6492 73.1703 96.7023 73.1698L84.8438 73.1689L47.1844 73.1762C45.9334 73.1804 36.156 73.3116 35.8906 73.1215C35.8918 73.061 35.8885 73.0475 35.9009 72.9927C36.0409 72.3732 42.4228 66.1754 43.3015 65.5833C47.0306 65.5307 50.867 65.573 54.6032 65.5751L74.6514 65.5831L90.5549 65.5823C93.3539 65.5814 96.2876 65.53 99.0713 65.5922Z" fill="#37529F"/>
<path d="M99.0703 65.5922L110.94 65.5811L114.385 65.5665C114.737 65.5633 115.765 65.5244 116.053 65.5658C114.586 66.7381 113.184 67.5956 111.76 68.8945C110.962 69.6282 110.18 70.379 109.415 71.1464C108.892 71.68 107.896 72.7804 107.337 73.1579C106.701 73.1681 103.423 73.2293 102.919 73.1548C102.203 72.9586 100.6 73.1757 100.034 72.9238C100.197 72.7259 100.39 72.8875 100.781 72.6752C100.721 72.4246 100.165 72.1427 99.908 71.9831C99.9042 71.8684 99.817 71.0059 99.823 70.9985C100.33 70.3701 100.271 69.6216 100.469 68.8864C100.486 68.8228 100.94 68.6663 101.068 68.5947C101.296 67.9669 100.232 66.9102 100.632 66.5553L100.93 66.6163C101.117 66.5775 101.36 66.2397 101.467 66.0814L101.404 65.9591C101.084 65.8137 100.303 65.7837 99.9173 65.7527L100.463 65.7614C100.034 65.6622 99.6164 65.7356 99.1295 65.6082L99.0703 65.5922Z" fill="#4F3085"/>
<path d="M81.4575 80.6234C82.839 80.5053 85.7246 80.5936 87.174 80.6033L96.0925 80.6137C97.9086 80.6162 100.16 80.6743 101.952 80.5722C101.31 81.9799 100.554 83.3363 99.9158 84.75C99.3843 85.9266 99.0345 87.1563 98.3958 88.275C96.1699 88.0091 93.113 88.2565 90.8266 88.1854C89.9877 88.1592 89.1799 88.2411 88.3094 88.1593C88.3815 89.6358 88.3329 91.567 88.3325 93.0728L88.3288 102.021L88.3402 128.113C88.3405 129.757 88.425 131.966 88.3101 133.559C87.7769 134.208 86.4767 135.457 85.8543 136.088C84.1933 137.8 82.4973 139.478 80.7674 141.122C80.6924 139.485 80.7541 137.457 80.7586 135.789L80.7607 126.403L80.7584 94.2236L80.7613 85.9269C80.7667 84.2857 80.8247 82.2657 80.7317 80.6539L81.4575 80.6234Z" fill="#4A3A8B"/>
</svg>
