<svg width="206" height="206" viewBox="0 0 206 206" fill="none" xmlns="http://www.w3.org/2000/svg">
<g clip-path="url(#clip0_817_63)">
<path d="M100.1 53.0662C108.154 52.487 118.44 55.0472 125.578 58.7238C137.282 64.8252 146.112 75.2888 150.159 87.8509C153.24 87.5205 159.07 87.7964 162.413 87.7449C166.814 88.0465 171.907 87.2209 176.24 87.9427C185.947 89.5597 188.511 98.3384 187.363 106.528C186.893 109.978 185.053 113.093 182.262 115.173C180.409 116.57 178.252 117.51 175.968 117.916C173.99 118.283 165.874 118.165 163.362 118.129C160.312 118.085 152.612 118.331 150 117.951C148.292 123.97 144.888 129.883 140.887 134.68C133.973 142.909 124.612 148.715 114.168 151.255C111.049 151.988 109.02 152.179 105.85 152.466C104.915 152.583 103.902 152.667 102.956 152.651C87.5837 152.394 72.9235 145.498 63.529 133.206C60.3134 128.998 56.9024 123.11 55.583 117.959C54.0757 118.223 49.7103 118.127 47.9376 118.131L32.9673 118.14C20.9506 118.095 16.2052 108.691 18.4758 97.7853C18.9535 95.4912 20.4562 93.0274 22.1294 91.4097C23.7667 89.839 25.7877 88.7259 27.9903 88.1817C30.9029 87.486 37.0952 87.7185 40.4477 87.7233C45.4537 87.7142 50.4596 87.7338 55.4654 87.7818C61.708 69.5437 75.8186 56.8275 95.1284 53.8144C96.7891 53.5553 98.4266 53.2728 100.1 53.0662Z" fill="#FEFEFE"/>
<path d="M31.0043 91.1746C32.3089 90.9274 35.6468 91.0925 37.1338 91.0997L48.1001 91.1076L87.206 91.1059L145.646 91.1025L164.461 91.1022C167.746 91.1022 171.157 91.067 174.427 91.1551C176.346 91.3184 178.4 92.0022 179.906 93.1619C183.211 95.7061 184.118 99.3748 183.979 103.379C183.879 106.248 183.601 108.433 181.719 110.756C179.773 113.158 177.962 114.169 174.888 114.558C166.268 114.872 156.456 114.627 147.709 114.649L87.2437 114.636L49.8052 114.633L38.0949 114.634C35.2776 114.634 32.5194 114.69 29.7084 114.446C28.177 114.313 26.8147 113.568 25.6004 112.639C23.4543 111.018 22.0533 108.6 21.7147 105.932C20.766 98.5987 22.8749 92.1536 31.0043 91.1746Z" fill="#004280"/>
<path d="M129.766 96.8164L133.346 96.832L133.343 107.985L131.191 107.941C131.183 104.912 131.137 101.78 131.243 98.7622C130.149 101.014 129.055 105.366 128.072 107.974L126.105 108.021C125.495 106.074 124.459 102.86 123.773 101.055C123.462 101.187 123.09 101.263 123.039 101.568C122.838 102.782 123.311 103.577 122.916 104.94L122.886 107.972L120.817 107.947C120.721 104.301 120.817 100.522 120.754 96.8406L124.432 96.8271C125.367 99.7359 126.364 102.792 127.12 105.736C127.865 102.375 128.811 99.9898 129.766 96.8164Z" fill="#FEFEFE"/>
<path d="M122.993 98.1172C123.237 99.2286 123.41 99.984 123.774 101.058C123.462 101.19 123.09 101.266 123.039 101.571C122.839 102.785 123.311 103.58 122.916 104.943C122.887 102.809 122.8 100.205 122.993 98.1172Z" fill="#0A4C81"/>
<path d="M55.5705 96.0117L57.6643 96.0167L57.6331 107.967C56.5175 108.001 55.9607 108.269 55.308 107.336C54.1452 107.3 54.3727 108.735 51.8544 108.026C48.6016 106.215 48.8078 102.67 50.9795 100.039C53.0312 99.2219 53.1816 99.374 55.2708 100.264L55.4632 100.089C55.6364 99.2129 55.5731 97.0029 55.5705 96.0117Z" fill="#FEFEFE"/>
<path d="M52.8085 101.299C55.8594 100.988 56.127 104.13 54.4965 106.182C54.2279 106.309 53.7931 106.452 53.4907 106.446C53.0806 106.44 52.692 106.261 52.4205 105.953C51.3902 104.805 51.5808 102.348 52.8085 101.299Z" fill="#004280"/>
<path d="M98.7824 96.0078L100.929 96.0141L100.932 107.983C99.9747 108.015 99.8864 107.962 99.0224 107.773C97.0228 107.336 97.6047 108.661 95.1719 108.006C92.0267 106.513 91.9002 100.941 95.2665 99.681C96.5658 99.1945 97.6496 99.7673 98.7869 100.362L98.7824 96.0078Z" fill="#FEFEFE"/>
<path d="M96.3868 101.133C96.603 101.15 96.8173 101.185 97.0276 101.238C99.4548 101.819 99.5417 105.188 97.2808 106.502C94.5701 106.471 94.4789 102.468 96.3868 101.133Z" fill="#004280"/>
<path d="M40.5351 96.8342C41.3913 96.8186 42.2732 96.8266 43.1317 96.8243C44.2135 100.145 46.1037 104.651 47.4666 107.927L44.9782 107.963C44.6155 107.157 44.2978 106.324 44.0014 105.482C43.9265 105.27 43.5348 105.313 43.2711 105.301L39.41 105.276L38.5879 107.974L36.1719 107.955C37.5377 104.924 39.2388 100.082 40.5351 96.8342Z" fill="#FEFEFE"/>
<path d="M41.548 99.0781C42.0183 99.4887 43.0382 102.714 43.2277 103.459C43.0089 103.646 42.4852 103.6 42.1259 103.62L40.1445 103.603C40.5929 102.096 41.0793 100.581 41.548 99.0781Z" fill="#0A4C81"/>
<path d="M165.882 99.5294C168.276 99.1847 170.494 100.858 170.821 103.256C171.146 105.654 169.455 107.858 167.054 108.165C164.68 108.468 162.507 106.8 162.185 104.429C161.862 102.057 163.513 99.8702 165.882 99.5294Z" fill="#FEFEFE"/>
<path d="M165.528 101.336C169.466 100.73 169.27 105.317 167.297 106.358C164.475 107.197 163.442 103.245 165.528 101.336Z" fill="#004280"/>
<path d="M80.1281 99.4989L80.254 99.4921C85.1973 99.2565 84.1282 104.46 84.2439 107.98C83.3305 107.988 82.6919 108.075 81.9472 107.437C81.5538 107.469 80.1992 108.131 79.6081 108.34C78.7431 108.052 78.353 107.947 77.5731 107.439C77.5624 107.426 77.5516 107.413 77.5408 107.4C74.1923 102.572 81.145 103.436 82.2135 102.335L82.1276 101.989C80.7392 100.527 79.3222 101.24 77.6377 101.764L77.5376 100.06C78.4769 99.813 79.1719 99.6651 80.1281 99.4989Z" fill="#FEFEFE"/>
<path d="M80.693 104.117C81.4655 104.052 81.6455 103.92 82.1377 104.533C82.2857 105.563 81.3186 106.238 80.5202 106.637C79.6478 106.583 79.2161 106.582 78.8733 105.692C78.8199 104.506 79.7571 104.262 80.693 104.117Z" fill="#004280"/>
<path d="M139.91 99.4743C141.223 99.4502 141.783 99.6905 142.949 100.199C144.073 101.65 144.121 102.743 144.36 104.509C143.304 104.505 139.373 104.297 138.683 104.675C138.578 105.402 139.203 106.035 139.809 106.335C140.937 106.895 142.226 106.389 143.338 106.032L143.611 105.962L143.803 106.161C143.988 108.502 140.194 108.635 138.836 107.805C135.353 105.678 135.704 100.805 139.91 99.4743Z" fill="#FEFEFE"/>
<path d="M140.317 101.012C141.178 101.14 142.494 101.749 142.044 102.804C141.66 103.112 140.985 103.019 140.472 103.003L138.168 102.969C138.93 101.841 139.047 101.527 140.317 101.012Z" fill="#004280"/>
<path d="M107.358 99.4648C111.157 99.4689 111.365 101.388 111.758 104.527C110.721 104.501 107.021 104.29 106.262 104.664C105.824 107.194 109.285 106.505 110.628 106.071L110.972 106.052L111.211 106.294C111.398 108.604 107.679 108.5 106.172 107.699C105.168 107.161 104.429 106.234 104.129 105.135C103.377 102.476 104.721 100.191 107.358 99.4648Z" fill="#FEFEFE"/>
<path d="M107.224 101.145C108.265 101.074 109.65 101.43 109.705 102.688C109.455 103.018 109.558 102.913 109.004 102.991C108.061 103.018 106.813 103.25 106.156 102.488L106.196 102.109C106.583 101.567 106.663 101.512 107.224 101.145Z" fill="#004280"/>
<path d="M64.0096 99.478C65.1958 99.432 65.8376 99.6881 66.9047 100.107C68.2164 101.695 68.3237 102.57 68.5922 104.515C67.342 104.508 63.4497 104.224 62.7777 104.811L62.7566 105.185C63.3895 106.986 65.685 106.585 67.0645 106.132L67.4686 106.127C67.7758 106.376 67.6802 106.265 67.7408 106.785C67.6533 107.094 67.5419 107.373 67.2708 107.554C64.7087 109.264 62.4447 107.83 60.8613 105.833C60.7666 104.481 60.8041 103.259 60.8334 101.91C61.8678 100.443 62.234 99.9399 64.0096 99.478Z" fill="#FEFEFE"/>
<path d="M63.8219 101.162C64.0576 101.142 64.2939 101.128 64.5304 101.122C65.4493 101.101 66.2062 101.749 66.2164 102.685C65.8765 103.048 65.9631 102.938 65.3382 102.995L62.5508 102.997C62.9152 102.088 63.0066 101.669 63.8219 101.162Z" fill="#004280"/>
<path d="M149.778 97.6523L150.096 97.6662C150.258 98.1464 150.169 99.2064 150.152 99.763C151.164 99.7266 151.58 99.5212 152.199 100.402C152.067 101.598 151.053 101.348 150.156 101.275C150.183 102.617 149.984 104.363 150.226 105.657C150.284 105.967 151.701 106.504 152.173 106.757C152.449 107.268 152.443 107.084 152.352 107.527C152.006 107.959 151.957 108.031 151.437 108.258L151.306 108.26C147.655 108.291 148.027 105.597 148.081 102.893C148.127 100.495 147.205 101.832 146.396 101.018C146.216 100.613 146.316 100.398 146.425 99.9756C146.831 99.5971 147.026 99.7304 147.749 99.7062C148.113 99.4482 147.992 99.5835 148.189 99.1361C148.123 98.7215 148.053 98.4883 148.186 98.0813C148.621 97.7133 149.2 97.7168 149.778 97.6523Z" fill="#FEFEFE"/>
<path d="M71.3359 96.0234L73.7643 96.0241C73.6833 99.9018 73.7572 104.054 73.7556 107.954L71.3577 107.944L71.3359 96.0234Z" fill="#FEFEFE"/>
<path d="M159.046 99.4297L159.572 99.4542C159.875 99.8086 159.953 100.01 159.958 100.532C159.978 102.303 159.001 100.865 158.051 101.91C156.871 103.206 157.127 106.302 157.141 107.986C156.406 107.987 155.831 107.974 155.099 107.915C155.048 105.217 155.09 102.433 155.096 99.7287C155.846 99.7236 156.297 99.6039 156.812 100.031C156.866 100.402 156.857 100.525 157.042 100.84C157.701 100.664 157.716 100.018 158.981 99.4578L159.046 99.4297Z" fill="#FEFEFE"/>
<path d="M87.5273 99.7727L89.6843 99.7656L89.6801 107.964L87.5551 107.954L87.5273 99.7727Z" fill="#FEFEFE"/>
<path d="M87.5195 96.2208L89.6891 96.1992L89.6857 98.2807L87.5326 98.227L87.5195 96.2208Z" fill="#FEFEFE"/>
<path d="M102.77 56.6932C110.257 56.6256 117.642 58.4354 124.251 61.9572C135.206 67.7452 143.39 77.6765 146.979 89.5366C140.966 89.7515 133.343 89.6182 127.255 89.548C123.421 82.543 117.775 78.5103 110.388 75.9128L105.525 63.7042C104.686 61.6114 103.432 58.7796 102.77 56.6932Z" fill="#24B14D"/>
<path d="M58.5234 116.211C64.9604 116.363 71.7117 116.009 78.1438 116.253C82.9675 123.936 86.7192 126.681 95.0302 129.919C95.469 130.724 96.1586 132.589 96.5234 133.509L99.2182 140.309C99.9029 142.033 102.255 147.487 102.63 149.013C82.5479 149.108 63.9197 135.702 58.5234 116.211Z" fill="#0097DA"/>
<path d="M99.3258 56.773C100.241 56.6744 101.723 56.701 102.684 56.6914C100.217 62.7571 97.6171 70.1256 94.9606 75.922C86.4497 79.3141 83.0378 81.81 78.0594 89.5622C72.9285 89.6542 67.5579 89.5769 62.4073 89.5815L58.5312 89.5412C59.8084 84.0097 63.7422 77.3149 67.3877 73.0342C75.6446 63.339 86.7535 57.8695 99.3258 56.773Z" fill="#FEAC26"/>
<path d="M127.636 116.161C132.428 116.261 137.267 116.121 142.064 116.187C143.694 116.209 145.389 116.219 147.014 116.141C142.87 130.319 132.862 140.409 119.381 146.01C117.642 146.654 115.869 147.205 114.071 147.662C112.269 148.121 104.505 149.675 103.117 148.851C102.934 148.285 109.631 131.731 110.458 129.852C116.524 127.444 120.353 125.515 124.718 120.189C125.465 119.278 126.88 116.677 127.636 116.161Z" fill="#F05326"/>
</g>
<defs>
<clipPath id="clip0_817_63">
<rect width="206" height="206" fill="white"/>
</clipPath>
</defs>
</svg>
