<svg width="206" height="206" viewBox="0 0 206 206" fill="none" xmlns="http://www.w3.org/2000/svg">
<path d="M99.0773 6H107.852C109.073 6.42138 112.953 6.41102 114.566 6.60286C118.943 7.13212 123.282 7.94364 127.554 9.03232C154.132 15.7826 176.627 33.438 189.498 57.6515C194.559 67.1314 198.031 77.3762 199.778 87.979C200.125 90.1648 200.401 91.9046 200.55 94.1453C200.629 95.3352 200.692 97.8325 201 98.8594V108.143C200.532 109.839 200.658 112.849 200.429 114.746C196.712 145.485 179.63 171.322 153.086 187.392C142.805 193.488 131.487 197.635 119.701 199.627C117.601 199.98 116.043 200.251 113.919 200.445C112.442 200.58 109.409 200.621 108.206 201H98.8832C97.7887 200.598 94.2418 200.551 92.8516 200.397C71.0957 198 50.7734 188.303 35.1771 172.965C22.0328 160.082 12.8095 143.738 8.5767 125.827C7.66927 122.084 7.11446 118.27 6.59206 114.46C6.33306 112.571 6.45091 109.738 6 108.015V99.0363C6.39921 97.4724 6.30716 95.2524 6.44875 93.6335C6.6284 91.5794 6.97072 89.5453 7.30816 87.5139C9.30197 75.4362 13.545 63.84 19.8169 53.3276C33.2435 30.7295 55.2999 14.5791 80.8973 8.60237C84.7675 7.65956 88.802 7.09972 92.7466 6.5673C94.5094 6.32936 97.4869 6.47204 99.0773 6Z" fill="#FEC00E"/>
<path d="M99.1605 10.7904C150.381 8.39886 193.837 47.9957 196.206 99.2181C198.574 150.441 158.958 193.879 107.735 196.224C56.5439 198.567 13.1396 158.982 10.7728 107.792C8.40588 56.6024 47.972 13.1803 99.1605 10.7904Z" fill="#F47C20"/>
<path d="M100.481 15.3572C149.182 13.692 190.005 51.8386 191.641 100.542C193.277 149.244 155.105 190.045 106.402 191.651C57.7393 193.256 16.9819 155.124 15.3475 106.463C13.7132 57.8015 51.8202 17.021 100.481 15.3572Z" fill="#E01B21"/>
<path d="M100.225 20.28C146.182 18.4781 184.901 54.2679 186.712 100.224C188.523 146.181 152.741 184.907 106.785 186.727C60.8157 188.548 22.0767 152.753 20.265 106.784C18.4535 60.8144 54.2555 22.0825 100.225 20.28Z" fill="#012061"/>
<path d="M113.242 125.055L121.953 125.037C127.777 125.029 135.08 124.72 139.069 129.882C141.595 132.61 142.229 137.895 142.039 141.445C141.825 145.409 141 149.445 137.941 152.225C133.525 156.237 127.178 155.708 121.634 155.717C118.87 155.722 115.967 155.764 113.242 155.693L113.246 132.949C113.179 130.405 113.226 127.615 113.242 125.055Z" fill="#FCFCFC"/>
<path d="M122.543 131.742C125.187 131.743 128.395 131.531 130.58 133.325C133.976 136.114 133.701 143.928 131.109 147.099L131.017 147.191C128.855 149.338 125.384 149.116 122.539 149.121L122.543 131.742Z" fill="#012061"/>
<path d="M70.2233 58.5352C72.5401 59.2254 77.2658 58.696 79.7545 58.7668C80.4725 58.7873 81.4365 58.9483 81.9764 58.9282L82.1419 59.0376C81.9973 59.7769 81.3185 60.9925 81.4737 61.5432C81.1754 62.8248 79.9466 66.1314 79.4875 67.4824L75.4124 79.4726L71.9944 89.5464C71.6205 90.6563 70.5863 93.9254 70.1455 94.8736C69.7432 96.5481 68.4792 99.774 67.9086 101.539C67.4966 102.813 66.3262 106.426 65.8264 107.506C65.007 110.232 63.3265 113.745 60.9904 115.452C58.7758 117.031 56.8304 116.937 54.2263 116.938L50.2109 116.932L50.7041 115.327L53.54 107.075C53.5675 106.763 54.453 104.301 54.6287 103.782L57.7814 94.4878C58.7268 91.5166 59.8235 88.4449 60.8321 85.4826L65.6544 71.3387L67.9128 64.656C68.1994 63.8068 68.7222 62.1022 69.0748 61.3355L69.1883 61.4138C69.4261 60.952 70.085 59.0701 70.2233 58.5352Z" fill="#3BC4EE"/>
<path d="M57.7814 94.4875C57.817 94.4615 57.8537 94.4369 57.8882 94.4094C58.6601 93.7946 58.7887 90.9038 59.5531 90.2072C60.3581 89.4735 69.3318 90.2454 71.3426 89.9288L71.5191 90.1486C71.2298 91.376 70.116 93.8988 70.1455 94.8733C69.7432 96.5477 68.4792 99.7737 67.9086 101.538C67.4966 102.812 66.3262 106.426 65.8264 107.505C65.007 110.231 63.3265 113.745 60.9904 115.452C58.7758 117.031 56.8304 116.936 54.2263 116.937L50.2109 116.932L50.7041 115.326L53.54 107.075C53.5675 106.763 54.453 104.3 54.6287 103.782L57.7814 94.4875Z" fill="#75CDEE"/>
<path d="M53.54 107.074C53.7466 107.882 52.6309 109.581 52.6721 110.301C53.3288 110.349 53.8182 110.261 54.4419 110.288C57.8174 110.429 60.9844 110.262 64.3749 110.501C64.8468 109.645 65.2893 108.447 65.6391 107.515C65.791 107.477 65.7298 107.464 65.8264 107.505C65.007 110.231 63.3265 113.744 60.9904 115.451C58.7758 117.03 56.8304 116.936 54.2263 116.937L50.2109 116.931L50.7041 115.326L53.54 107.074Z" fill="#5FB7D9"/>
<path d="M50.7041 115.325C51.9722 115.318 60.481 115.195 60.9904 115.451C58.7758 117.029 56.8304 116.935 54.2263 116.936L50.2109 116.93L50.7041 115.325Z" fill="#0195BB"/>
<path d="M60.5466 125.021C64.5798 124.972 68.7146 125.011 72.7547 125.009C76.5273 135.233 80.5136 145.13 83.5034 155.668L73.5836 155.681C73.376 154.279 72.6617 151.774 72.2787 150.372L72.2325 150.171C72.1834 150.13 72.1344 150.089 72.0853 150.048C69.0264 149.975 63.9581 150.075 61.1025 149.98C60.8824 151.296 60.0785 154.187 59.7285 155.688L49.8125 155.664C50.4335 153.449 51.2507 151.097 51.9578 148.9C53.5128 144.035 55.1759 139.205 56.9455 134.413C58.0181 131.541 59.6575 127.804 60.5466 125.021Z" fill="#FCFCFC"/>
<path d="M66.572 130.766C66.5955 130.778 66.6211 130.788 66.6428 130.805C67.2314 131.251 70.3474 141.907 70.7464 143.452C69.5264 143.504 68.1231 143.477 66.8891 143.48L62.582 143.483C63.4242 139.854 65.3062 134.35 66.572 130.766Z" fill="#012061"/>
<path d="M111.125 96.5294L132.965 96.5167L143.453 96.5126C146.11 96.514 149.367 96.2769 151.846 97.1534C155.259 98.1718 156.681 103.067 157.935 105.994C158.647 107.655 159.536 109.739 160.105 111.447C158.42 109.857 158.046 109.312 155.741 108.634C153.75 108.32 151.798 108.428 149.778 108.429H141.447L119.408 108.425C115.368 108.426 110.998 108.506 106.988 108.399C107.579 107.092 108.215 105.048 108.683 103.654C109.472 101.271 110.287 98.8958 111.125 96.5294Z" fill="#3BC4EE"/>
<path d="M151.844 97.1523C155.257 98.1708 156.679 103.066 157.933 105.992C158.645 107.654 159.534 109.738 160.103 111.446C158.417 109.856 158.044 109.311 155.739 108.633C156.615 108.496 156.845 108.934 157.236 108.891C157.054 108.435 156.499 107.767 156.349 107.395C155.952 106.406 155.703 105.444 155.257 104.453C155.176 104.483 155.096 104.513 155.015 104.543L154.848 104.415C154.897 104.102 154.926 104.213 154.822 103.95C154.768 104.14 154.794 104.058 154.742 104.2C154.463 103.404 154.129 102.757 153.827 101.972C153.461 101.021 153.359 99.9321 152.722 99.0595C152.659 98.9738 152.565 98.9399 152.609 98.7472C152.768 98.0513 152.624 98.6405 153.029 98.3123C152.931 97.6545 152.335 97.6653 151.844 97.1523Z" fill="#0195BB"/>
<path d="M145.255 99.1367C145.342 99.1444 145.656 99.1698 145.705 99.2301C146.709 100.456 149.391 106.169 148.512 107.47C147.86 106.862 147.315 106.148 146.9 105.359C146.474 104.543 145.29 101.117 145.068 100.055C145.03 99.8766 145.195 99.3393 145.255 99.1367Z" fill="#75CDEE"/>
<path d="M128.114 79.2383C130.919 79.213 133.723 79.2042 136.528 79.2119C138.341 79.2114 141.416 79.13 143.088 79.4727C144.021 79.5767 145.109 79.9434 145.882 80.4787C146.245 80.7311 146.408 80.8446 146.729 81.1424C148.746 83.2274 149.936 86.8398 151.192 89.4636C151.788 90.7086 152.829 92.8681 153.204 94.1225C152.371 93.3548 151.67 92.6762 150.727 92.0342C150.274 91.8204 149.891 91.7136 149.416 91.5647C148.695 91.4188 147.991 91.3397 147.262 91.2493C146.422 91.1463 144.03 91.2041 143.088 91.206C140.221 91.2258 137.354 91.224 134.487 91.2005C133.605 91.2377 132.611 91.2319 131.725 91.2141C125.486 91.0892 119.122 91.3906 112.895 91.1663C114.317 87.3122 115.648 83.1332 116.994 79.2228C120.681 79.2146 124.43 79.1903 128.114 79.2383Z" fill="#75CDEE"/>
<path d="M116.994 79.2244C120.681 79.2162 124.43 79.1919 128.114 79.2399C126.762 79.314 125.405 79.3924 124.053 79.4498C123.53 79.4721 121.654 79.3784 121.36 79.4546C121.542 79.5609 121.491 79.5365 121.704 79.6084C121.827 80.109 121.924 80.6424 121.979 81.1542C122.205 83.2328 123.325 85.0899 124.05 87.0197C124.554 88.3599 124.884 89.6799 125.489 90.9833C127.412 90.9735 129.334 91.0138 131.254 91.1189C132.161 91.1686 133.656 91.1062 134.487 91.2021C133.605 91.2393 132.611 91.2335 131.725 91.2157C125.486 91.0908 119.122 91.3923 112.895 91.1679C114.317 87.3138 115.648 83.1348 116.994 79.2244Z" fill="#3BC4EE"/>
<path d="M143.09 79.4688C144.023 79.5727 145.11 79.9395 145.883 80.4748C146.247 80.7271 146.41 80.8407 146.731 81.1384C148.748 83.2235 149.938 86.8359 151.194 89.4596C151.79 90.7047 152.83 92.8641 153.205 94.1185C152.372 93.3509 151.672 92.6723 150.729 92.0303C150.276 91.8164 149.893 91.7097 149.418 91.5607C148.697 91.4149 147.992 91.3358 147.264 91.2454C147.876 91.0635 148.335 91.187 148.989 91.2459C149.16 90.9134 146.678 84.7249 146.164 84.1155C146.082 83.3714 145.614 82.5231 145.454 81.8594C144.861 79.3951 144.326 80.3811 143.09 79.4688Z" fill="#3BC4EE"/>
<path d="M146.73 81.1406C148.747 83.2256 149.937 86.8381 151.193 89.4618C151.789 90.7069 152.83 92.8663 153.205 94.1207C152.372 93.3531 151.671 92.6745 150.729 92.0324C150.868 91.1407 146.878 83.3387 146.73 81.1406Z" fill="#0195BB"/>
<path d="M87.4683 61.3087L87.6153 61.3291C87.8127 61.0066 88.3929 58.8658 88.8143 58.0781C88.9711 58.2176 89.0997 58.3708 89.3096 58.3734C90.554 58.3887 91.8021 58.6009 93.0517 58.6987C94.8146 58.8369 98.8441 58.2602 100.438 58.7523L100.609 58.6392C100.61 59.3162 99.7127 60.8001 99.8528 61.5471C99.5579 62.9141 98.1434 66.6401 97.6263 68.1716L92.661 82.8093C91.986 84.7917 90.7495 88.0518 90.2329 89.9593C90.1955 89.8441 90.0552 89.4727 89.909 89.4765C86.0885 89.5744 82.1923 89.3609 78.3874 89.359L78.4508 89.3192L77.7812 89.6777L84.4662 70.039C85.3096 67.5638 86.4888 63.6192 87.4683 61.3087Z" fill="#3BC4EE"/>
<path d="M105.826 61.2472L105.94 61.3226C106.477 60.4098 106.877 58.1159 107.382 57.7852C108.947 57.7912 110.359 58.3728 111.823 58.4018C114.315 58.4511 116.472 58.3968 118.974 58.6365C119.032 59.3761 117.893 60.9847 118.186 61.6848C117.639 63.5019 116.902 65.5138 116.283 67.3253L112.7 77.8491L110.085 85.5691C109.679 86.7651 109.105 88.6364 108.611 89.7445C108.601 89.475 108.551 89.2143 108.679 88.9929C107.078 88.833 106.004 89.0706 104.463 89.1112C102.783 89.1556 100.955 89.0413 99.2688 88.9532C98.7324 88.9251 97.2397 88.7124 96.842 89.004C96.4017 89.3268 96.4154 89.8211 96.0156 90.1817C96.1886 89.403 97.0817 86.974 97.3779 86.1062L100.165 77.8987L103.762 67.3111C104.299 65.7043 105.188 62.7519 105.826 61.2472Z" fill="#3BC4EE"/>
<path d="M86.4637 125.04C89.4047 124.951 92.7714 125.036 95.7448 125.055C95.7876 129.854 95.8014 134.654 95.7861 139.453C95.7841 141.899 95.7619 144.315 95.8376 146.76C95.9216 149.47 99.6781 148.884 101.672 148.889L108.229 148.909C108.454 150.755 109.177 153.824 109.591 155.716L94.3073 155.69C85.197 155.617 86.4372 147.394 86.4341 140.876L86.4637 125.04Z" fill="#FCFCFC"/>
<path d="M96.0176 90.1813C96.4174 89.8206 96.4037 89.3263 96.844 89.0035C97.2417 88.7119 98.7344 88.9246 99.2708 88.9527C100.957 89.0409 102.785 89.1551 104.465 89.1108C106.006 89.0701 107.08 88.8325 108.681 88.9924C108.553 89.2139 108.603 89.4746 108.613 89.744C108.427 90.5672 107.922 91.9515 107.64 92.7758L105.773 98.2203L103.359 105.327C103.117 106.033 102.411 108.219 102.089 108.799C101.268 110.799 100.451 112.622 98.9156 114.211C98.6436 114.469 98.3377 114.777 98.0436 115.002C95.1946 117.158 91.2995 116.639 87.9362 116.678C86.097 116.7 83.9848 116.721 82.1641 116.61C83.6963 116.025 84.3997 115.968 85.8473 114.98L86.7372 114.128C88.2389 112.413 88.7002 110.96 89.6399 109.006C89.6958 108.229 91.7464 102.711 92.1004 101.672L94.6298 94.2027C95.0415 92.9848 95.5455 91.3205 96.0176 90.1813Z" fill="#72D0F3"/>
<path d="M89.6399 109.004C89.6491 109.626 89.2294 110.073 89.3191 110.467C89.8655 110.655 91.8414 110.412 92.5926 110.424C95.3624 110.47 98.2179 110.492 100.977 110.56C101.396 110.572 101.338 109.209 102.089 108.797C101.268 110.797 100.451 112.62 98.9156 114.209C98.6436 114.467 98.3377 114.775 98.0436 115C95.1946 117.156 91.2995 116.637 87.9362 116.676C86.097 116.698 83.9848 116.719 82.1641 116.608C83.6963 116.023 84.3997 115.967 85.8473 114.978L86.7372 114.126C88.2389 112.411 88.7002 110.958 89.6399 109.004Z" fill="#60B7D9"/>
<path d="M82.1641 116.611C83.6963 116.025 84.3997 115.969 85.8473 114.981C86.7213 115.202 87.9634 114.961 88.6459 115.008C89.8529 115.093 97.2522 114.809 98.0436 115.002C95.1946 117.158 91.2995 116.639 87.9362 116.678C86.097 116.7 83.9848 116.721 82.1641 116.611Z" fill="#0195BB"/>
<path d="M85.8477 114.977L86.7376 114.125C86.913 114.195 87.2308 114.297 87.4202 114.288C90.4968 114.126 93.5682 114.26 96.6478 114.228C97.2562 114.221 98.412 114.051 98.916 114.208C98.644 114.466 98.3381 114.774 98.044 114.999C97.2526 114.806 89.8533 115.09 88.6463 115.005C87.9638 114.957 86.7217 115.199 85.8477 114.977Z" fill="#3BC4EE"/>
<path d="M77.7797 89.675L78.4493 89.3164L78.3859 89.3562C82.1908 89.3581 86.0869 89.5717 89.9075 89.4737C90.0537 89.47 90.1939 89.8413 90.2314 89.9565L85.7649 103.042C85.3305 104.315 84.0143 108.427 83.4652 109.328C83.0154 111.157 81.1312 113.943 79.6263 115.16C78.2868 116.062 76.6373 116.768 75.0055 116.756C71.2517 116.728 67.3673 116.886 63.6211 116.718C65.3387 116.046 65.4081 116.422 67.3745 115.162C69.4275 113.452 70.2217 111.394 71.2503 109.021C71.3067 108.587 72.6311 104.919 72.8529 104.257L77.7797 89.675Z" fill="#73D0F3"/>
<path d="M71.2503 109.023C71.3047 109.553 71.0639 109.991 70.8585 110.5C74.292 110.5 77.7512 110.457 81.1814 110.587C81.6643 110.605 82.168 110.691 82.6471 110.645C83.0924 110.177 82.963 109.389 83.4652 109.331C83.0154 111.16 81.1312 113.946 79.6263 115.163C78.2868 116.065 76.6373 116.771 75.0055 116.759C71.2517 116.73 67.3673 116.888 63.6211 116.721C65.3387 116.048 65.4081 116.424 67.3745 115.165C69.4275 113.455 70.2217 111.396 71.2503 109.023Z" fill="#5AB5D7"/>
<path d="M67.3745 115.162C68.279 115.407 74.9346 115.129 76.3485 115.176C77.2025 115.204 78.5357 114.937 79.6263 115.16C78.2868 116.062 76.6373 116.768 75.0055 116.756C71.2517 116.728 67.3673 116.886 63.6211 116.718C65.3387 116.046 65.4081 116.422 67.3745 115.162Z" fill="#0195BB"/>
<path d="M147.018 125.048C149.989 124.96 153.298 125.003 156.284 125.036L156.286 155.699C153.243 155.744 150.042 155.717 146.998 155.696C146.989 145.522 146.908 135.214 147.018 125.048Z" fill="#FCFCFC"/>
<path d="M122.722 62.0954L129.57 62.0728C132.015 62.0663 134.547 61.9279 136.911 62.5314C139.115 63.2438 140.139 64.4943 141.245 66.5193C141.384 66.7729 141.851 67.725 141.923 67.9673C142.613 69.2012 143.427 71.0332 144.044 72.3435C144.706 73.7483 145.608 75.5198 146.183 76.9348C145.644 76.4187 145.082 75.926 144.502 75.4581C144.416 75.3892 143.769 74.914 143.762 74.9069C142.809 74.4344 142.139 74.4988 141.424 74.194C139.922 74.0338 137.835 74.0923 136.28 74.0936C133.454 74.1083 130.628 74.1033 127.802 74.0787C125.047 74.1928 121.553 74.0927 118.738 74.0829C119.884 70.6516 121.177 66.489 122.475 63.174C122.495 62.9783 122.669 62.3212 122.722 62.0954Z" fill="#75CDEE"/>
<path d="M136.914 62.5312C139.118 63.2436 140.142 64.4942 141.248 66.5191C141.387 66.7728 141.854 67.7248 141.926 67.9672C142.616 69.2011 143.43 71.0331 144.048 72.3433C144.709 73.7481 145.611 75.5197 146.186 76.9347C145.647 76.4185 145.085 75.9259 144.505 75.458C144.419 75.3891 143.772 74.9138 143.765 74.9068C142.812 74.4342 142.142 74.4987 141.427 74.1938L141.512 74.0819C141.956 74.078 141.851 74.2564 142.363 74.1685C142.699 73.0131 141.648 72.9139 141.842 71.7997C141.561 71.3958 141.015 69.7831 140.746 69.259L140.706 69.183L140.81 69.0487C140.704 68.81 140.782 68.914 140.516 68.7768C140.438 68.0109 139.273 66.0369 138.943 64.4644C138.83 64.2005 138.796 63.9439 138.736 63.6594C138.112 63.2866 137.52 62.9322 136.914 62.5312Z" fill="#3BC4EE"/>
<path d="M141.922 67.9688C142.612 69.2026 143.425 71.0347 144.043 72.3449C144.705 73.7497 145.607 75.5213 146.182 76.9363C145.643 76.4201 145.081 75.9275 144.5 75.4596C144.415 75.3906 143.768 74.9154 143.76 74.9084C143.791 74.4514 142.893 72.4549 142.664 71.8277C142.628 70.4064 141.918 69.2983 141.922 67.9688Z" fill="#0195BB"/>
<path d="M118.738 74.0808C119.884 70.6495 121.177 66.4869 122.475 63.1719C122.526 64.0315 121.262 67.1827 120.946 68.2348L121.105 68.2148L121.225 68.2912C121.232 68.5815 120.804 71.5713 120.745 71.6485C120.497 71.6611 120.51 71.6709 120.284 71.5739C120.121 71.8817 120.098 71.955 119.987 72.2903L119.881 72.3524L119.648 72.0457C119.451 72.3018 119.206 73.2622 119.132 73.6022C119.373 74.0496 120.102 73.8332 120.521 73.7033C120.647 73.3272 120.661 73.4977 120.56 73.1742L120.212 72.9544L120.239 72.8204C120.801 72.5256 120.815 71.9641 121.465 72.554C121.438 73.1691 121.128 72.8339 121.08 73.6389C121.813 74.0293 125.385 73.7632 126.389 73.8469C126.943 73.8931 127.233 73.9492 127.802 74.0765C125.047 74.1907 121.553 74.0906 118.738 74.0808Z" fill="#3BC4EE"/>
<path d="M78.2184 41.5638C79.1581 40.963 80.1161 40.6343 81.2174 40.4521C83.0679 40.1459 91.9953 40.145 93.8166 40.4564C92.2564 40.8396 91.4711 41.0582 90.1042 41.9546C88.9289 42.9397 88.3986 43.6541 87.5393 44.9427C85.0811 49.6995 83.4742 56.4442 81.4731 61.5406C81.3179 60.9899 81.9967 59.7743 82.1413 59.035L81.9758 58.9256C81.436 58.9457 80.4719 58.7847 79.7539 58.7643C77.2652 58.6934 72.5395 59.2228 70.2227 58.5326C70.0844 59.0675 69.4256 60.9494 69.1877 61.4112L69.0742 61.333C69.5271 59.6689 70.5586 56.8855 71.1556 55.1633C72.327 51.7846 73.5042 47.6691 75.3309 44.6517C76.0002 43.3817 77.0565 42.3763 78.2184 41.5638Z" fill="#75CDEE"/>
<path d="M78.2188 41.5638C79.1585 40.963 80.1165 40.6343 81.2178 40.4521C83.0683 40.1459 91.9957 40.145 93.8169 40.4564C92.2567 40.8396 91.4715 41.0582 90.1046 41.9546C89.3702 41.5856 87.4842 41.7581 86.5756 41.7714C84.7057 41.8072 82.8354 41.8157 80.9653 41.7968C80.2019 41.7873 78.9055 41.8241 78.2188 41.5638Z" fill="#0195BB"/>
<path d="M78.2156 41.5625C78.9024 41.8228 80.1988 41.7861 80.9622 41.7955C82.8323 41.8144 84.7026 41.806 86.5724 41.7701C87.4811 41.7568 89.3671 41.5843 90.1015 41.9534C88.9261 42.9384 88.3959 43.6528 87.5366 44.9414C87.6495 44.1212 88.0534 43.7453 88.5869 43.1442C87.936 42.7183 78.4139 42.7979 77.03 42.8166C76.3697 43.4459 76.0726 44.1409 75.3281 44.6504C75.9975 43.3804 77.0537 42.3751 78.2156 41.5625Z" fill="#3BC4EE"/>
<path d="M96.5785 41.4777C98.8366 40.0616 101.936 40.0695 104.531 40.2074C106.171 40.2944 110.487 40.0049 111.733 40.3635L111.739 40.4673C111.147 40.7215 110.751 40.6872 110.235 40.8636C109.833 41.0007 108.889 41.5973 108.492 41.8476C107.308 42.822 107.033 43.3138 106.115 44.5509C104.857 46.7516 104.303 48.4963 103.506 50.8565L101.106 57.9422C100.754 58.972 100.25 60.5969 99.8532 61.5482C99.7131 60.8013 100.611 59.3174 100.61 58.6404L100.438 58.7535C98.8445 58.2613 94.815 58.838 93.0521 58.6999C91.8025 58.602 90.5545 58.3899 89.31 58.3745C89.1002 58.372 88.9715 58.2188 88.8147 58.0793C88.3934 58.867 87.8131 61.0078 87.6158 61.3303L87.4688 61.3098C87.577 60.8183 88.8227 57.1815 89.028 56.6341C90.2783 53.2995 91.8482 47.2926 93.8091 44.4609C94.3338 43.3414 95.5826 42.1882 96.5785 41.4777Z" fill="#75CDEE"/>
<path d="M96.5742 41.4777C98.8323 40.0616 101.931 40.0695 104.527 40.2074C106.167 40.2944 110.483 40.0049 111.729 40.3635L111.735 40.4673C111.143 40.7215 110.746 40.6872 110.23 40.8636C109.829 41.0007 108.885 41.5973 108.488 41.8476C107.778 41.4621 105.841 41.6186 104.963 41.6264L99.741 41.6443C98.9274 41.6518 97.2917 41.7264 96.5742 41.4777Z" fill="#0195BB"/>
<path d="M96.578 41.4766C97.2955 41.7253 98.9312 41.6506 99.7448 41.6432L104.967 41.6253C105.845 41.6175 107.781 41.4609 108.492 41.8465C107.307 42.8208 107.032 43.3127 106.114 44.5497C106.111 43.9639 106.749 43.2333 107.14 42.8207C106.881 42.7224 100.886 42.6169 100.293 42.6217C100.481 42.7498 100.426 42.6661 100.484 42.8546C100.006 42.9253 100.32 42.6701 100.045 42.6508C98.6251 42.5512 96.8639 42.6023 95.4692 42.6129C95.036 43.1522 94.3471 44.1045 93.8086 44.4597C94.3333 43.3402 95.5821 42.1871 96.578 41.4766Z" fill="#3BC4EE"/>
<path d="M114.886 41.4415C115.815 40.8322 116.785 40.4808 117.879 40.2865C119.771 39.9506 128.686 39.9339 130.581 40.2506C128.732 40.7202 128.431 40.7975 126.846 41.7685C125.731 42.7273 125.236 43.4378 124.39 44.6534C123.334 46.7211 122.626 48.573 121.905 50.7815C120.715 54.4255 119.381 58.0405 118.188 61.6832C117.895 60.9831 119.033 59.3745 118.975 58.6349C116.474 58.3953 114.317 58.4495 111.825 58.4002C110.36 58.3713 108.948 57.7896 107.384 57.7836C106.878 58.1144 106.478 60.4083 105.941 61.321L105.828 61.2456C106.4 59.3315 107.285 56.879 107.94 54.9788C109.116 51.5651 110.307 47.3149 112.209 44.3053C112.923 43.0376 113.745 42.3033 114.886 41.4415Z" fill="#75CDEE"/>
<path d="M114.883 41.4415C115.812 40.8322 116.781 40.4808 117.876 40.2865C119.768 39.9506 128.683 39.9339 130.578 40.2506C128.729 40.7202 128.428 40.7975 126.843 41.7685C125.043 40.9777 116.901 42.1736 114.883 41.4415Z" fill="#0195BB"/>
<path d="M114.884 41.4414C116.902 42.1735 125.044 40.9776 126.843 41.7684C125.729 42.7272 125.233 43.4377 124.388 44.6533C124.375 43.7487 125.338 43.4243 125.398 42.7052C121.875 42.193 117.481 42.7471 113.921 42.536C113.597 42.5168 112.832 44.0734 112.207 44.3052C112.92 43.0375 113.743 42.3032 114.884 41.4414Z" fill="#3BC4EE"/>
<path d="M61.6108 118.297C62.0898 118.483 62.2333 119.256 62.0145 119.677C61.1798 119.43 61.1212 118.971 61.6108 118.297Z" fill="#030522"/>
</svg>
