<svg width="206" height="206" viewBox="0 0 206 206" fill="none" xmlns="http://www.w3.org/2000/svg">
<path d="M99.7094 25.8247C142.297 24.0167 178.302 57.0445 180.166 99.6298C182.031 142.215 149.052 178.263 106.469 180.186C63.8057 182.111 27.6741 149.055 25.8058 106.39C23.9374 63.7234 57.0412 27.6361 99.7094 25.8247Z" fill="#FEFEFE"/>
<path d="M55.781 54.6799C81.9907 29.1753 123.775 29.2817 149.854 54.9196C150.16 55.2202 150.462 55.5238 150.763 55.8303C150.328 56.8823 151.05 64.5698 150.481 66.8167C150.49 68.107 150.512 69.6522 150.23 70.9082C150.215 71.0259 150.119 71.97 150.113 71.9918C150.058 72.7986 150.026 73.4637 149.847 74.2541C148.86 82.5258 145.757 92.7152 142.116 100.269C141.912 100.692 140.938 102.618 140.725 102.881L140.697 102.981C141.703 104.417 142.957 107.326 143.639 108.932C148.653 120.745 151.101 133.677 150.62 146.508C150.577 147.677 150.681 148.913 150.624 150.092C150.386 150.335 150.146 150.574 149.905 150.811C123.76 176.569 81.7933 176.616 55.591 150.916C55.3843 150.713 55.1788 150.509 54.9747 150.303C55.0778 149.699 54.7978 148.781 54.7994 148.093C54.8066 145.04 54.7319 141.979 54.9014 138.931C55.6445 125.564 58.7853 114.913 64.6981 103.008L64.911 102.493C64.6284 102.271 63.9277 100.797 63.7354 100.38C60.0951 92.4876 57.1946 84.0231 55.9892 75.3915C55.9035 74.7774 55.7344 73.0581 55.5365 72.5567C55.5427 71.4388 55.4908 70.4869 55.2949 69.3868C55.2567 68.8892 55.234 68.2998 55.1238 67.8214C55.1512 63.9891 55.139 60.1567 55.0872 56.3248C55.0838 55.986 55.0341 55.8111 54.9733 55.4793C55.2402 55.2106 55.5095 54.9441 55.781 54.6799Z" fill="#FEFEFE"/>
<path d="M102.635 140.987C105.274 139.683 108.803 137.505 111.195 135.882C120.299 129.797 128.195 122.076 134.482 113.11C135.914 111.057 137.298 108.955 138.584 106.808C139.289 105.63 139.905 104.203 140.641 103.065L140.697 102.98C141.703 104.417 142.957 107.326 143.639 108.932C148.653 120.745 151.101 133.676 150.62 146.508C150.577 147.677 150.681 148.913 150.624 150.092C150.386 150.334 150.146 150.574 149.905 150.811C123.76 176.569 81.7933 176.615 55.591 150.916C55.3843 150.713 55.1788 150.508 54.9747 150.303C55.0778 149.699 54.7978 148.78 54.7994 148.092C54.8066 145.039 54.7319 141.979 54.9014 138.931C55.6445 125.564 58.7853 114.913 64.6981 103.008C65.1812 103.582 66.7351 106.693 67.2706 107.562C68.7929 110.031 70.2711 112.23 71.9705 114.586C78.5451 123.555 86.737 131.219 96.125 137.182C98.3479 138.625 100.531 139.654 102.635 140.987Z" fill="#71BE45"/>
<path d="M55.5938 150.912C55.7515 150.833 58.6663 151.072 59.1342 151.079C63.266 151.152 67.3984 150.96 71.5057 150.503C80.7099 149.547 91.0812 146.574 99.496 142.605C99.9234 142.404 102.572 140.995 102.889 141.158C105.875 142.695 108.792 144.069 111.961 145.231C122.104 149.01 132.83 150.983 143.654 151.057C145.194 151.064 146.746 151.105 148.283 151.027C148.847 150.999 149.224 150.869 149.727 150.824L149.908 150.808C123.763 176.566 81.7961 176.612 55.5938 150.912Z" fill="#1D9A49"/>
<path d="M55.7812 54.6799C81.9909 29.1753 123.775 29.2817 149.854 54.9196C145.723 54.9727 141.627 54.6611 137.465 54.9929C128.049 55.7435 118.653 57.7906 109.927 61.4477C108.764 61.9367 103.734 64.1429 102.726 64.8695L102.589 64.8999C102.012 64.1987 99.3256 62.9827 98.4217 62.5712C86.974 57.359 74.4386 54.8451 61.8962 54.5518C60.8179 54.5267 56.4071 55.0118 55.7812 54.6799Z" fill="#EC1D23"/>
<path d="M102.727 64.8678C103.735 64.1412 108.765 61.935 109.929 61.446C118.654 57.7889 128.05 55.7418 137.466 54.9912C141.628 54.6593 145.724 54.971 149.855 54.9179C150.161 55.2185 150.464 55.5221 150.764 55.8286C150.329 56.8806 151.051 64.5681 150.483 66.815C150.492 68.1053 150.513 69.6505 150.231 70.9065C150.216 71.0242 150.121 71.9683 150.115 71.9901C150.059 72.7969 150.027 73.462 149.848 74.2524C148.861 82.5241 145.758 92.7135 142.117 100.267C141.913 100.691 140.939 102.616 140.726 102.879C140.349 102.233 140.04 101.571 139.674 100.907C131.73 86.5157 119.906 74.5462 105.631 66.3987C104.711 65.8737 103.686 65.4754 102.803 64.9173L102.727 64.8678Z" fill="#00ADE7"/>
<path d="M150.233 70.9079C149.973 70.2354 149.981 67.8055 150.215 67.0175C150.266 66.844 150.3 66.8798 150.484 66.8164C150.493 68.1067 150.515 69.6519 150.233 70.9079Z" fill="#45BDEF"/>
<path d="M149.849 74.2537C149.643 73.7895 149.647 72.1295 150 71.7891L150.116 71.9914C150.061 72.7982 150.028 73.4633 149.849 74.2537Z" fill="#45BDEF"/>
<path d="M55.7804 54.6798C56.4062 55.0117 60.817 54.5266 61.8953 54.5517C74.4377 54.845 86.9731 57.3589 98.4208 62.5711C99.3247 62.9826 102.011 64.1986 102.588 64.8998C99.9044 66.4764 97.9636 67.3825 95.2263 69.202C85.4307 75.5854 76.9826 83.8285 70.3606 93.4645C68.4548 96.2094 66.3752 99.4714 64.9103 102.493C64.6278 102.271 63.9271 100.797 63.7348 100.38C60.0945 92.4875 57.194 84.023 55.9886 75.3914C55.9029 74.7774 55.7338 73.058 55.5358 72.5566C55.5421 71.4387 55.4902 70.4868 55.2943 69.3867C55.2561 68.8891 55.2334 68.2997 55.1231 67.8213C55.1506 63.989 55.1384 60.1566 55.0866 56.3247C55.0832 55.9859 55.0335 55.811 54.9727 55.4792C55.2396 55.2105 55.5089 54.944 55.7804 54.6798Z" fill="#F17021"/>
<path d="M54.9737 55.4766C55.0346 55.8083 55.0843 55.9832 55.0877 56.322C55.1395 60.1539 55.1517 63.9863 55.1242 67.8187C55.2345 68.297 55.2572 68.8865 55.2954 69.3841C55.4913 70.4841 55.5432 71.436 55.5369 72.5539C55.7349 73.0554 55.904 74.7747 55.9897 75.3888C57.1951 84.0203 60.0956 92.4848 63.7359 100.378C63.9282 100.794 64.6289 102.268 64.9114 102.49L64.6986 103.005C58.7857 114.91 55.645 125.562 54.9018 138.928C54.7323 141.976 54.8071 145.037 54.7998 148.09C54.7982 148.778 55.0783 149.696 54.9752 150.301C28.9099 124.067 28.9092 81.7116 54.9737 55.4766Z" fill="#F6921D"/>
<path d="M55.1246 67.8209C54.8802 67.6523 54.8106 67.6498 54.7538 67.3472C54.5847 66.4449 54.5035 56.825 54.77 56.4781C54.8815 56.333 54.922 56.3589 55.0881 56.3242C55.1399 60.1561 55.152 63.9886 55.1246 67.8209Z" fill="#F89D55"/>
<path d="M55.5379 72.5566C55.3738 72.4726 55.1922 72.414 55.1475 72.2151C54.9934 71.5305 54.9967 69.9952 55.2964 69.3867C55.4923 70.4867 55.5442 71.4387 55.5379 72.5566Z" fill="#F89D55"/>
<path d="M150.765 55.8281C176.421 82.0336 176.359 123.961 150.626 150.09C150.682 148.911 150.579 147.675 150.622 146.506C151.103 133.674 148.655 120.743 143.64 108.93C142.958 107.324 141.705 104.415 140.699 102.979L140.726 102.879C140.94 102.615 141.913 100.69 142.117 100.267C145.759 92.7131 148.862 82.5236 149.849 74.252C150.028 73.4615 150.06 72.7965 150.115 71.9897C150.121 71.9678 150.217 71.0237 150.232 70.9061C150.513 69.65 150.492 68.1048 150.483 66.8145C151.052 64.5676 150.329 56.8802 150.765 55.8281Z" fill="#0071BA"/>
</svg>
