<svg width="206" height="206" viewBox="0 0 206 206" fill="none" xmlns="http://www.w3.org/2000/svg">
<circle cx="103" cy="103" r="103" fill="#E11922"/>
<g clip-path="url(#clip0_831_300)">
<circle cx="103" cy="103" r="91" fill="#E11922"/>
<path d="M82.6936 91.0793C92.1318 90.3207 100.389 97.3771 101.111 106.818C101.833 116.259 94.7448 124.489 85.3011 125.175C75.9089 125.856 67.7337 118.815 67.0154 109.426C66.2974 100.036 73.3069 91.8338 82.6936 91.0793Z" fill="#FCFCFC"/>
<path d="M82.717 97.868C88.3745 97.1172 93.5628 101.113 94.282 106.774C95.0013 112.435 90.9773 117.601 85.3118 118.289C79.6909 118.972 74.5743 114.986 73.8605 109.369C73.1468 103.752 77.104 98.6131 82.717 97.868Z" fill="#E11922"/>
<path d="M128.183 90.9896C128.497 90.9556 128.813 90.9396 129.128 90.9416C133.73 90.9869 137.552 92.3869 140.884 95.6798C144.676 99.4278 145.197 104.346 145.134 109.412C142.769 109.667 138.85 109.519 136.341 109.513C130.849 109.486 125.357 109.496 119.866 109.544C120.394 112.203 120.874 114.275 122.942 116.265C124.646 117.901 126.943 118.772 129.303 118.678C133.729 118.534 134.897 116.553 137.411 113.856L140.636 113.729C141.937 113.74 143.237 113.72 144.537 113.667C143.792 115.965 143.152 117.458 141.597 119.354C138.748 122.773 134.659 124.922 130.227 125.331C126.625 125.68 121.949 124.105 119.032 121.708C111.912 115.859 110.847 103.942 116.509 96.735C119.366 93.0982 123.605 91.3863 128.183 90.9896Z" fill="#FCFCFC"/>
<path d="M127.692 97.1744C132.865 96.5661 136.119 99.1345 138.09 103.644C135.922 103.767 133.497 103.731 131.303 103.741L120.23 103.737C121.851 99.975 123.602 98.1171 127.692 97.1744Z" fill="#E11922"/>
<path d="M159.478 90.9922C166.587 91.0837 172.188 93.2835 173.13 101.193C171 101.219 168.871 101.288 166.743 101.399C166.117 99.5828 164.978 97.7113 163.032 97.1059C160.329 96.2677 154.518 96.031 154.562 100.101C154.594 103.018 157.358 103.341 159.511 103.96C165.866 105.824 173.879 105.86 173.876 114.534C173.872 122.858 166.149 125.498 159.021 125.38C151.409 124.192 147.081 122.193 146.656 113.83C148.786 113.824 150.982 113.781 153.102 113.922C153.434 115.492 153.569 116.375 154.873 117.547C157.904 120.275 163.413 120.502 166.343 117.526C167.647 116.243 167.417 113.528 165.686 112.715C162.319 111.134 158.266 110.677 154.725 109.453C152.349 108.632 150.984 108.257 149.322 106.284C144.554 100.624 148.855 93.2558 155.218 91.5467C156.789 91.1234 157.884 91.0771 159.478 90.9922Z" fill="#FCFCFC"/>
<path d="M48.0336 90.9909C54.653 90.1669 62.6039 95.2016 64.7341 101.554C64.9621 102.234 65.1407 103.084 65.3059 103.792L58.6714 103.872C57.0938 101.916 55.8027 100.131 53.5859 98.878C49.3798 96.4945 44.5408 97.6849 41.4505 101.183C35.1219 108.321 40.4771 119.188 50.0447 118.335C53.4179 118.035 55.2589 116.61 57.3643 114.074C57.9652 113.421 58.1097 113.046 58.5013 112.239C60.7754 112.202 63.1162 112.23 65.396 112.232C64.7545 114.974 64.0923 116.69 62.2589 118.92C59.1902 122.592 54.7852 124.891 50.0177 125.309C46.2854 125.661 41.1905 123.963 38.3697 121.553C26.3433 111.278 32.2044 92.3804 48.0336 90.9909Z" fill="#FCFCFC"/>
<path d="M105.466 80.5117L110.744 80.5915C110.963 87.2839 110.803 94.6423 110.793 101.387C110.848 109.04 110.851 116.693 110.8 124.346L108.848 124.348L103.333 124.366C103.158 110.184 103.116 94.6636 103.377 80.5338L105.466 80.5117Z" fill="#FCFCFC"/>
</g>
<defs>
<clipPath id="clip0_831_300">
<circle cx="103" cy="103" r="91" fill="white"/>
</clipPath>
</defs>
</svg>
