<svg width="206" height="206" viewBox="0 0 206 206" fill="none" xmlns="http://www.w3.org/2000/svg">
<path d="M41.1085 93.1866C52.3804 92.9908 63.6548 92.9756 74.9272 93.1406C78.8856 93.1927 83.2975 92.9574 87.1909 93.2749C93.4772 93.7873 91.6845 104.8 90.9251 108.768C92.811 106.46 96.0151 103.905 98.0695 101.481C106.657 91.345 117.514 93.1571 129.668 93.1569C141.492 93.0514 153.316 93.0637 165.14 93.1934C161.256 103.354 155.748 113.84 151.249 123.854C150.072 126.474 146.24 135.226 144.779 137.144C142.847 137.96 128.839 137.282 125.644 137.51C124.837 137.568 121.159 137.618 120.488 136.953C120.085 133.799 129.954 113.03 131.763 108.467C132.547 106.513 132.846 105.836 134.046 104.188C130.884 104.109 127.871 104.081 124.718 104.378C124.116 104.914 123.036 105.818 122.574 106.431C117.071 113.725 111.689 121.195 106.249 128.532C104.942 130.294 100.519 136.922 98.6516 137.23C95.8654 137.69 90.7636 137.519 87.7364 137.515L67.1456 137.467C66.6941 132.5 66.7974 125.241 66.6482 120.038C66.5431 116.378 66.0327 107.324 66.3362 104.106C64.1716 104.177 62.0363 104.097 59.8733 104.036C57.8918 109.854 55.1198 115.468 52.5252 121.055C51.224 123.856 46.8383 135.069 45.2784 136.914C42.313 138.359 30.5521 137.099 26.6999 137.505C25.355 137.647 20.9617 137.634 20 136.71C20.3021 135.631 20.8848 134.344 21.3245 133.284C26.2455 121.421 32.3199 109.999 37.2942 98.155C38.2813 95.8053 38.644 94.1978 41.1085 93.1866Z" fill="#046A38"/>
<path d="M118.438 81.151C121.253 80.9079 126.366 81.0655 129.375 81.0699L150.133 81.0995L168.938 81.0716C172.478 81.0661 177.277 80.9194 180.663 81.3314L180.765 81.7411C180.507 83.1485 178.134 88.6107 177.192 89.7823C175.475 91.9182 171.395 90.9363 168.408 91.0762C164.407 91.2749 159.597 91.125 155.516 91.1454L125.234 91.1641C118.248 91.1753 113.083 90.938 106.087 91.7108L105.914 91.4952C106.389 89.8365 108.684 86.5173 109.869 85.1702C112.184 82.5401 115.016 81.3408 118.438 81.151Z" fill="#FEC72D"/>
<path d="M129.367 68.1777C132.709 67.9595 137.461 68.0982 140.887 68.0973L161.812 68.0887L176.767 68.0879C179.789 68.0885 183.717 67.9521 186.606 68.3814L186.716 68.6433C186.652 70.5769 183.624 76.5689 182.172 78.0507L172.18 78.1043C154.13 77.9479 136.08 77.9808 118.03 78.203C117.394 78.6543 117.045 78.8606 116.354 79.2262L116.021 79.0911C115.843 77.9973 117.477 75.4762 118.196 74.5742C121.5 70.4304 124.072 68.7697 129.367 68.1777Z" fill="#FEC72D"/>
<path d="M29.5421 81.2784C39.3771 80.9225 49.2321 81.1479 59.0914 80.9262C67.9347 80.7273 77.0534 80.8664 85.8965 81.1292C92.5072 81.3254 92.1372 87.451 92.0058 92.2212C82.9673 90.0679 75.1374 91.4287 66.4909 91.0279C62.7558 90.8548 36.4916 91.5495 35.2774 90.9543C34.1847 90.1055 30.18 90.4494 28.6709 90.3834C27.9841 90.3536 27.4703 90.3562 27.1023 90.9503C26.4269 90.9908 25.742 91.1195 25.1933 90.7482C24.9846 88.948 28.1937 82.9246 29.5421 81.2784Z" fill="#FEC72D"/>
<path d="M36.5305 68.1651C52.998 67.7819 70.3418 68.1774 86.8855 68.2389C89.1658 68.2473 91.8381 71.6258 91.7856 73.8723C91.7593 74.9982 92.3901 79.0682 91.2462 79.7517C89.8287 78.1067 89.5497 78.2246 87.4386 78.117C83.3954 77.8709 75.523 78.1638 71.1641 78.1715L45.7243 77.9926C42.9927 77.9963 33.3023 78.251 31.2171 77.812L31.0859 77.5299C31.2723 76.72 31.8031 75.6558 32.2188 74.9312C33.4979 72.7014 33.873 69.2284 36.5305 68.1651Z" fill="#FEC72D"/>
<path d="M27.1055 90.9531C27.4735 90.359 27.9872 90.3563 28.6741 90.3862C30.1832 90.4521 34.1879 90.1083 35.2806 90.9571C32.556 91.0338 29.8299 91.0324 27.1055 90.9531Z" fill="#FEC72D" fill-opacity="0.988235"/>
</svg>
