<svg width="206" height="206" viewBox="0 0 206 206" fill="none" xmlns="http://www.w3.org/2000/svg">
<path d="M41.598 107.349L122.138 107.335L149.444 107.342C153.658 107.342 160.404 107.54 164.406 107.203C164.82 114.177 164.691 123.054 164.514 130.144C164.176 143.709 167.459 157.51 155.422 166.978C148.22 172.549 139.714 171.781 131.119 171.721L116.62 171.703L61.6817 171.792C55.5074 171.845 47.3595 171.519 41.3827 171.849C40.8585 168.305 41.1784 162.139 41.1815 158.298L41.1675 137.565L41.1879 118.795C41.1858 117.167 40.9016 108.109 41.598 107.349Z" fill="#EF6724"/>
<path d="M68.8789 120.446C71.8727 120.448 74.8543 120.425 77.8452 120.562C83.0377 129.329 90.1841 139.51 94.8033 148.275C94.4764 139.185 94.6727 129.646 94.7227 120.52C97.0374 120.454 99.354 120.478 101.667 120.59C101.489 124.536 101.602 128.923 101.617 132.924L101.625 150.542C101.626 151.62 101.819 156.986 101.618 157.603L101.177 157.662C98.4648 157.701 95.7522 157.721 93.0394 157.721C91.9949 156.413 87.6785 149.075 86.4656 147.03C83.169 141.473 78.6304 134.847 75.7452 129.189C75.7845 138.557 75.5389 148.394 75.8204 157.708C74.0953 157.568 70.7002 157.721 68.8373 157.757C68.9425 145.343 68.6593 132.887 68.8789 120.446Z" fill="#F2F4F9"/>
<path d="M107.329 120.437C116.92 120.436 127.493 120.237 136.997 120.607L137.016 126.328L125.538 126.384L125.57 146.375L125.59 157.646C123.409 157.61 120.84 157.716 118.631 157.755L118.633 126.334L107.297 126.423L107.329 120.437Z" fill="#F2F4F9"/>
<path d="M63.7681 34.5866C71.7379 34.2359 81.6796 34.506 89.811 34.499L138.331 34.5119C146.927 34.5111 155.963 34.6477 164.531 34.4324C164.442 45.918 164.418 57.404 164.458 68.89C164.456 78.7616 164.301 89.0703 164.531 98.9134L141.403 99.0451L74.2007 99.0342L52.3834 99.0092C50.276 99.0024 43.4791 99.106 41.7054 98.8027C41.1441 97.2806 41.3316 82.428 41.3283 80.1703L41.3916 66.3437C41.4054 61.9981 41.1784 57.2709 42.0643 53.0532C42.8225 49.3545 44.4598 45.8923 46.8379 42.9597C51.3445 37.4203 56.8508 35.3126 63.7681 34.5866Z" fill="#105D9F"/>
<path d="M87.5632 48.0484L98.6081 47.9649C104.664 47.9391 110.12 47.6553 114.996 52.3034C119.747 56.8315 118.167 64.1638 118.471 70.129C118.678 74.1973 117.827 78.2053 114.768 81.1339C109.82 85.8728 103.742 85.3931 97.4697 85.3736L87.4453 85.332L87.5608 77.2653L87.5751 59.8508C89.7885 59.6706 93.0962 59.7483 95.3948 59.7475C95.1987 65.4156 95.3767 71.8299 95.4226 77.5333C109.528 77.7661 109.121 76.5243 108.94 62.2859C108.852 55.3795 102.81 55.7565 97.6867 55.8291C94.3558 55.8762 90.8709 55.8401 87.4964 55.8258C87.4377 53.3064 87.5243 50.5873 87.5632 48.0484Z" fill="#F2F4F9"/>
<path d="M66.2418 47.9157C71.3815 47.7291 78.1589 47.8323 83.3238 48.0047L83.3181 55.8434C79.5297 55.826 68.7167 55.2828 65.779 56.3221C64.5167 56.7687 63.1734 57.6055 62.59 58.8614C61.4094 61.4029 61.8333 72.2318 62.8146 75.0785L62.9497 75.2139C65.9721 78.2076 69.9843 77.5643 73.8683 77.5829C77.0197 77.5979 80.1785 77.56 83.3308 77.552L83.3117 85.3735C79.7505 85.345 76.1223 85.3915 72.5328 85.3975C66.6916 85.4417 61.646 85.8894 56.8047 81.9544C51.3372 77.7218 52.7473 72.2343 52.2957 66.6145C51.4702 56.3434 54.6239 48.9588 66.2418 47.9157Z" fill="#F2F4F9"/>
<path d="M136.875 47.9176C142.096 47.7144 148.376 47.926 153.645 48.0093L153.652 55.8461C148.208 55.8117 142.511 55.572 137.126 56.0367C134.724 56.244 131.741 59.0905 132.057 61.6548C132.468 64.9933 131.61 69.9859 132.317 73.083C132.536 74.0386 133.014 74.9157 133.698 75.6181C136.164 78.1061 140.484 77.5814 143.739 77.585C147.051 77.5887 150.368 77.5637 153.682 77.5711C153.584 80.0782 153.644 82.8369 153.654 85.3686C149.391 85.3245 136.436 85.7303 133.146 84.9504C130.797 84.375 128.614 83.26 126.771 81.6936C124.464 79.6959 122.691 76.4085 122.723 73.449C122.766 69.6081 122.22 60.72 123.072 57.3748C123.499 55.6966 124.324 54.1461 125.477 52.8539C128.294 49.6643 132.726 48.174 136.875 47.9176Z" fill="#F2F4F9"/>
<path d="M114.612 88.5273L115.395 88.6834C116.051 89.0778 116.284 89.7908 116.612 90.4979C115.993 90.534 115.373 90.655 114.889 90.2912C114.521 89.7504 114.611 89.2103 114.612 88.5273Z" fill="#105D9F"/>
</svg>
