<svg width="206" height="206" viewBox="0 0 206 206" fill="none" xmlns="http://www.w3.org/2000/svg">
<g clip-path="url(#clip0_816_28)">
<path d="M41.4083 85.231C41.6361 85.2189 41.8642 85.2108 42.0923 85.2066C45.1421 85.1729 48.2741 85.2057 51.3275 85.2054C53.6439 85.2429 55.9996 85.1164 58.3085 85.299C68.6232 86.1309 76.1282 94.2888 76.1127 104.6C76.1074 108.132 75.408 111.292 73.6295 114.369C69.5843 121.367 62.9481 124.208 55.173 124.237L50.2323 124.243C49.3839 124.244 48.1671 124.281 47.3473 124.199L47.3434 131.966C47.344 133.176 47.4161 135.424 47.1954 136.546C47.0498 137.276 46.7341 137.961 46.2738 138.545C45.3832 139.685 44.0756 140.424 42.6394 140.599C41.1097 140.776 39.739 140.385 38.5267 139.429C36.393 137.747 36.5957 135.332 36.5947 132.883L36.5951 128.339L36.5975 113.718L36.5967 98.1553L36.5935 93.3147C36.5933 90.7856 36.3489 88.0078 38.6568 86.3288C39.447 85.754 40.4318 85.326 41.4083 85.231ZM47.334 114.485C49.1621 114.458 50.9905 114.452 52.8188 114.467C56.2944 114.47 60.0735 114.508 62.6523 111.698C64.9518 109.092 65.4486 107.054 65.2599 103.553C65.1414 101.354 64.1032 98.8314 62.4243 97.368C59.8097 95.089 57.1178 95.023 53.8836 95.0108L49.6276 95.0169C48.9654 95.0205 48 95.0618 47.3629 95.0041C47.2631 96.0226 47.3478 97.2041 47.3329 98.244C47.2554 103.636 47.459 109.1 47.334 114.485Z" fill="#232021"/>
<path d="M81.4586 85.2293C81.6581 85.2193 81.8577 85.2117 82.0574 85.2065C84.3225 85.1569 86.766 85.2026 89.0422 85.2029L102.821 85.2044L109.65 85.2038C112.099 85.2047 114.691 84.8023 116.571 86.6722C119.447 89.4745 118.042 94.3829 114.175 95.3406C112.964 95.6404 110.645 95.5018 109.306 95.4994L102.852 95.5103C102.923 96.7367 102.877 98.3607 102.877 99.6305L102.876 107.015L102.876 129.832L102.887 133.243C102.892 135.346 102.99 137.383 101.41 139.004C100.383 140.054 98.9764 140.644 97.5082 140.641C96.0653 140.649 94.6804 140.074 93.667 139.047C93.1114 138.493 92.4469 137.503 92.3257 136.729C92.0689 135.086 92.1492 133.217 92.1492 131.54L92.1522 123.66L92.1544 95.5128C89.8261 95.4703 87.4871 95.527 85.1613 95.4995C82.8589 95.4722 80.819 95.8803 78.887 94.3641C75.2418 91.5032 76.818 85.8198 81.4586 85.2293Z" fill="#232021"/>
<path d="M116.807 64H119.301C119.512 64.1438 121.44 64.8742 121.83 65.0399L128.593 67.9671L155.734 79.6902L163.088 82.8582C164.258 83.3569 165.466 83.8226 166.616 84.3576C169.028 85.4784 170.505 88.0584 170.34 90.6865C170.224 92.5253 169.377 94.2409 167.987 95.4502C167.025 96.2831 164.105 97.3588 162.816 97.9125L155.342 101.095L140.985 107.314L125.582 113.955C123.657 114.771 122.349 115.509 120.28 116.277C119.467 116.576 118.599 116.696 117.736 116.626C113.025 116.285 111.025 110.842 114.285 107.428C115.042 106.636 116.622 106.073 117.621 105.625L121.541 103.901L129.608 100.447C134.965 98.0863 140.337 95.7599 145.723 93.4678C147.662 92.6616 149.582 91.9112 151.485 91.0097C151.892 90.8168 152.753 90.5391 153.029 90.3043C153.014 90.2674 152.999 90.2304 152.983 90.1935C152.429 90.0778 150.939 89.4325 150.521 89.2377C149.721 88.8651 149.15 88.6128 148.46 88.3102L125.92 78.5743L118.868 75.5257C117.657 74.9998 116.418 74.564 115.275 73.904C113.08 72.638 112.281 70.222 112.904 67.8244C113.273 66.4046 114.079 65.3621 115.4 64.6887C115.835 64.467 116.351 64.2734 116.76 64.0287L116.807 64Z" fill="#ED1D23"/>
</g>
<defs>
<clipPath id="clip0_816_28">
<rect width="135.953" height="77" fill="white" transform="translate(35 64)"/>
</clipPath>
</defs>
</svg>
