<svg width="206" height="206" viewBox="0 0 206 206" fill="none" xmlns="http://www.w3.org/2000/svg">
<g clip-path="url(#clip0_832_371)">
<rect x="103" y="-42.6641" width="103" height="103" transform="rotate(45 103 -42.6641)" fill="#012061"/>
<circle cx="118" cy="42" r="22" fill="#FEC00E"/>
<circle cx="118" cy="42" r="19" fill="#F47C20"/>
<circle cx="118" cy="42" r="16" fill="#E01B21"/>
<rect x="103" y="103" width="103" height="103" transform="rotate(45 103 103)" fill="#E11922"/>
<rect x="30.168" y="30.168" width="103" height="103" transform="rotate(45 30.168 30.168)" fill="#178841"/>
<circle cx="118" cy="42" r="12" fill="white"/>
<path d="M177.341 71.9114L175.857 77.4503C178.072 78.395 180.041 79.5744 181.741 81.0064C184.439 83.2802 186.34 86.0221 187.348 89.2209C188.381 92.4301 188.39 95.8154 187.473 99.3051L186.835 101.734L173.97 98.2872C175.407 99.1721 176.692 100.107 177.813 101.098C179.564 102.647 180.968 104.336 181.959 106.18L181.958 106.179C182.947 107.993 183.533 109.921 183.696 111.944L183.695 111.943C183.868 113.918 183.675 115.933 183.147 117.971L183.139 118.002C182.185 121.496 180.485 124.39 177.953 126.519C175.451 128.622 172.391 129.844 168.89 130.265L168.889 130.264C166.649 130.537 164.266 130.47 161.751 130.093L160.259 135.662L151.737 133.379L153.233 127.798C150.755 126.814 148.539 125.603 146.608 124.143L146.605 124.14C143.583 121.847 141.452 118.953 140.305 115.481L140.303 115.472L140.301 115.465C139.157 111.919 139.262 107.953 140.388 103.683L141.028 101.257L151.62 104.095C149.912 102.702 148.486 101.16 147.375 99.4535L147.371 99.4463L147.366 99.4389C145.151 95.9849 144.751 92.0133 145.905 87.7747C146.813 84.3348 148.554 81.4691 151.16 79.2919L151.163 79.2896C153.741 77.1414 156.84 75.8079 160.374 75.2389L160.38 75.2383C162.623 74.8817 164.945 74.8611 167.338 75.1575L168.819 69.628L177.341 71.9114ZM157.139 108.028C156.897 109.165 156.952 110.017 157.159 110.667C157.258 110.976 157.399 111.268 157.587 111.547L158.455 108.308L157.216 107.665L157.139 108.028Z" fill="#FEC00E" stroke="#178841" stroke-width="5"/>
</g>
<defs>
<clipPath id="clip0_832_371">
<rect width="206" height="206" rx="103" fill="white"/>
</clipPath>
</defs>
</svg>
