<svg width="206" height="206" viewBox="0 0 206 206" fill="none" xmlns="http://www.w3.org/2000/svg">
<path d="M174.305 73.8594L174.714 73.9186C175.4 74.5229 178.022 83.3803 178.381 84.8475C183.161 104.844 179.833 125.921 169.121 143.471C168.286 144.845 165.647 149.768 164.026 149.84C147.012 150.589 129.635 147.665 114.15 140.408C111.232 139.04 108.02 136.96 105.263 135.272C98.3626 130.821 91.7568 123.779 88.5171 116.187C87.5712 113.97 86.5839 110.351 85.8232 107.962C84.9881 105.339 84.9493 101.037 83.839 98.4637L83.8125 98.4033C84.8204 98.3637 85.8941 98.3021 86.8984 98.3093C93.1347 98.3541 99.2072 97.3584 105.345 96.4213C122.848 93.8872 139.974 89.2102 156.335 82.4958C162.635 79.8468 168.259 76.8755 174.305 73.8594Z" fill="#06AB55"/>
<path d="M27.3875 88.4822C29.0654 88.45 29.4213 88.863 30.8856 89.5875C34.8718 91.5598 39.1744 92.9349 43.498 93.9527C45.0304 94.3132 46.6068 94.9681 48.1527 95.3245C53.7651 96.3395 59.3926 97.6161 65.0772 98.1279C68.135 98.4033 71.2894 98.0331 74.3089 98.4864C75.464 102.772 75.0249 109.372 76.0826 114.116C81.9854 140.591 102.51 158.065 125.93 169.546C128.319 170.718 132.158 172.262 134.323 173.712C132.817 174.544 130.547 175.434 128.938 176.014C126.248 176.968 118.562 179.079 115.532 179.388C108.271 180.131 99.8493 180.207 92.5786 179.545C89.4925 179.264 85.9518 178.374 82.9788 177.585C67.4275 173.532 53.5744 164.624 43.4343 152.156C36.5544 143.772 31.4284 133.739 28.7481 123.258C28.0898 120.683 27.0995 117.069 26.8642 114.434C26.239 107.434 26.2369 100.093 26.7759 93.084C26.8951 91.5337 27.2345 90.0351 27.3875 88.4822Z" fill="#06AB55"/>
<path d="M100.978 26.0186C110.882 25.8873 117.338 26.3921 126.833 29.481C137.961 32.9875 148.141 38.9885 156.598 47.0265C161.82 52.057 162.447 51.2138 157.339 55.6416C148.629 63.1903 139.885 69.3618 129.747 74.8149C128.855 75.5261 126.709 76.4927 125.578 77.0501C115.315 82.1064 104.208 85.8639 92.9768 88.0318C89.8703 88.6314 86.5915 88.7652 83.4657 89.0091C83.4336 83.7302 84.3279 78.3225 85.0875 73.1121C85.5047 70.6655 85.4941 67.7531 86.0828 65.3577C87.0292 61.5063 87.8744 57.7422 88.5472 53.8274C88.8041 52.3326 89.571 50.6521 89.9095 49.1525C90.8268 45.0899 92.2205 41.2073 93.349 37.206C93.6735 36.0739 94.3428 34.6311 94.7581 33.4082C95.5155 31.1772 96.0772 28.2445 97.6696 26.4611C98.1484 25.9251 100.221 26.0244 100.978 26.0186Z" fill="#06AB55"/>
<path d="M92.6043 26.4592C92.9147 26.3221 92.7487 26.3529 93.1236 26.4222C93.6905 27.6184 91.451 31.1679 90.9986 32.4183C88.7105 38.7428 86.0619 44.9238 83.8008 51.2604C81.2489 58.3736 79.1356 65.6364 77.473 73.0084C77.0448 74.8371 76.4526 76.9091 76.115 78.7322C75.4573 82.2846 75.5707 86.438 74.8744 89.969C71.4571 89.9639 68.042 90.1973 64.5776 89.9953C60.7208 89.7903 56.8719 89.1972 53.0437 88.7964C49.5179 88.4459 45.7525 88.3693 42.3129 87.4572C39.5286 86.7186 36.8366 86.1871 34.0373 85.5507C32.1072 85.0328 30.5 84.6184 28.7031 83.6915C29.3151 81.8955 29.5268 79.9862 30.1627 78.1497C31.3618 74.6862 32.8667 71.3213 34.2574 67.9252C35.1269 65.8018 37.0075 63.6953 37.7678 61.4601C37.8543 61.206 38.0803 60.6372 38.2175 60.4439C45.7587 49.8217 55.7722 40.343 67.5014 34.5166C73.3929 31.4012 79.7234 29.1474 86.1775 27.5347C88.1983 27.0297 90.5498 27.0345 92.4612 26.5004L92.6043 26.4592Z" fill="#06AB55"/>
</svg>
