<svg width="206" height="206" viewBox="0 0 206 206" fill="none" xmlns="http://www.w3.org/2000/svg">
<path d="M98.7072 26H106.964C108.031 26.4044 112.247 26.56 113.766 26.7625C116.927 27.2063 120.056 27.8557 123.132 28.7065C144.412 34.5144 162.204 49.1215 172.046 68.8622C175.463 75.8019 177.813 83.2179 179.016 90.8594C179.271 92.513 179.489 94.1262 179.677 95.7864C179.774 96.6464 179.818 98.4946 180 99.2693V107.468C179.451 111.952 179.065 116.023 178.034 120.496C174.071 137.699 164.282 153.003 150.326 163.815C141.594 170.668 131.473 175.534 120.667 178.075C118.012 178.708 112.539 179.395 110.585 180H96.001C93.8432 179.456 89.7795 179.025 87.2705 178.516C79.2981 176.878 71.6395 173.974 64.5851 169.914C47.1194 159.902 34.2658 143.452 28.7745 124.083C27.6307 119.963 26.7465 115.325 26.2549 111.042C26.1506 110.134 26.2841 109.794 26 108.847V97.057C26.2358 96.3863 26.4353 93.8863 26.5473 92.9777C26.7339 91.4626 26.9746 89.9548 27.269 88.4569C28.822 80.2811 31.7049 72.4151 35.8029 65.1718C45.957 47.2075 62.8869 34.0617 82.8067 28.6742C86.4961 27.711 90.2419 26.9784 94.0223 26.4807C95.346 26.2982 97.5736 26.3564 98.7072 26Z" fill="#262C4E"/>
<path d="M68.6704 63.0412C69.4135 62.9586 71.4157 62.9415 72.15 62.952C77.7843 63.0522 83.144 65.4029 87.0339 69.4802C89.7854 72.3243 91.5101 75.657 92.4609 79.4724C95.059 89.8988 89.3722 97.3909 83.4875 105.247C79.0887 111.119 73.723 118.109 70.9089 124.909C69.6406 127.974 69.0481 132.383 68.9926 135.709C68.8515 144.155 70.68 148.171 76.3416 154.032C76.3175 154.294 76.3444 154.165 76.1492 154.426C75.1667 154.545 69.8074 150.811 68.6345 149.957C56.2561 140.896 47.9514 127.318 45.5231 112.171C43.7382 100.611 45.4294 88.7819 50.3814 78.1851C54.3505 69.7665 59.0654 64.5398 68.6704 63.0412Z" fill="#E660A4"/>
<path d="M160.73 100.367C161.12 100.96 161.043 101.252 161.071 101.953C162.375 134.952 133.445 163.135 100.496 161.032C95.2264 160.695 90.0738 157.952 86.5287 153.893C84.6753 151.859 83.0735 148.923 82.2215 146.322C80.4073 140.85 80.8746 134.879 83.5177 129.756C87.3094 122.288 95.3252 117.755 103.548 117.905C114.819 118.11 126.011 121.063 137.365 119.998C139.093 119.776 141.023 119.212 142.642 118.684C150.134 116.236 157.491 111.154 159.708 103.209C159.911 102.483 160.332 101.132 160.678 100.466L160.73 100.367Z" fill="#E660A4"/>
<path d="M97.961 45.0096C98.9958 44.881 101.003 44.9539 102.089 44.9246C107.001 44.7918 111.3 45.1536 116.099 46.2688C131.214 49.7592 144.312 59.1383 152.485 72.3249C155.853 77.7433 157.397 83.4335 155.888 89.7965C154.595 95.4412 151.08 100.326 146.138 103.345C141.442 106.229 135.449 107.26 130.084 105.987C130.014 105.973 129.943 105.959 129.874 105.943C118.011 103.305 114.048 92.5946 109.844 82.6627C107.653 77.4864 104.999 71.6146 102.025 66.8631C98.2999 60.9125 90.5468 55.2026 83.6341 53.6927C81.9412 53.3228 79.8294 53.267 78.088 53.3237C77.2316 53.3436 76.3776 53.4259 75.533 53.5698C74.6182 53.734 72.7453 54.4174 71.9742 54.2494L71.9297 54.0435C72.5976 53.1248 74.6154 52.2097 75.6329 51.6556C82.5676 47.8796 90.1178 45.7723 97.961 45.0096Z" fill="#E660A4"/>
</svg>
