<svg width="206" height="206" viewBox="0 0 206 206" fill="none" xmlns="http://www.w3.org/2000/svg">
<circle cx="103" cy="103" r="103" fill="#178841"/>
<path d="M115.888 78.7926C118.013 77.3485 119.718 75.682 122.07 74.5605C127.732 71.8608 135.466 71.2938 141.529 72.8696C170.916 80.5067 171.913 112.254 159.417 134.58C148.991 153.209 131.457 164.478 109.763 157.642C107.568 156.948 105.956 155.884 103.896 155.104C102.584 155.45 101.102 156.414 99.7881 156.978C96.3702 158.412 92.7682 159.363 89.0864 159.804C84.9633 160.29 80.9509 159.82 76.926 158.95C67.329 156.875 59.2271 150.818 53.2922 143.257C46.1054 134.165 41.5998 123.259 40.2801 111.76C39.1943 102.328 41.2178 91.7683 47.1872 84.1193C51.5594 78.5168 58.5863 74.4641 65.4699 72.7635C66.5469 72.4974 69.2922 72.2402 70.532 72.1C75.8595 71.664 82.0561 72.8723 86.6719 75.554C88.1946 76.4385 89.4443 77.6843 91.0263 78.4873L91.0976 78.523C89.6401 78.6145 86.8645 79.3216 85.4432 79.7107C78.8871 81.5054 72.3099 85.3427 68.2832 90.7361C57.7119 104.895 62.732 127.723 79.5763 134.709C80.283 135.002 84.7471 136.922 85.1858 136.81C85.3853 136.163 83.6188 133.709 83.2088 132.941C75.385 118.285 76.936 94.9538 94.6736 88.2114C101.295 85.6948 109.584 86.3579 116.038 89.7072C129.606 96.7496 130.941 114.843 126.297 127.773C125.204 130.809 123.669 133.744 122.37 136.664C132.77 133.903 141.249 125.536 143.483 114.992C147.296 96.9941 136.902 82.7674 118.985 79.2368C117.927 79.0349 116.958 78.9205 115.888 78.7926ZM103.978 130.896C104.985 129.372 106.052 127.922 106.951 126.321C109.799 121.247 111.392 114.88 110.25 109.088C109.44 104.975 107.637 100.774 104.051 98.2549C103.824 98.0953 103.519 98.0675 103.246 98.0686C93.3523 105.46 96.3825 121.988 102.968 130.536C103.154 130.778 103.337 130.966 103.65 131.018L103.978 130.896Z" fill="white"/>
<path d="M118.581 46.1205C127.885 45.1572 138.689 50.0136 141.3 59.0906C141.529 59.8891 142.38 61.5063 141.802 62.1861C141.292 62.2157 140.834 61.99 140.341 61.8504C132.579 59.6532 123.918 59.1999 116.557 62.9558C115.427 63.5323 114.025 64.1835 113.053 64.924L112.96 64.9963C108.869 68.0463 107.563 69.9042 104.98 74.3533C104.554 75.0864 104.51 76.3291 104.054 76.9946C103.894 76.9992 103.773 77.0266 103.653 76.8932C101.277 74.2592 99.7586 71.0514 99.2406 67.6237C97.3387 55.0359 106.984 47.8256 118.581 46.1205Z" fill="white"/>
</svg>
