<svg width="1024" height="1024" viewBox="0 0 1024 1024" fill="none" xmlns="http://www.w3.org/2000/svg">
<rect width="1024" height="1024" fill="black"/>
<path d="M548 198H780L754 620H574L548 198Z" fill="#FBD433"/>
<path d="M244 302.578C314 302.578 245.101 303.156 419.891 302.58C420.517 579.666 420.542 562.454 420.517 579.666C420.492 557.458 420.542 601.874 420.517 579.666C423.182 578.811 430.013 576.437 432.427 576.083C490.19 561.527 562.142 564.309 614 595.003C661 622.821 710.183 673.316 731.839 722.366C745 754.003 751.033 798.127 751.033 826.295H749.404C733.5 826.503 706.59 826.281 690 826.295H577C577 757.503 509.144 719.769 451.331 757.749L450.443 758.432C425.421 778.051 418.427 798.503 418.427 826.649C361.528 826.611 301 826.863 244.213 826.863C244.213 797.503 244.626 764.423 244.601 736.426L244.594 656.577L244.588 616.503V574.503L244.588 404.503C244.6 371.862 244.588 336.003 244 302.578Z" fill="white"/>
<rect x="577" y="666" width="174" height="161" fill="#FBD433"/>
</svg>
