<svg width="1757" height="431" viewBox="0 0 1757 431" fill="none" xmlns="http://www.w3.org/2000/svg">
<path d="M656.743 28.5501C659.652 21.5651 662.293 13.1611 666.626 6.95506C668.847 3.77306 671.196 1.01806 675.178 0.401056C683.802 -0.936944 736.709 6.47607 742.929 11.3921C748.685 15.9421 747.571 20.1111 748.414 26.2751C748.738 28.6451 749.752 28.3661 751.846 28.5661C769.034 30.2061 833.976 24.0831 843.876 32.1131C849.266 36.4751 849.606 43.2231 850.176 49.5851C850.156 54.2931 850.056 59.2431 850.136 63.9241C849.286 77.5991 848.906 117.843 849.986 131.629C849.356 141.049 849.616 151.551 849.666 161.093L849.646 173.693C850.226 195.406 849.656 217.256 850.136 239.195C850.106 244.482 850.306 251.886 849.996 256.997C877.956 264.828 860.566 294.945 867.046 313.147C865.766 316.455 864.766 321.021 865.426 324.557C863.666 328.541 861.166 333.162 856.756 334.393C843.486 338.095 822.846 335.859 808.416 336.206C826.746 341.594 844.586 344.921 862.946 349.664C874.926 352.761 871.886 360.147 873.346 368.116C868.236 381.48 853.266 421.952 840.456 425.966C829.906 428.928 781.162 413.553 769.923 407.987C763.473 406.134 749.925 398.866 744.292 395.235C740.308 394.269 726.542 383.451 722.664 380.489C718.374 376.977 714.908 373.713 710.891 369.883L706.236 365.436C674.721 396.759 640.012 413.033 597.033 423.411C588.295 425.521 570.628 431.454 562.368 429.346C562.009 427.655 562.813 424.352 563.155 422.502C565.923 419.08 564.669 420.068 569.782 419.125C559.588 419.188 557.842 417.408 554.943 408.045C552.729 402.808 549.91 398.586 547.677 392.667C544.003 383.942 535.784 371.296 533.529 364.057C529.996 366.741 531.028 367.387 529.888 372.697L528.779 371.077C526.128 369.95 521.623 371.697 518.603 372.519C517.173 375.953 507.26 399.414 506.835 402.031C503.842 409.808 502.999 410.788 494.374 411.585C494 416.902 496.118 414.729 494.248 421.394C478.609 416.194 450.565 405.164 435.787 397.424C432.678 395.796 431.256 391.455 430.839 387.917C430.754 386.348 430.515 380.246 430.966 379.213C440.616 357.12 452.709 333.607 462.552 311.736C470.831 293.321 478.92 274.822 486.818 256.241C491.421 245.461 496.443 227.906 505.709 221.696L505.65 221.041C502.134 217.127 486.195 205.663 481.104 201.874C476.892 199.705 440.79 174.489 437.683 171.483C429.296 157.394 441.202 144.368 450.541 134.849C465.484 119.619 471.017 92.1341 496.123 106.311C519.575 119.553 537.336 136.653 558.878 150.883C559.475 141.186 559.256 128.857 558.863 119.176C558.441 116.705 558.103 114.084 557.74 111.59L556.553 111.189L552.456 114.904L548.461 119.343C543.618 115.852 543.983 119.428 540.225 114.122L535.571 115.17C533.36 114.195 530.049 111.603 527.973 110.099C522.589 105.4 516.268 100.984 510.462 96.7451C511.322 98.4711 511.958 99.6721 512.589 101.522L511.942 101.432C508.483 100.99 505.854 101.157 503.537 104.137C495.472 97.5041 465.447 77.7491 461.267 73.3751C451.714 65.5491 456.782 51.4001 463.599 44.0671C472.87 34.0921 489.324 7.82806 501.22 2.97906C510.065 -0.625941 549.359 34.8851 558.558 39.0171C563.734 38.7901 564.705 29.3511 571.996 28.7681C581.545 28.0051 591.218 28.3851 600.807 28.4341L656.743 28.5501ZM536.122 354.025C538.371 351.884 581.024 343.055 587.248 341.829C592.073 339.871 600.283 337.705 605.498 336.167C592.312 336.317 556.966 340.024 547.359 331.374C546.559 329.492 546.431 329.276 544.855 327.977L543.644 329.302C540.427 337.245 536.946 345.473 534.057 353.514L536.122 354.025ZM558.806 220.248C547.128 206.172 532.724 224.57 534.311 229.801C537.843 232.574 555.151 242.895 558.739 243.321C558.947 235.632 558.97 227.939 558.806 220.248Z" fill="#C94D09"/>
<path d="M705.512 350.805C710.472 356.378 715.577 361.82 720.823 367.125C717.245 368.263 714.594 369.025 710.891 369.877L706.236 365.43C674.721 396.753 640.012 413.027 597.033 423.405C588.295 425.515 570.628 431.448 562.368 429.34C562.009 427.649 562.813 424.346 563.155 422.496C565.923 419.074 564.669 420.062 569.782 419.119C616.178 407.878 676.117 392.757 705.512 350.805Z" fill="#971F00"/>
<path d="M556.104 325.103C582.084 325.537 609.028 324.966 635.121 324.914C628.348 329.829 596.773 343.364 589.028 342.19C588.429 342.097 587.835 341.974 587.248 341.823C592.073 339.865 600.283 337.699 605.498 336.161C592.312 336.311 556.966 340.018 547.359 331.368C550.04 328.004 552.434 327.649 556.104 325.103Z" fill="#971F00"/>
<path d="M766.227 396.25C787.437 403.813 820.074 415.34 842.034 415.567C841.624 419.619 840.204 421.798 840.094 425.539L840.454 425.962C829.904 428.924 781.16 413.549 769.921 407.983L769.775 406.839C767.947 404.572 768.831 405.12 766.417 404.205L769.123 405.425L768.299 404.488L774.526 402.516C774.31 401.21 768.291 398.465 766.227 396.25Z" fill="#971F00"/>
<path d="M430.836 387.91C431.748 387.683 432.841 387.411 434.114 387.094C447.775 393.312 483.242 405.04 494.371 411.578C493.997 416.895 496.115 414.722 494.245 421.387C478.606 416.187 450.562 405.157 435.784 397.417C432.675 395.789 431.253 391.448 430.836 387.91Z" fill="#C94D09"/>
<path d="M720.823 367.125L731.858 376.394C733.617 377.499 742.609 382.913 743.289 383.97C748.335 386.775 762.879 393.551 766.229 396.248C768.293 398.463 774.312 401.208 774.528 402.514L768.301 404.486L769.125 405.423L766.419 404.203C768.833 405.118 767.949 404.57 769.777 406.837L769.923 407.981C763.473 406.128 749.925 398.86 744.292 395.229C740.308 394.263 726.542 383.445 722.664 380.483C718.374 376.971 714.908 373.707 710.891 369.877C714.594 369.025 717.245 368.263 720.823 367.125Z" fill="#C94D09"/>
<path d="M437.68 171.481C441.122 168.283 440.836 165.746 443.345 164.672C451.232 167.959 486.978 193.754 494.448 200.156C494.878 199.939 481.428 201.882 481.101 201.872C476.889 199.703 440.787 174.487 437.68 171.481Z" fill="#971F00"/>
<path d="M461.266 73.3694L462.952 72.1014C461.575 68.4424 464.032 67.7024 465.054 64.4844C469.918 66.7824 505.89 92.4404 510.461 96.7394C511.321 98.4654 511.957 99.6664 512.588 101.516L511.941 101.426C508.482 100.984 505.853 101.151 503.536 104.131C495.471 97.4984 465.446 77.7434 461.266 73.3694Z" fill="#971F00"/>
<path d="M494.449 200.158C499.699 203.882 505.265 207.691 510.237 211.738L509.169 213.691C511.143 220.371 513.597 217.466 515.098 223.383C512.865 222.482 508.259 222.04 505.707 221.696L505.648 221.041C502.132 217.127 486.193 205.663 481.102 201.874C481.429 201.884 494.879 199.941 494.449 200.158Z" fill="#971F00"/>
<path d="M550.412 102.442C553.731 102.208 562.223 101.883 564.92 101.141C564.153 104.784 564.857 104.366 562.492 106.167L562.335 105.363C559.541 112.358 560.472 112.275 558.861 119.17C558.439 116.699 558.101 114.078 557.738 111.584L556.551 111.183L552.454 114.898L548.459 119.337C543.616 115.846 543.981 119.422 540.223 114.116L542.543 112.338L550.412 102.442Z" fill="#971F00"/>
<path d="M542.543 112.344C547.157 112.365 548.543 112.134 552.454 114.904L548.459 119.343C543.616 115.852 543.981 119.428 540.223 114.122L542.543 112.344Z" fill="#971F00"/>
<path d="M518.602 372.518C520.934 366.098 523.856 354.551 529.296 351.508C531.672 351.826 532.22 351.81 534.056 353.513L536.121 354.024C534.953 357.498 533.819 360.37 533.528 364.056C529.995 366.74 531.027 367.386 529.887 372.696L528.778 371.076C526.127 369.949 521.622 371.696 518.602 372.518Z" fill="#C94D09"/>
<path d="M510.236 211.734C518.965 218.405 519.472 220.7 530.352 217.051C532.264 220.213 533.104 221.209 533.138 224.835C528.702 231.604 520.19 227.225 515.097 223.379C513.596 217.462 511.142 220.367 509.168 213.687L510.236 211.734Z" fill="#971F00"/>
<path d="M543.642 329.296L542.739 328.254C540.917 328.139 539.094 328.048 537.27 327.98C536.503 324.326 540.586 315.389 544.103 313.922C549.312 316.136 547.18 322.906 555.403 324.936L556.102 325.103C552.432 327.649 550.038 328.004 547.357 331.368C546.557 329.486 546.429 329.27 544.853 327.971L543.642 329.296Z" fill="#971F00"/>
<path d="M550.414 102.448C551.969 99.7125 557.22 93.3485 559.416 90.5625L564.104 95.7115L564.922 101.146C562.225 101.888 553.733 102.214 550.414 102.448Z" fill="#971F00"/>
<path d="M565.361 86.2812C571.878 91.3822 569.739 101.211 567.465 108.262L565.773 108.307C564.517 103.846 565.246 91.6233 565.361 86.2812Z" fill="#FDCA4C"/>
<path d="M559.414 90.5621C560.811 88.7271 561.944 87.5041 563.505 85.8281L565.359 86.2841C564.926 89.2081 564.285 92.8161 564.102 95.7111L559.414 90.5621Z" fill="#971F00"/>
<path d="M669.233 10.1769C674.594 -0.744069 688.035 4.85793 698.172 6.90793C705.457 7.53393 738.495 11.1419 741.428 16.6859L741.065 18.5819C739.166 19.3019 738.684 19.0659 736.684 18.5679C732.986 25.1729 728.86 32.2029 725.321 38.8419C762.662 38.5779 800.005 38.5119 837.346 38.6439L836.776 253.392C819.496 253.772 802.221 253.851 784.945 253.628L784.891 217.04C777.697 226.906 769.24 237.99 762.459 248.066C751.987 238.683 733.185 224.973 724.961 214.738L725.043 237.407C710.869 238.262 696.182 238.143 681.946 238.224L682.715 216.345C670.157 229.968 659.708 240.034 643.997 250.258C637.345 239.459 629.583 228.577 622.35 218.095C622.424 222.831 623.207 250.856 622.148 253.654C615.57 254.105 576.101 253.472 573.958 255.014C577.308 258.935 578.369 255.778 579.755 259.382C577.965 259.497 576.173 259.566 574.379 259.59C569.418 259.635 568.507 258.728 564.826 255.128L565.257 240.287C569.896 244.771 566.132 246.972 570.706 251.911C571.959 243.735 571.308 203.408 571.298 193.203L571.118 65.0279C559.498 79.2149 548.091 93.5749 536.902 108.105C519.009 93.0709 485.685 67.1859 465.664 55.7579L487.044 30.3879C486.397 29.4349 484.331 27.8289 483.357 27.0099L483.479 25.7129C487.932 19.2149 496.885 5.05893 505.893 6.06293C508.598 7.71593 508.306 6.96393 509.155 9.44193C507.453 11.1009 506.547 11.7859 504.309 12.6479C521.668 24.4809 557.313 48.4099 571.167 62.6489C571.115 54.6639 571.182 46.2479 570.95 38.3059C601.947 38.6529 632.947 38.7539 663.946 38.6079L671.54 21.7549C669.04 21.3169 668.263 21.3429 666.41 19.5839C665.523 16.4239 667.7 13.2449 669.233 10.1769Z" fill="#FBF8F3"/>
<path d="M669.232 10.1769C674.593 -0.744069 688.034 4.85793 698.171 6.90793C705.456 7.53393 738.494 11.1419 741.427 16.6859L741.064 18.5819C739.165 19.3019 738.683 19.0659 736.683 18.5679C721.351 16.5829 690.364 13.3269 676.292 9.24093C674.657 13.3929 673.073 17.5649 671.539 21.7549C669.039 21.3169 668.262 21.3429 666.409 19.5839C665.522 16.4239 667.699 13.2449 669.232 10.1769Z" fill="#FDCA4C"/>
<path d="M669.23 10.1769C674.591 -0.744069 688.032 4.85793 698.169 6.90793C693 9.53493 683.514 5.36893 677.837 5.98993C675.204 6.27893 671.971 10.1029 669.23 10.1769Z" fill="#FDCA4C"/>
<path d="M487.042 30.3914C486.395 29.4384 484.329 27.8323 483.355 27.0133L483.477 25.7163C487.93 19.2183 496.883 5.06236 505.891 6.06635C508.596 7.71935 508.304 6.96735 509.153 9.44535C507.451 11.1044 506.545 11.7893 504.307 12.6513C498.421 14.0503 491.601 25.4034 487.042 30.3914Z" fill="#FDCA4C"/>
<path d="M565.255 240.289C569.894 244.773 566.13 246.974 570.704 251.913C575.617 255.778 613.335 253.695 622.146 253.656C615.568 254.107 576.099 253.474 573.956 255.016C577.306 258.937 578.367 255.78 579.753 259.384C577.963 259.499 576.171 259.568 574.377 259.592C569.416 259.637 568.505 258.73 564.824 255.13L565.255 240.289Z" fill="#F79A15"/>
<path d="M622.537 85.875C646.065 86.944 674.237 86.107 698.187 86.311L719.991 86.333L716.83 88.469L716.931 89.886C721.76 92.652 736.11 92.402 742.439 92.812C738.924 97.194 733.347 103.099 731.5 108.015C731.919 110.934 731.902 110.18 733.932 112.769C731.277 116.036 727.791 121.241 725.249 124.788C724.934 114.808 725.179 103.841 725.214 93.781C718.329 93.939 685.823 92.615 682.152 94.949C681.526 102.212 681.917 114.78 681.956 122.471C673.419 111.463 664.827 100.497 656.18 89.575C646.256 96.155 636.577 103.099 627.165 110.392C636.595 121.36 645.415 133.264 654.19 144.794L629.714 144.677L629.841 184.036C643.882 183.961 657.921 183.729 671.957 183.34C654.533 197.121 640.447 205.847 622.309 218.188C622.726 175.063 623.455 128.665 622.537 85.875Z" fill="#C94D09"/>
<path d="M698.187 86.3125L719.991 86.3345L716.83 88.4705L716.931 89.8875C721.76 92.6535 736.11 92.4035 742.439 92.8135C738.924 97.1955 733.347 103.101 731.5 108.017C731.919 110.936 731.902 110.182 733.932 112.771C731.277 116.038 727.791 121.242 725.249 124.789C724.934 114.809 725.179 103.843 725.214 93.7825C718.329 93.9405 685.823 92.6165 682.152 94.9505C680.929 96.3465 680.194 96.4865 678.477 97.0315L677.904 97.2105C675.662 99.9035 676.141 101.711 675.7 105.62C671.216 101.03 667.788 96.8925 663.738 91.9755C673.43 92.0405 689.271 93.3145 697.449 89.7485C698.036 88.2505 698.021 87.9275 698.187 86.3125Z" fill="#971F00"/>
<path d="M628.479 118.305C630.194 119.488 642.737 136.434 645.141 139.517C640.073 138.841 633.848 139.211 628.642 139.369C628.396 132.178 628.107 125.52 628.479 118.305Z" fill="#971F00"/>
<path d="M628.188 92.4881L645.37 92.4531C643.898 93.7881 640.899 95.2961 639.057 96.3121C635.681 98.6141 631.984 101.456 628.651 103.904C628.227 101.716 628.242 95.0401 628.188 92.4881Z" fill="#971F00"/>
<path d="M719.993 86.3346C741.131 86.0396 764.312 86.6306 785.039 85.8516C783.89 129.146 785.582 173.606 784.916 217.003C769.346 205.637 751.795 195.077 735.521 183.445C749.421 183.557 763.322 183.533 777.222 183.373C777.32 170.635 777.183 157.218 777.506 144.547C769.128 144.575 761.02 144.561 752.645 145.027C761.557 133.122 770.696 121.388 780.057 109.833C769.712 102.83 760.065 96.1936 749.166 90.0096C743.977 98.6326 739.884 104.635 733.934 112.771C731.904 110.182 731.921 110.936 731.502 108.017C733.349 103.101 738.926 97.1956 742.441 92.8136C736.112 92.4036 721.762 92.6536 716.933 89.8876L716.832 88.4706L719.993 86.3346Z" fill="#C94D09"/>
<path d="M778.637 92.5312C778.753 95.6672 778.641 99.6352 778.637 102.839C774.483 99.8732 767.071 95.5653 762.566 92.7663L778.637 92.5312Z" fill="#971F00"/>
<path d="M725.735 130.336C731.951 134.832 738.217 139.259 744.532 143.614L744.553 145.041C737.953 144.651 731.731 144.924 725.144 145.133C725.099 139.694 725.001 135.721 725.735 130.336Z" fill="#C94D09"/>
<path d="M674.573 245.219C692.85 246.032 713.995 245.694 732.365 245.596C732.13 252.858 731.978 260.123 731.908 267.388L853.154 267.347C853.344 283.962 852.814 300.322 853.134 317.215C842.884 316.59 827.094 317.04 816.544 317.071L751.03 317.224C778.678 340.733 827.554 353.693 862.494 358.76C856.404 369.419 841.994 396.895 839.154 408.059C790.069 399.115 747.823 385.583 713.423 348.091L705.992 339.303C670.105 385.438 620.774 400.043 565.23 411.459C558.978 396.084 548.221 376.796 540.715 361.426C579.917 354.938 627.856 344.468 658.286 317.258C624.899 316.532 588.586 317.08 555.047 317.294C555.438 301.287 555.056 283.583 555.04 267.445L674.664 267.349C674.535 259.973 674.504 252.596 674.573 245.219Z" fill="#FBF8F3"/>
<path d="M509.332 228.297C525.723 236.855 541.972 245.682 558.072 254.775C541.257 295.029 525.787 335.741 508.987 375.991C505.415 384.547 502.044 393.464 497.693 401.626C494.591 402.62 492.956 401.399 489.398 400.276C474.372 395.223 454.753 384.769 439.477 381.508C446.517 371.551 454.427 353.705 460.173 342.452C479.038 305.507 492.958 265.842 509.332 228.297Z" fill="#FBF8F3"/>
<path d="M476.621 117.172C478.671 115.901 478.72 113.58 482.513 111.18L485.184 111.817C510.655 130.028 534.928 144.399 560.24 164.751C548.796 178.959 533.601 197.881 523.296 212.636C506.997 199.18 462.993 165.533 444.863 156.185C453.888 145.629 469.135 128.374 476.621 117.172Z" fill="#FBF8F3"/>
<path d="M563.835 170.422C568.65 176.189 561.565 202.377 557.904 209.129L556.86 209.204L556.312 206.062C548.712 203.972 552.822 201.858 550.033 198.942C550.191 200.023 550.352 199.586 549.807 200.344L547.427 200.461C547.007 201.503 546.579 201.809 545.825 202.676C543.194 205.842 541.949 205.747 538.1 207.778L537.117 206.999C537.554 205.485 561.394 173.456 563.835 170.422Z" fill="#971F00"/>
<path d="M564.825 255.133C568.506 258.733 569.417 259.64 574.378 259.595C576.172 259.571 577.964 259.502 579.754 259.387C584.835 260.097 597.287 259.26 603.162 259.507C609.545 259.777 616.272 260.139 622.632 260.301L623.058 261.532C621.833 262.719 620.461 263.746 618.977 264.587C612.233 268.446 583.582 266.701 574.973 264.922C571.987 264.306 566.932 260.763 563.038 259.801L562.816 257.201L564.825 255.133Z" fill="#971F00"/>
<path d="M781.755 259.72C775.58 259.538 751.727 262.153 753.719 253.756C759.279 251.037 765.964 256.888 769.506 248.846C770.388 246.845 772.224 244.218 773.57 242.5L775.617 243.326C778.587 246.907 778.536 252.223 778.596 256.685L781.755 259.72Z" fill="#971F00"/>
<path d="M558.805 220.242C561.811 219.436 560.633 219.418 563.584 220.623C566.498 225.942 565.267 234.222 565.256 240.286L564.825 255.127L562.816 257.195C563.131 247.461 559.751 250.021 558.738 243.315C558.946 235.626 558.969 227.933 558.805 220.242Z" fill="#C94D09"/>
<path d="M476.624 117.169C474.267 117.725 472.211 119.853 468.703 119.804L468.637 118.137C472.078 113.161 477.572 104.147 484.152 104.133C487.275 105.634 486.636 104.838 488.491 107.493C487.569 110.349 487.722 109.587 485.187 111.814L482.516 111.177C478.723 113.577 478.674 115.898 476.624 117.169Z" fill="#FDCA4C"/>
<path d="M565.434 135.07C566.038 136.48 567.129 139.704 568.184 140.378C570.242 145.287 569.37 149.703 568.865 155.012L566.645 156.109C563.713 152.5 565.182 140.318 565.434 135.07Z" fill="#F79A15"/>
<path d="M838.514 44.3516C839.004 45.2076 839.614 45.4776 840.454 46.0966C843.374 51.3936 840.204 60.5016 838.664 66.3266C838.234 58.5956 838.354 52.0506 838.514 44.3516Z" fill="#C94D09"/>
<path d="M778.598 256.685L779.499 252.203C783.857 252.424 783.857 254.778 784.977 258.677L781.757 259.72L778.598 256.685Z" fill="#F79A15"/>
<path d="M30.9603 224.528C25.9413 222.695 20.8673 221.036 18.9443 215.622C12.4093 197.27 5.35332 178.957 0.537324 160.07C-3.63168 143.718 17.8103 142.994 18.3663 133.797C20.2833 102.128 16.9613 69.4119 19.2183 37.7319C19.5773 32.7019 23.4563 24.1339 28.3313 22.5389C67.8883 16.4419 108.267 14.9579 147.619 5.76694C165.826 1.54094 178.055 -7.37707 186.627 14.6789C188.21 18.7989 189.749 22.9349 191.245 27.0869C198.268 19.7549 200.244 18.6039 210.776 18.5849C266.434 18.4799 322.16 18.2329 377.812 18.7759C381.801 18.8149 390.524 19.9659 393.909 21.8149C401.485 30.5419 400.998 59.1039 399.876 70.8859C395.989 111.674 406.912 172.817 374.862 202.956C383.662 214.245 381.017 224.143 381.043 238.102L381.088 287.045L381.17 366.373C381.18 381.016 381.631 396.176 380.401 410.786C379.759 418.416 374.957 422.583 368.38 425.604C348.351 424.979 327.44 425.637 307.176 425.306C301.545 423.057 300.201 420.764 296.473 416.108C281.006 417.43 250.218 416.457 233.826 416.435L114.692 416.416C110.743 421.892 108.212 424.456 100.967 425.149C82.4373 426.923 60.9803 424.762 42.5883 425.455C43.1233 422.644 42.7943 417.851 42.7003 414.844C42.3493 414.732 42.0013 414.612 41.6583 414.477C39.4113 413.591 36.1153 410.806 35.4123 408.418C33.6573 402.458 35.2983 377.941 35.3773 370.343C35.5353 355.156 36.5303 214.313 35.5983 212.198L33.8993 212.424C31.2253 216.37 34.4303 219.16 30.9603 224.528ZM294.58 138.486C302.552 138.723 307.798 138.814 315.845 138.17C316.982 130.133 317.114 126.271 317.137 118.293C319.455 117.885 319.638 118.485 322.223 119.606L323.235 118.914C325.274 113.594 324.278 101.271 323.991 95.0139C318.813 96.7449 318.428 97.0529 316.424 102.429L314.858 99.8309C311.069 98.0559 306.912 98.6259 302.949 99.6409C302.507 110.724 297.925 127.695 294.58 138.486Z" fill="#C94D09"/>
<path d="M42.6979 414.844C62.1179 413.657 83.8589 415.738 103.338 414.321C106.458 414.094 109.312 409.118 111.276 406.324C127.011 404.973 156.659 405.911 173.553 405.909L298.792 405.69C301.175 407.051 300.456 406.621 301.393 410.051C298.11 411.832 297.37 412.114 296.471 416.108C281.004 417.43 250.216 416.457 233.824 416.435L114.69 416.416C110.741 421.892 108.21 424.456 100.965 425.149C82.4349 426.923 60.9779 424.762 42.5859 425.455C43.1209 422.644 42.7919 417.851 42.6979 414.844Z" fill="#971F00"/>
<path d="M301.395 410.047C303.669 412.788 304.078 413.221 307.294 414.673C321.534 414.588 356.518 413.582 368.846 415.091C370.025 417.551 368.625 422.021 368.38 425.6C348.351 424.975 327.44 425.633 307.176 425.302C301.545 423.053 300.201 420.76 296.473 416.104C297.372 412.11 298.112 411.828 301.395 410.047Z" fill="#971F00"/>
<path d="M301.395 410.047C303.669 412.788 304.078 413.221 307.294 414.673C308.631 419.644 309.123 420.342 307.176 425.302C301.545 423.053 300.201 420.76 296.473 416.104C297.372 412.11 298.112 411.828 301.395 410.047Z" fill="#C94D09"/>
<path d="M296.743 205.605C291.579 205.438 287.518 205.953 283.195 203.363C285.432 201.962 296.42 203.712 300.904 203.674C317.714 203.533 337.723 204.496 354.152 200.547C358.649 199.466 367.697 194.236 373.477 192.484L375.496 193.576L375.578 196.119C373.418 200.116 374.572 199.241 370.96 201.045C371.953 202.195 374.342 205.076 374.425 206.439C375.568 225.436 374.989 249.321 374.655 268.073C373.519 263.114 372.328 249.616 369.276 247.387C368.77 248.923 368.391 249.911 368.159 251.537C367.992 302.804 367.509 354.821 368.023 406.046C360.74 406.062 310.024 406.838 307.726 405.254C299.56 400.156 218.757 401.023 205.615 401.896C187.398 403.105 114.453 398.574 102.948 406.185C92.0123 405.065 55.2723 405.947 42.8563 406.319L42.8203 205.976C125.727 207.644 213.674 206.159 297.015 206.23L296.743 205.605Z" fill="#FBF8F3"/>
<path d="M102.949 406.189C103.096 402.369 102.517 400.959 104.461 398.097C112.55 397.133 130.303 397.646 138.992 397.65L205.869 397.686L272.137 397.593C280.543 397.583 297.936 397.058 305.61 397.994C307.755 400.113 307.293 401.754 307.727 405.258C299.561 400.16 218.758 401.027 205.616 401.9C187.399 403.109 114.454 398.578 102.949 406.189Z" fill="#971F00"/>
<path d="M296.743 205.605C291.579 205.438 287.518 205.953 283.195 203.363C285.432 201.962 296.42 203.712 300.904 203.674C317.714 203.533 337.723 204.496 354.152 200.547C358.649 199.466 367.697 194.236 373.477 192.484L375.496 193.576L375.578 196.119C373.418 200.116 374.572 199.241 370.96 201.045C371.953 202.195 374.342 205.076 374.425 206.439C375.568 225.436 374.989 249.321 374.655 268.073C373.519 263.114 372.328 249.616 369.276 247.387C368.77 248.923 368.391 249.911 368.159 251.537C368.096 236.443 368.127 221.349 368.253 206.255L297.015 206.23L296.743 205.605Z" fill="#F79A15"/>
<path d="M296.743 205.605C291.579 205.438 287.518 205.953 283.195 203.363C285.432 201.962 296.42 203.712 300.904 203.674C317.714 203.533 337.723 204.496 354.152 200.547C358.649 199.466 367.697 194.236 373.477 192.484L375.496 193.576L375.578 196.119C373.418 200.116 374.572 199.241 370.96 201.045C358.601 199.859 362.224 204.726 358.052 205.07C337.885 206.734 317.077 205.102 296.743 205.605Z" fill="#971F00"/>
<path d="M233.759 323.543C258.25 323.333 282.742 323.296 307.233 323.432C307.303 331.861 307.206 340.291 306.942 348.716C283.045 349.313 257.72 349.027 233.695 349.125L233.759 323.543Z" fill="#C94D09"/>
<path d="M300.628 331.391C300.711 334.498 300.598 338.077 300.579 341.23C285.406 341.205 255.904 342.347 241.915 341.09C240.163 338.514 240.617 334.68 240.641 331.452L300.628 331.391Z" fill="#971F00"/>
<path d="M233.879 253.602L307.285 253.508L307.275 278.553L233.816 278.533L233.879 253.602Z" fill="#C94D09"/>
<path d="M297.911 260.985C299.71 260.692 299.011 260.668 300.841 261.545C301.696 264.728 301.778 268.41 299.449 271.004C286.609 272.393 258.613 271.216 243.896 271.478C242.958 271.6 242 271.205 241.063 270.929C240.972 270.452 240.892 269.973 240.823 269.492C240.365 266.38 240.379 263.913 242.166 261.491C249.323 260.139 288.339 260.947 297.911 260.985Z" fill="#971F00"/>
<path d="M103.656 323.483L174.454 323.453C174.464 329.391 174.834 342.564 173.837 347.852L172.28 348.883L103.379 349C103.796 341.161 103.619 331.471 103.656 323.483Z" fill="#C94D09"/>
<path d="M110.031 331.21C123.55 332.015 155.545 330.062 166.538 331.856C167.838 334.085 167.415 338.489 167.386 341.26C157.661 340.846 116.419 342.089 111.438 340.766C109.765 338.418 110.099 334.254 110.031 331.21Z" fill="#971F00"/>
<path d="M103.861 253.615L174.424 253.453C174.191 261.541 174.305 270.309 174.258 278.455L103.738 278.387L103.861 253.615Z" fill="#C94D09"/>
<path d="M109.855 271.651C109.792 268.61 109.345 264.149 110.603 261.557C114.337 260.534 164.809 260.598 167.14 261.839C167.36 265.616 167.315 267.71 167.038 271.486C151.972 270.681 125.072 270.99 109.855 271.651Z" fill="#971F00"/>
<path d="M109.855 271.65C126.168 263.637 151.689 259.009 167.038 271.485C151.972 270.68 125.072 270.989 109.855 271.65Z" fill="#971F00"/>
<path d="M30.1306 31.5221C28.4386 33.2551 26.9276 34.9781 24.8726 36.2581L23.2326 35.3481C21.9636 21.0351 44.9226 23.4111 55.2626 22.5741C82.4016 20.2551 109.412 16.6151 136.197 11.6671C148.563 9.31512 160.388 6.36114 172.521 3.25114C176.693 2.18214 180.884 9.12213 180.815 13.1291L179.159 14.5471L174.474 13.4471C179.745 28.9981 186.659 45.9411 191.461 61.0821C178.548 62.5351 166.093 66.5481 153.752 68.5181C133.06 71.8221 107.599 76.6361 86.9176 77.9111L86.7526 127.188C86.6356 131.117 85.8876 133.549 87.6576 136.573C88.6276 136.51 90.0806 136.463 90.9816 136.281C98.5836 135.805 124.537 129.274 134.602 127.38C128.951 116.868 123.557 105.766 118.196 95.0691C130.681 90.8651 149.274 81.8791 161.771 76.2361C171.456 91.8241 181.202 109.409 190.375 125.438C191.664 124.704 193.181 125.331 195.387 124.964C196.337 119.391 182.358 104.095 183.595 99.6481C185.335 99.3131 186.219 98.8281 187.806 98.1111C185.327 92.8611 179.177 87.9381 180.707 82.5771C182.86 80.6041 186.145 80.7681 189.14 80.5551L192.13 77.0551L193.488 77.0991C199.25 88.5211 203.411 86.2661 215.694 85.8311C219.335 85.5811 225.285 84.5861 228.066 86.4341C228.847 89.9841 228.428 89.3711 227.245 93.2911L226.396 97.6781C229.858 99.2311 230.407 99.1921 233.672 96.6081C234.722 90.4861 235.859 84.2731 236.616 78.1171L200.769 78.4371C200.798 61.8851 200.981 45.0141 200.79 28.4881L319.985 28.4721C341.744 28.4911 366.208 29.0221 387.725 28.2781C386.581 58.0241 387.676 88.2741 385.75 117.946C384.426 138.334 385.249 170.42 368.72 184.889C350.34 200.98 314.002 196.772 290.54 197.436C288.584 184.4 282.255 161.191 278.091 148.213C283.253 148.229 292.96 148.563 297.761 148.159C302.772 148.415 308.915 148.264 314.019 148.274C318.042 147.555 323.398 146.459 325.238 142.56C332.993 126.132 330.916 95.6451 331.237 78.0421C317.969 78.3701 304.696 78.4661 291.425 78.3311C287.121 133.905 268.599 172.811 221.672 204.827C210.795 195.323 199.052 185.183 188.689 175.146C180.868 178.462 163.703 185.091 156.773 188.807C155.407 182.174 153.924 178.672 151.376 172.337L78.0976 192.448C65.4486 195.804 40.6686 201.562 28.9066 205.906C26.9276 197.267 15.7936 159.88 11.4766 152.297C20.8826 148.458 25.1806 147.157 28.2126 136.756C31.4266 125.134 30.1666 50.3511 30.1306 31.5221Z" fill="#FBF8F3"/>
<path d="M189.139 80.5547L192.129 77.0547L193.487 77.0987C199.249 88.5207 203.41 86.2657 215.693 85.8307C219.334 85.5807 225.284 84.5857 228.065 86.4337C228.846 89.9837 228.427 89.3707 227.244 93.2907L226.395 97.6777C229.857 99.2307 230.406 99.1917 233.671 96.6077C228.494 117.891 219.422 136.919 203.124 152.018C199.877 144.48 197.156 138.691 193.355 131.417L190.374 125.438C191.663 124.704 193.18 125.331 195.386 124.964C196.336 119.391 182.357 104.095 183.594 99.6477C185.334 99.3127 186.218 98.8277 187.805 98.1107C185.326 92.8607 179.176 87.9377 180.706 82.5767C182.859 80.6037 186.144 80.7677 189.139 80.5547Z" fill="#C94D09"/>
<path d="M189.139 80.5547L192.129 77.0547L193.487 77.0987C199.249 88.5207 203.41 86.2657 215.693 85.8307C219.334 85.5807 225.284 84.5857 228.065 86.4337C228.846 89.9837 228.427 89.3707 227.244 93.2907L226.395 97.6777L224.771 101.455C223.183 101.991 222.733 102.201 221.076 102.333C220.018 105.713 218.994 109.065 217.787 112.397C211.567 108.727 200.685 103.582 194.523 109.497C192.953 108.096 189.056 100.422 187.805 98.1107C185.326 92.8607 179.176 87.9377 180.706 82.5767C182.859 80.6037 186.144 80.7677 189.139 80.5547Z" fill="#C94D09"/>
<path d="M215.692 85.8277C219.333 85.5777 225.283 84.5827 228.064 86.4307C228.845 89.9807 228.426 89.3677 227.243 93.2877L226.394 97.6747L224.77 101.452C223.182 101.988 222.732 102.198 221.075 102.33L220.81 99.4817C218.338 97.6117 215.75 97.9867 212.27 97.6747C208.153 93.9437 202.087 97.8057 201.004 87.2807L203.08 86.8517C208.311 86.8287 210.544 86.6897 215.692 85.8277Z" fill="#971F00"/>
<path d="M212.27 97.6746C208.153 93.9436 202.087 97.8056 201.004 87.2806L203.08 86.8516C203.821 88.7706 204.215 90.0116 205.345 91.7676C212.792 94.5926 219.263 93.5786 227.243 93.2876L226.394 97.6746L224.77 101.452C223.182 101.988 222.732 102.198 221.075 102.33L220.81 99.4816C218.338 97.6116 215.75 97.9866 212.27 97.6746Z" fill="#971F00"/>
<path d="M189.141 80.5547L192.131 77.0547L193.489 77.0987C199.251 88.5207 203.412 86.2657 215.695 85.8307C210.547 86.6927 208.314 86.8317 203.083 86.8547L201.007 87.2837C202.09 97.8087 208.156 93.9467 212.273 97.6777C196.108 98.9217 193.114 96.0617 189.141 80.5547Z" fill="#971F00"/>
<path d="M194.523 109.498C200.685 103.583 211.567 108.728 217.787 112.398C216.1 115.959 209.739 129.978 207.342 132.002C204.313 127.987 197.306 114.577 194.523 109.498Z" fill="#E8D4C6"/>
<path d="M30.1321 31.5221C28.4401 33.2551 26.9291 34.9781 24.8741 36.2581L23.2341 35.3481C21.9651 21.0351 44.9241 23.4111 55.2641 22.5741C82.4031 20.2551 109.413 16.6151 136.198 11.6671C148.564 9.31512 160.389 6.36114 172.522 3.25114C176.694 2.18214 180.885 9.12213 180.816 13.1291L179.16 14.5471L174.475 13.4471C170.723 8.64914 164.715 12.1071 159.066 13.5641C150.158 15.8611 141.552 17.6541 132.499 19.3211C114.631 22.5541 96.6581 25.1801 78.6111 27.1921C72.8081 27.8501 31.6491 30.9251 30.1321 31.5221Z" fill="#FDCA4C"/>
<path d="M76.7812 201.341C84.4212 197.838 137.546 183.989 148.656 181.117C150.502 188.521 150.529 191.057 157.081 195.164L156.006 197.504C157.076 198.947 157.616 199.69 158.911 200.933C149.625 197.668 135.388 198.057 125.508 198.411C108.65 199.043 93.4653 200.323 76.7812 201.341Z" fill="#971F00"/>
<path d="M148.656 181.117C150.502 188.521 150.529 191.057 157.081 195.164L156.006 197.504C157.076 198.947 157.616 199.69 158.911 200.933C149.625 197.668 135.388 198.057 125.508 198.411C129.844 196.775 141.198 194.121 145.788 194.197L146.124 194.206L145.962 193.101L141.338 191.752L143.527 191.406C144.562 187.719 146.064 183.989 148.656 181.117Z" fill="#971F00"/>
<path d="M94.5905 85.2969C94.1355 91.1519 92.8375 95.0369 95.6305 99.5139L100.956 99.7589C101.789 99.5349 106.656 97.0109 107.926 96.4139C108.094 107.933 109.942 110.918 114.988 121.163C110.035 122.319 103.614 123.406 99.5695 126.251L99.1935 126.617C94.0835 131.485 91.9695 128.2 90.9815 136.275C90.0805 136.457 88.6275 136.504 87.6575 136.567C85.8875 133.543 86.6355 131.111 86.7525 127.182C89.2155 126.563 89.6835 126.449 91.9565 125.166C93.9105 122.67 93.3395 118.993 93.2575 115.696C92.0485 117.058 92.7845 116.689 90.9935 116.864C87.9955 113.026 87.9145 92.5499 89.9645 88.1589L93.1735 87.3179L94.5905 85.2969Z" fill="#971F00"/>
<path d="M100.955 99.7591C101.788 99.5351 106.655 97.0111 107.925 96.4141C108.093 107.933 109.941 110.918 114.987 121.163C110.034 122.319 103.613 123.406 99.5677 126.251C99.3147 120.062 99.7697 105.546 100.955 99.7591Z" fill="#C94D09"/>
<path d="M93.257 115.698C92.048 117.06 92.784 116.691 90.993 116.866C87.995 113.028 87.914 92.5523 89.964 88.1613L93.173 87.3203C93.519 96.8543 93.365 106.163 93.257 115.698Z" fill="#FDCA4C"/>
<path d="M11.4746 152.298C10.5506 156.445 11.4416 158.552 8.9956 162.852L7.9436 162.647C-1.6094 143.554 16.5526 148.108 22.1156 135.822C27.4236 124.099 19.0276 76.3036 26.3066 68.6406L27.3876 69.6666C29.2926 78.4876 28.1656 124.624 28.2106 136.757C25.1786 147.158 20.8806 148.459 11.4746 152.298Z" fill="#FDCA4C"/>
<path d="M94.5905 85.2992C108.775 82.3882 131.37 79.6473 146.129 77.7812C136.552 81.5893 126.876 85.2973 117.716 90.0533C114.901 91.5153 110.141 96.0852 107.927 96.4162C106.657 97.0132 101.79 99.5372 100.957 99.7612L95.6305 99.5163C92.8375 95.0393 94.1355 91.1542 94.5905 85.2992Z" fill="#971F00"/>
<path d="M297.895 85.6296C306.008 86.0006 316.685 84.2536 322.772 86.7366C324.894 89.8236 324.123 90.7566 323.989 95.0066C318.811 96.7376 318.426 97.0456 316.422 102.422L314.856 99.8236C311.067 98.0486 306.91 98.6186 302.947 99.6336C300.919 100.731 299.397 101.918 297.233 101.604C295.644 97.6326 297.338 90.6956 297.895 85.6296Z" fill="#971F00"/>
<path d="M157.079 195.164C164.122 193.182 185.547 184.001 189.158 184.247C191.842 186.115 191.064 185.151 192.13 188.181C190.628 191.339 188.611 191.334 185.221 191.876C179.324 196.86 180.646 198.005 173.349 199.447L171.811 199.55C169.002 199.907 161.069 201.125 158.909 200.933C157.614 199.69 157.074 198.947 156.004 197.504L157.079 195.164Z" fill="#971F00"/>
<path d="M392.722 52.0078C395.981 57.4758 393.092 108.196 392.021 117.015L391.069 117.555C390.893 112.373 389.231 110.733 389.053 106.337C388.301 87.8068 390.138 70.2818 392.722 52.0078Z" fill="#FDCA4C"/>
<path d="M193.968 66.9453C194.282 69.7893 194.72 71.5393 193.581 74.1593C187.542 78.8483 175.155 77.0003 167.637 76.4893L167.566 74.9663C170.228 70.8963 186.453 69.9423 193.968 66.9453Z" fill="#971F00"/>
<path d="M297.76 148.156C294.7 146.782 288.759 147.963 284.121 147.447L283.773 146.044C289.614 141.092 305.193 141.36 312.707 141.855C315.22 144.832 311.263 142.096 314.018 148.271C308.914 148.261 302.771 148.412 297.76 148.156Z" fill="#C94D09"/>
<path d="M316.422 102.423C318.426 97.0468 318.811 96.7388 323.989 95.0078C324.276 101.265 325.272 113.588 323.233 118.908L322.221 119.6C319.636 118.479 319.453 117.879 317.135 118.287C316.746 111.432 318.191 110.908 316.422 102.423Z" fill="#C94D09"/>
<path d="M188.266 31.0625C189.886 31.1245 191.986 30.8255 192.784 31.8295C195.746 35.5525 194.912 46.6035 194.839 51.4555C191.82 45.9735 189.344 37.2535 188.266 31.0625Z" fill="#971F00"/>
<path d="M19.8398 197.906C21.0448 198.217 31.9668 209.561 33.9478 211.449C30.1158 212.508 28.2948 212.569 24.9368 210.706C21.8718 207.545 21.0188 202.303 19.8398 197.906Z" fill="#FDCA4C"/>
<path d="M259.527 181.992L260.909 182.019C263.25 183.319 263.451 184.076 264.649 186.451L263.081 189.209C260.422 189.206 257.421 189.467 255.117 188.255C255.464 185.556 257.398 184.307 259.527 181.992Z" fill="#971F00"/>
<path d="M171.812 199.548L173.35 199.445C181.129 199.635 187.563 199.196 195.198 200.79C189.506 202.199 176.609 202.739 171.812 199.548Z" fill="#F79A15"/>
<path d="M381.086 22.6924C384.792 22.3914 387.203 21.9044 390.627 23.4514C393.392 25.8514 393.577 27.7214 394.445 31.2334C389.6 30.3924 388.944 26.0774 381.086 22.6924Z" fill="#FDCA4C"/>
<path d="M1129.89 16.1936C1131.73 12.6476 1135.33 5.38861 1139.56 4.64361C1154.67 1.98261 1172.05 3.60461 1187.36 3.38261C1202.95 3.15761 1215.82 2.93361 1217.83 21.7966C1215.79 22.6196 1214.86 22.5176 1212.78 22.2596C1212.45 25.7056 1211.82 35.0256 1211.24 37.9636C1211.45 52.7916 1210.98 67.6206 1209.85 82.4076L1212.13 83.1206C1215.93 82.4686 1216.63 82.1886 1219.91 80.1706C1237.32 78.6296 1256.49 80.0086 1273.99 79.4466C1282.71 79.1676 1294.76 78.7486 1302.16 82.7326C1305.56 84.5636 1308.31 98.5996 1308.04 102.489C1308.27 141.511 1307.18 180.527 1306.27 219.535C1305.47 253.803 1305.56 288.457 1302.72 322.635C1300.69 346.919 1300.67 384.035 1283.17 402.749C1282.31 403.66 1281.43 404.545 1280.52 405.402C1264.38 426.923 1217.99 425.466 1193.72 425.647C1191.81 425.661 1186.71 425.7 1185.05 425.326C1185.89 422.595 1184.18 417.788 1183.41 414.548C1180.8 411.896 1180.22 411.496 1176.93 409.727C1174.48 409.978 1174.88 409.718 1172.35 408.547L1170.06 396.684C1168.71 390.749 1167.12 379.393 1162.67 376.095L1160.46 377.078C1157.81 375.85 1155.35 376.341 1153.49 373.694C1152.69 374.851 1151.15 376.897 1150.73 378.129C1152.79 379.478 1154.47 380.556 1156.62 381.744C1155.28 384.221 1148.14 395.137 1146.12 396.756C1143.69 400.029 1141.11 403.634 1138.6 406.805C1137.89 407.689 1134.22 412.329 1133.65 412.784C1114.25 436.482 1111.44 435 1087.95 416.212C1081.32 411.678 1073.8 405.806 1067.28 400.938C1063.61 399.036 1060.1 396.525 1056.66 394.207C1050.62 388.073 1051.01 384.147 1052.62 376.344C1048 374.129 927.974 393.537 906.684 395.239C892.444 391.295 893.154 375.918 891.274 363.479C890.054 354.373 888.904 345.759 887.234 336.719C886.414 328.498 886.134 323.188 887.434 315.029C894.684 306.779 902.094 306.608 912.544 304.687C913.104 296.407 912.954 286.222 913.014 277.763C913.274 266.828 913.284 255.888 913.034 244.953C913.624 241.129 913.554 225.648 913.564 221.241L913.594 175.381C913.894 163.233 913.984 151.081 913.864 138.929C914.814 121.734 913.974 94.6946 914.014 76.9566C914.654 70.2646 913.674 51.7426 913.234 44.5746L913.094 43.5396C914.634 26.0786 918.784 20.2706 936.994 20.3746C988.694 20.6676 1040.96 18.4206 1092.5 21.1506C1096.67 21.3716 1100.81 28.7386 1102.54 32.0496C1104.08 43.8716 1101.9 69.7756 1105.72 78.2666L1106.81 78.9376C1111.98 75.8766 1121.75 78.3306 1128.32 77.9306C1129.24 62.7096 1127.9 27.0946 1129.89 16.1936ZM1141.31 77.6166L1141.39 90.0856C1134.84 90.5946 1101.36 88.7156 1099.33 92.6856C1097.22 95.1716 1096.93 96.4346 1094.28 97.0136C1091.68 93.5986 1094.41 88.5696 1090.85 84.0966C1090.37 80.2046 1090.49 79.0956 1091.02 75.1926C1090.77 60.2636 1090.69 45.3316 1090.8 30.4006C1039.86 30.3236 980.894 31.7406 930.534 29.9896C926.714 31.1186 925.354 30.7746 925.034 35.6136C925.874 39.7446 925.584 58.4366 925.544 63.6316L925.424 111.751L925.644 314.173C916.314 315.354 906.954 316.347 897.584 317.152C899.864 335.712 904.244 358.158 905.484 376.17C911.504 374.945 919.384 374.056 925.594 373.347C978.874 367.272 1032.17 357.11 1085.35 350.964C1077.69 359.735 1068.46 368.585 1060.02 376.568C1075.08 384.445 1097.4 402.163 1111.33 412.895C1184.99 340.693 1194.66 246.553 1199.61 148.508C1211.75 148.73 1224.28 148.584 1236.45 148.598C1235.91 171.11 1236.26 193.665 1235.82 216.188C1235.39 238.178 1236.13 331.352 1222.72 343.633C1212.38 353.108 1183.36 348.169 1169.95 347.279C1176.51 366.565 1181.61 386.316 1185.2 406.366C1222.26 405.627 1277.82 412.298 1285.14 364.173C1289.67 334.425 1290.66 304.444 1291.95 274.417C1294.51 212.984 1295.9 151.509 1296.12 90.0226C1264.93 89.8806 1233.74 89.9736 1202.56 90.2996C1204.48 67.3256 1204.46 38.9286 1205.02 15.5466C1201.95 13.3276 1148.35 13.6636 1141.3 13.6096C1141.85 19.3116 1141.96 34.7286 1141.37 40.4956L1141.31 77.6166ZM1223.14 230.239C1223.79 215.275 1223.62 200.324 1224.28 185.327C1221.41 182.8 1220.42 181.595 1216.56 181.516C1211.78 182.927 1211.01 185.366 1210.04 190.006C1210.71 197.384 1207.61 221.202 1206.77 229.474C1200.59 273.581 1196.23 294.728 1181.89 337.019C1183.77 338.762 1183.51 338.247 1186.52 338.684C1202.22 337.727 1213.55 345.704 1217.65 326.457C1219.94 327.189 1220.84 327.491 1223.02 328.605C1224.36 322.7 1224.83 313.055 1225.23 306.789C1224.56 299.189 1224.64 294.097 1223.65 285.878L1223.32 291.57C1222.65 286.717 1222.66 277.899 1221.92 274.804C1221.36 265.093 1222.8 241.301 1223.14 230.239Z" fill="#C94D09"/>
<path d="M1141.31 13.6094C1148.36 13.6634 1201.96 13.3274 1205.03 15.5464C1204.47 38.9284 1204.49 67.3254 1202.57 90.2994C1233.75 89.9734 1264.94 89.8804 1296.13 90.0224C1295.91 151.508 1294.52 212.983 1291.96 274.416C1290.67 304.443 1289.68 334.424 1285.15 364.172C1277.83 412.297 1222.27 405.626 1185.21 406.365C1181.62 386.315 1176.52 366.564 1169.96 347.278C1183.37 348.168 1212.39 353.107 1222.73 343.632C1236.14 331.351 1235.4 238.177 1235.83 216.187C1236.27 193.664 1235.92 171.109 1236.46 148.597C1224.29 148.583 1211.76 148.729 1199.62 148.507C1194.67 246.552 1185 340.692 1111.34 412.894C1097.41 402.162 1075.09 384.444 1060.03 376.567C1068.47 368.584 1077.7 359.734 1085.36 350.963C1032.18 357.109 978.876 367.271 925.596 373.346C919.386 374.055 911.506 374.944 905.486 376.169C904.246 358.157 899.866 335.711 897.586 317.151C906.956 316.346 916.316 315.353 925.646 314.172L925.426 111.75L925.546 63.6314C925.586 58.4364 925.876 39.7444 925.036 35.6134C925.356 30.7744 926.716 31.1184 930.536 29.9894C980.896 31.7404 1039.87 30.3234 1090.81 30.4004C1090.7 45.3314 1090.78 60.2634 1091.03 75.1924C1090.5 79.0954 1090.38 80.2044 1090.86 84.0964C1094.42 88.5694 1091.69 93.5984 1094.29 97.0134C1096.94 96.4344 1097.23 95.1714 1099.34 92.6854C1101.37 88.7154 1134.85 90.5944 1141.4 90.0854L1141.32 77.6164L1141.38 40.4954C1141.97 34.7284 1141.86 19.3114 1141.31 13.6094ZM1090.34 292.101L1106.36 290.252L1106.15 321.375C1132.63 269.278 1139.65 206.684 1140.44 148.71C1127.72 148.708 1111.4 148.242 1098.97 148.996C1099.53 130.655 1098.48 110.188 1099.34 92.6854C1097.23 95.1714 1096.94 96.4344 1094.29 97.0134C1091.69 93.5984 1094.42 88.5694 1090.86 84.0964L1090.34 292.101ZM1021.51 196.369C1020.83 194.973 1020.51 193.541 1019.31 193.261C1013.05 191.796 1002.63 192.639 996.036 192.897C996.326 193.78 996.906 196.29 997.586 196.63C1002.13 198.904 1017.15 198.439 1021.51 196.369Z" fill="#FBF8F3"/>
<path d="M1090.86 84.1016C1094.42 88.5746 1091.69 93.6036 1094.29 97.0186C1096.94 96.4396 1097.23 95.1766 1099.34 92.6906C1098.48 110.194 1099.53 130.661 1098.97 149.002C1111.4 148.248 1127.72 148.714 1140.44 148.716C1139.65 206.69 1132.63 269.284 1106.15 321.381L1106.36 290.258L1090.34 292.107L1090.86 84.1016ZM1104.47 174.255L1103.99 184.853C1104.2 190.416 1103.5 196.744 1106.66 200.788C1109.42 202.199 1110.4 202.382 1113.44 203.064L1113.97 202.87C1118.52 201.152 1118.35 198.649 1121.98 198.631C1124.25 200.556 1124.52 204.588 1124.64 207.436C1125.69 199.218 1129.13 182.564 1124.8 175.755C1122.82 172.645 1118.46 172.211 1114.85 171.448C1111.51 172.661 1107.98 174.221 1104.47 174.255Z" fill="#C94D09"/>
<path d="M1103.5 248.565L1102.06 252.486L1101.4 252.296C1100.65 242.379 1097.5 189.476 1103.15 184.766L1103.99 184.848C1104.2 190.411 1103.5 196.739 1106.66 200.783C1109.42 202.194 1110.4 202.377 1113.44 203.059L1113.97 202.865C1118.52 201.147 1118.35 198.644 1121.98 198.626C1124.25 200.551 1124.52 204.583 1124.64 207.431C1124.01 213.13 1122.9 220.915 1122.57 226.466L1119.38 245.954C1117.88 253.992 1114.04 280.693 1106.99 283.822C1100.74 279.103 1103.68 257.11 1103.5 248.565Z" fill="#E8D4C6"/>
<path d="M1103.5 248.565L1102.06 252.486L1101.4 252.296C1100.65 242.379 1097.5 189.476 1103.15 184.766L1103.99 184.848C1104.2 190.411 1103.5 196.739 1106.66 200.783C1109.42 202.194 1110.4 202.377 1113.44 203.059C1110.32 204.495 1109.2 204.286 1107.84 207.76C1104.59 216.028 1106.3 259.479 1108.38 265.685L1109.52 265.88C1113.07 259.686 1114.87 249.931 1119.38 245.954C1117.88 253.992 1114.04 280.693 1106.99 283.822C1100.74 279.103 1103.68 257.11 1103.5 248.565Z" fill="#D3A88A"/>
<path d="M1103.5 248.565L1102.06 252.486L1101.4 252.296C1100.65 242.379 1097.5 189.476 1103.15 184.766C1104.71 202.773 1102.9 229.52 1103.5 248.565Z" fill="#971F00"/>
<path d="M1112.24 169.842C1106.82 170.42 1104.15 171.674 1098.99 172.489L1098.61 171.296C1103.32 164.883 1102.76 165.106 1102.4 157.215C1105.56 155.992 1131.46 155.867 1134.41 158.167C1139.72 165.175 1137.64 182.653 1133.97 189.78L1132.58 190.439L1131.66 188.773L1131.55 189.238C1129.2 199.422 1131.25 217.999 1127.25 228.702C1126.75 230.05 1126.96 232.385 1127.08 233.87L1126.38 234.189C1125.52 231.395 1124.92 228.02 1122.57 226.472C1122.9 220.921 1124.01 213.136 1124.64 207.437C1125.69 199.219 1129.13 182.565 1124.8 175.756C1122.82 172.646 1118.46 172.212 1114.85 171.449C1111.51 172.662 1107.98 174.222 1104.47 174.256L1105.21 172.617C1108.58 171.856 1109.22 171.546 1112.24 169.842Z" fill="#C94D09"/>
<path d="M1112.24 169.842C1106.82 170.42 1104.15 171.674 1098.99 172.489L1098.61 171.296C1103.32 164.883 1102.76 165.106 1102.4 157.215C1105.56 155.992 1131.46 155.867 1134.41 158.167C1134.02 161.343 1133.13 167.067 1133.19 170.07L1131.96 173.163C1127.05 176.899 1122.62 169.799 1117.52 168.309C1118.05 168.464 1112.89 169.797 1112.24 169.842Z" fill="#971F00"/>
<path d="M1134.41 158.164C1139.72 165.172 1137.64 182.65 1133.97 189.777L1132.58 190.436L1131.66 188.77C1132.46 182.468 1132.8 176.389 1133.19 170.067C1133.13 167.064 1134.02 161.34 1134.41 158.164Z" fill="#F79A15"/>
<path d="M1114.84 171.445C1118.45 172.208 1122.81 172.642 1124.79 175.752C1129.12 182.561 1125.68 199.215 1124.63 207.433C1124.51 204.585 1124.24 200.553 1121.97 198.628C1118.34 198.646 1118.51 201.149 1113.96 202.867L1113.43 203.061C1110.39 202.379 1109.41 202.196 1106.65 200.785C1103.49 196.741 1104.19 190.413 1103.98 184.85L1104.46 174.252C1107.97 174.218 1111.5 172.658 1114.84 171.445Z" fill="#E8D4C6"/>
<path d="M983.024 258.795C999.534 258.578 1016.49 258.76 1033.04 258.746L1033.07 274.395V283.657L1033.01 299.312C1017.53 301.963 999.134 303.565 982.984 306.003L983.024 258.795Z" fill="#C94D09"/>
<path d="M1033.08 283.654L1031.97 281.094L1031.17 281.414L1028.61 287.592L1027.93 287.092C1027.05 281.127 1026.74 279.368 1027.58 273.43L1028.6 272.891C1029.65 274.71 1030.29 276.093 1031.88 277.483L1033.08 274.392V283.654Z" fill="#C94D09"/>
<path d="M990.644 266.211C996.974 266.484 1022.15 265.812 1025.93 266.989C1027.16 269.282 1026.49 272.383 1026.21 275.057C1021.74 278.424 1013.85 274.853 1005.66 274.974L1005.24 275.074L1006.89 275.711C1005.91 276.734 1005.03 277.082 1003.76 277.763C1006.43 277.674 1009.31 277.348 1011.74 278.369L1011.29 279.833C1009.57 280.582 992.004 282.621 991.134 282.263C990.234 279.94 990.624 269.388 990.644 266.211Z" fill="#971F00"/>
<path d="M983.294 84.8893L1033.29 84.6953C1032.9 96.6483 1033.17 109.823 1033.18 121.868L983.074 121.968C983.074 109.608 983.144 97.2483 983.294 84.8893Z" fill="#F79A15"/>
<path d="M990.733 92.5823C996.053 92.5413 1024.16 91.5523 1027.17 93.5743C1030.31 94.3763 1029.3 93.6753 1031.07 96.3993C1031.6 100.218 1031.01 104.475 1028.67 107.623C1028.18 108.268 1027.67 108.886 1027.12 109.476C1026.95 112.874 1027.49 112.314 1025.69 114.574C1013.34 114.461 1001.83 114.033 989.523 115.31C990.393 109.22 990.213 99.4223 990.733 92.5823Z" fill="#971F00"/>
<path d="M990.734 92.5823C996.054 92.5413 1024.16 91.5523 1027.17 93.5743L1026.82 94.5113C1024.9 98.5643 1026.95 110.12 1024.67 113.592C1021.7 111.906 1020.23 106.066 1019.1 105.279C1013.25 101.179 998.284 103.259 991.464 104.061L990.734 92.5823Z" fill="#971F00"/>
<path d="M1027.17 93.5703C1030.31 94.3723 1029.3 93.6713 1031.07 96.3953C1031.6 100.214 1031.01 104.471 1028.67 107.619C1028.18 108.264 1027.67 108.882 1027.12 109.472L1026.82 94.5073L1027.17 93.5703Z" fill="#FDCA4C"/>
<path d="M1005.89 87.9766C1008.49 88.1116 1012.93 87.8666 1014.63 89.1936L1010.98 89.9756C1006.44 90.0936 1003.75 90.3326 999.266 89.3176C1002.66 89.4666 999.236 88.3236 1005.89 87.9766Z" fill="#FDCA4C"/>
<path d="M983.254 173.376C999.884 173.43 1016.5 173.388 1033.13 173.25L1033.07 198.138C1033.11 201.151 1033.56 204.548 1031.82 206.885C1021.83 209.154 998.974 206.091 986.394 208.221L984.514 207.335C982.684 204.537 983.234 202.872 983.094 199.188L983.254 173.376ZM1021.5 196.369C1020.82 194.973 1020.5 193.541 1019.3 193.261C1013.04 191.796 1002.62 192.639 996.034 192.897C996.324 193.78 996.904 196.29 997.584 196.63C1002.12 198.904 1017.14 198.439 1021.5 196.369Z" fill="#F79A15"/>
<path d="M990.344 182.141C990.694 184.182 991.144 185.735 990.734 187.757C995.894 192.158 1019.22 190.616 1026.21 187.525C1026.48 191.298 1026.68 195.878 1027.36 199.534C1030.74 197.769 1029.35 198.06 1033.07 198.142C1033.11 201.155 1033.56 204.552 1031.82 206.889C1021.83 209.158 998.974 206.095 986.394 208.225L984.514 207.339C982.684 204.541 983.234 202.876 983.094 199.192L984.584 196.243C987.194 196.962 986.714 197.236 989.004 196.559C990.984 192.859 990.404 186.56 990.344 182.141ZM1021.5 196.373C1020.82 194.977 1020.5 193.545 1019.3 193.265C1013.04 191.8 1002.62 192.643 996.034 192.901C996.324 193.784 996.904 196.294 997.584 196.634C1002.12 198.908 1017.14 198.443 1021.5 196.373Z" fill="#971F00"/>
<path d="M1027.36 199.531C1030.74 197.766 1029.35 198.057 1033.07 198.139C1033.11 201.152 1033.56 204.549 1031.82 206.886C1021.83 209.155 998.975 206.092 986.395 208.222C990.175 205.986 988.995 207.227 990.745 202.493C995.725 197.251 1017.22 201.14 1026.67 199.647L1027.36 199.531Z" fill="#C94D09"/>
<path d="M996.035 192.898C1002.63 192.64 1013.05 191.797 1019.31 193.262C1020.51 193.542 1020.83 194.974 1021.51 196.37C1017.15 198.44 1002.13 198.905 997.585 196.631C996.905 196.291 996.325 193.781 996.035 192.898Z" fill="#C94D09"/>
<path d="M990.344 182.144L991.134 180.748C996.664 180.652 1022.92 179.902 1026.73 180.597C1026.76 183.571 1026.7 184.597 1026.21 187.528C1019.22 190.619 995.894 192.161 990.734 187.76C991.144 185.738 990.694 184.185 990.344 182.144Z" fill="#971F00"/>
<path d="M906.685 395.244C905.285 392.893 905.365 387.832 906.155 385.227C910.235 383.891 914.485 383.544 918.725 382.938C969.215 375.712 1020.25 370.009 1070.32 360.188C1064.08 364.734 1056.31 369.638 1052.62 376.349C1048 374.134 927.975 393.542 906.685 395.244Z" fill="#971F00"/>
<path d="M925.973 23.4887L1035.86 23.3927C1046.56 23.4347 1086.21 22.7837 1094.43 25.4557C1096.22 28.1037 1097.03 28.3047 1096.99 30.9267C1093.73 31.7567 1094.44 31.4077 1090.8 30.4007C1039.86 30.3237 980.893 31.7407 930.533 29.9897C931.573 28.3837 931.833 27.7287 932.543 25.9437C930.713 23.6697 929.423 24.1087 925.973 23.4887Z" fill="#F79A15"/>
<path d="M1183.41 414.548C1210.85 414.977 1250.26 417.293 1273.49 400.085C1275.31 398.738 1276.78 396.732 1279.04 396.453C1280.62 399.623 1279.5 401.853 1280.52 405.402C1264.38 426.923 1217.99 425.466 1193.72 425.647C1191.81 425.661 1186.71 425.7 1185.05 425.326C1185.89 422.595 1184.18 417.788 1183.41 414.548Z" fill="#971F00"/>
<path d="M1102.55 32.0547C1104.09 43.8767 1101.91 69.7807 1105.73 78.2717L1106.82 78.9427C1111.99 75.8817 1121.76 78.3357 1128.33 77.9357C1129.95 82.3977 1132.91 84.1777 1133.11 86.1947C1132.11 87.4577 1131.23 88.9317 1129.79 89.4387L1141.4 90.0907C1134.85 90.5997 1101.37 88.7207 1099.34 92.6907C1097.23 95.1767 1096.94 96.4397 1094.29 97.0187C1091.69 93.6037 1094.42 88.5747 1090.86 84.1017C1090.38 80.2097 1090.5 79.1007 1091.03 75.1977L1091.14 74.9207C1093.55 68.8907 1093.02 61.5777 1095.7 53.5057L1096.49 53.4987C1097.35 61.6827 1097.3 70.2517 1097.41 78.4997C1098.47 67.7267 1096.59 51.2037 1098.46 41.0497L1101.7 43.9367C1101.88 39.9987 1102.24 35.9907 1102.55 32.0547Z" fill="#971F00"/>
<path d="M1091.03 75.199L1091.14 74.922C1093.55 68.892 1093.02 61.579 1095.7 53.507L1096.49 53.5C1097.35 61.684 1097.3 70.253 1097.41 78.501L1097.48 82.555C1102.05 86.586 1121.51 80.072 1127.68 84.582C1124.95 86.537 1122.42 87.327 1119.3 88.495L1119.53 89.079C1122.72 89.155 1126.69 89.136 1129.79 89.44L1141.4 90.092C1134.85 90.601 1101.37 88.722 1099.34 92.692C1097.23 95.178 1096.94 96.441 1094.29 97.02C1091.69 93.605 1094.42 88.576 1090.86 84.103C1090.38 80.211 1090.5 79.102 1091.03 75.199Z" fill="#FDCA4C"/>
<path d="M1128.32 77.9323C1129.24 62.7113 1127.9 27.0963 1129.89 16.1953C1130.18 21.6753 1128.89 24.3093 1134.44 26.5163C1137.42 34.1473 1134.2 40.9483 1135.16 46.4263C1136.76 46.9923 1137.63 46.9033 1138.11 48.3943C1140.51 55.8583 1139.33 71.7893 1138.99 79.6173L1141.31 77.6183L1141.39 90.0873L1129.78 89.4353C1131.22 88.9283 1132.1 87.4543 1133.1 86.1913C1132.9 84.1743 1129.94 82.3943 1128.32 77.9323Z" fill="#C94D09"/>
<path d="M1135.17 46.4297C1136.77 46.9957 1137.64 46.9067 1138.12 48.3977C1140.52 55.8617 1139.34 71.7927 1139 79.6207C1138.56 81.2647 1138.83 80.6937 1137.1 81.8937C1134.09 78.4447 1135.15 52.6807 1135.17 46.4297Z" fill="#FDCA4C"/>
<path d="M1141.37 40.4959C1140.91 35.3359 1142.2 20.3729 1139.94 17.2379L1136.75 20.0679L1135.75 19.1479C1135.24 15.1859 1135.26 14.3979 1136.21 10.5219C1140.68 6.01592 1164.64 6.18393 1171.58 7.07293C1178.03 7.89793 1219.59 3.27393 1210.25 18.1809C1207.25 17.9969 1207.84 17.7469 1205.02 15.5469C1201.95 13.3279 1148.35 13.6639 1141.3 13.6099C1141.85 19.3119 1141.96 34.7289 1141.37 40.4959Z" fill="#FDCA4C"/>
<path d="M1129.43 405.055C1133.06 407.518 1133.64 407.419 1138.6 406.809C1137.89 407.693 1134.22 412.333 1133.65 412.788C1114.25 436.486 1111.44 435.004 1087.95 416.216C1092.32 416.301 1096.39 415.209 1100.66 414.282C1110.49 422.788 1113.47 422.164 1122.53 413.116L1129.43 405.055Z" fill="#C94D09"/>
<path d="M1129.44 405.055C1133.07 407.518 1133.65 407.419 1138.61 406.809C1137.9 407.693 1134.23 412.333 1133.66 412.788C1130.69 411.63 1126.52 412.823 1122.54 413.116L1129.44 405.055Z" fill="#C94D09"/>
<path d="M1150.73 378.133C1152.79 379.482 1154.47 380.56 1156.62 381.748C1155.28 384.225 1148.14 395.141 1146.12 396.76C1143.69 400.033 1141.11 403.638 1138.6 406.809C1133.64 407.419 1133.06 407.518 1129.43 405.055L1132.74 401.275L1138.5 394.23C1140.99 390.156 1147.56 382.197 1150.73 378.133Z" fill="#C94D09"/>
<path d="M1144.24 395.477L1146.12 396.759C1143.69 400.032 1141.11 403.637 1138.6 406.808C1133.64 407.418 1133.06 407.517 1129.43 405.054L1132.74 401.274L1133.36 401.606C1136.58 401.253 1140.4 397.593 1144.24 395.477Z" fill="#C94D09"/>
<path d="M1077.92 397.453C1085.38 402.958 1093.37 408.645 1100.67 414.284C1096.4 415.211 1092.33 416.303 1087.96 416.218C1081.33 411.684 1073.81 405.812 1067.29 400.944C1069.08 399.893 1075.59 398.145 1077.92 397.453Z" fill="#C94D09"/>
<path d="M1167.7 363.745C1169.68 370.475 1171.57 377.229 1173.39 384.006C1172.69 387.621 1172.58 388.297 1170.13 390.967C1169.99 393.156 1169.96 394.484 1170.07 396.683C1168.72 390.748 1167.13 379.392 1162.68 376.094L1160.47 377.077C1157.82 375.849 1155.36 376.34 1153.5 373.693C1155.47 370.269 1157.56 367.029 1159.68 363.703C1161.22 365.49 1165.05 366.242 1167.1 365.055L1167.7 363.745Z" fill="#C94D09"/>
<path d="M1209.85 82.4128C1209.39 82.2958 1208.27 81.5368 1207.79 81.2388C1204.76 71.1418 1204.42 46.3438 1211.24 37.9688C1211.45 52.7968 1210.98 67.6258 1209.85 82.4128Z" fill="#F79A15"/>
<path d="M1056.66 394.213C1058.22 391.163 1058.61 390.531 1058.54 387.157L1059.43 385.828C1063.53 387.087 1074.23 394.632 1077.91 397.453C1075.58 398.145 1069.07 399.893 1067.28 400.944C1063.61 399.042 1060.1 396.531 1056.66 394.213Z" fill="#971F00"/>
<path d="M925.976 23.4922C929.426 24.1122 930.716 23.6732 932.546 25.9472C931.836 27.7322 931.576 28.3872 930.536 29.9932C926.716 31.1222 925.356 30.7782 925.036 35.6172C924.526 36.1212 921.266 38.4582 920.566 38.9772L918.966 37.8792C916.746 31.7832 920.836 26.3612 925.976 23.4922Z" fill="#FDCA4C"/>
<path d="M1173.38 384.008C1175.16 392.621 1176.92 400.873 1176.93 409.728C1174.48 409.979 1174.88 409.719 1172.35 408.548L1170.06 396.685C1169.95 394.486 1169.98 393.158 1170.12 390.969C1172.57 388.299 1172.68 387.623 1173.38 384.008Z" fill="#C94D09"/>
<path d="M1159.68 363.706C1160.89 361.265 1162.75 356.439 1165.02 355.516C1166.86 357.591 1167.17 360.937 1167.7 363.748L1167.1 365.058C1165.05 366.245 1161.22 365.493 1159.68 363.706Z" fill="#971F00"/>
<path d="M1224.87 174.918C1227.5 171.048 1228.12 169.869 1229.94 165.586L1228.31 266.718C1228.14 273.86 1225.7 291.326 1226.35 296.547C1226.12 299.426 1225.88 304.122 1225.23 306.789C1224.56 299.189 1224.64 294.097 1223.65 285.878L1223.32 291.57C1222.65 286.717 1222.66 277.899 1221.92 274.804C1221.36 265.093 1222.8 241.301 1223.14 230.239C1223.79 215.275 1223.62 200.324 1224.28 185.327L1224.87 174.918Z" fill="#C94D09"/>
<path d="M1205.52 156.32C1213.45 156.41 1221.84 156.652 1229.73 156.49C1229.8 159.382 1229.98 162.74 1229.94 165.585C1228.12 169.868 1227.5 171.047 1224.87 174.917L1224.28 185.326C1221.41 182.799 1220.42 181.594 1216.56 181.515C1211.78 182.926 1211.01 185.365 1210.04 190.005C1209.26 184.385 1210.59 177.081 1210.62 170.53L1206.44 171.16C1204.13 167.038 1205.23 161.443 1205.52 156.32Z" fill="#971F00"/>
<path d="M1210.63 170.534C1213.94 166.225 1219.3 166.847 1223.71 169.349C1224.8 171.445 1224.73 172.618 1224.88 174.921L1224.29 185.33C1221.42 182.803 1220.43 181.598 1216.57 181.519C1211.79 182.93 1211.02 185.369 1210.05 190.009C1209.27 184.389 1210.6 177.085 1210.63 170.534Z" fill="#785843"/>
<path d="M1205.52 156.32C1213.45 156.41 1221.84 156.652 1229.73 156.49C1229.39 160.846 1230.01 161.767 1227.47 164.161C1224.31 164.753 1218.93 161.61 1215.73 160.108C1212.88 161.119 1210.5 162.047 1207.71 163.244C1205.65 161.684 1206 159.502 1205.52 156.32Z" fill="#971F00"/>
<path d="M1221.93 274.805C1222.67 277.9 1222.66 286.718 1223.33 291.571L1223.66 285.879C1224.65 294.098 1224.57 299.19 1225.24 306.79C1224.84 313.056 1224.37 322.701 1223.03 328.606C1220.85 327.492 1219.95 327.19 1217.66 326.458L1218.23 321.647C1220.86 310.423 1219.64 283.621 1221.93 274.805Z" fill="#C94D09"/>
<path d="M1226.35 296.547C1230.68 302.093 1229.06 321.525 1225.76 327.924C1224.03 328.836 1224.43 328.991 1223.02 328.605C1224.36 322.7 1224.83 313.055 1225.23 306.789C1225.88 304.122 1226.12 299.426 1226.35 296.547Z" fill="#F79A15"/>
<path d="M920.286 281.367C925.976 286.673 923.106 299.003 920.346 305.25L919.656 305.204C919.146 298.371 918.356 287.93 920.286 281.367Z" fill="#F79A15"/>
<path d="M1358.66 52.0916C1358.96 39.5816 1361.11 30.7536 1375.62 30.0936C1398.99 29.0326 1422.33 28.1276 1445.68 26.6646C1502.45 23.2146 1559.13 18.3496 1615.66 12.0716C1641.24 9.06059 1665.17 3.82858 1690.29 0.0835788C1702.1 -1.67542 1709.48 24.8176 1711.89 33.6396C1715.7 47.5396 1732.07 77.3286 1718.99 88.5186C1718.22 89.1906 1717.41 89.8066 1716.56 90.3626C1708.5 94.9886 1634.09 102.756 1619.01 104.408C1613.16 105.049 1600.81 105.747 1594.58 107.376C1594.02 108.018 1593.57 108.549 1593.2 108.968L1592.98 110.367C1590.99 112.636 1589.81 113.937 1588.24 116.497L1587.85 121.681L1588.58 124.247C1590.79 124.814 1592.5 124.364 1594.06 122.433C1626.48 121.04 1659.53 122.215 1692.01 121.711C1699.22 121.599 1712.9 121.511 1718.9 125.692C1723.24 131.617 1725.06 141.834 1723.65 148.745C1720.66 163.431 1729.47 198.526 1716.95 207.638C1716.08 208.283 1715.16 208.874 1714.21 209.41C1706.55 211.577 1688.55 210.501 1679.61 210.851C1652.1 211.929 1620.38 209.802 1593.29 211.141L1593.64 221.647C1598.89 221.676 1606.91 221.452 1611.91 221.771L1694.08 221.519C1708.38 221.496 1722.93 221.51 1736.8 221.796C1752.58 222.123 1757.04 231.529 1755.7 245.98C1754.23 261.734 1760.07 295.505 1750.12 307.506C1736.32 314.467 1654.2 307.879 1633.89 310.133C1630.4 310.521 1611.98 310.287 1608.43 310.042L1592.97 310C1593.17 336.62 1595.78 368.936 1584.74 393.237C1580.08 402.313 1574.8 409.56 1566.08 415.244C1541.37 431.189 1508.54 428.71 1480.29 429.454C1472.26 429.666 1451.98 430.48 1445.46 426.624C1439.35 418.199 1439.01 412.35 1436.97 402.188C1438.94 402.55 1439.22 402.465 1441.16 401.933C1442.53 396.529 1438.72 384.568 1436.51 379.613C1434.58 380.793 1433.76 381.118 1431.45 381.182C1416.53 328.719 1444.94 342.345 1482.99 342.014C1501.61 341.851 1503.27 343.272 1503.55 324.2L1503.31 310.251L1400.2 310.248C1382.58 310.273 1359.63 310.918 1342.42 309.873C1335.7 306.415 1330.07 298.045 1331.03 290.877C1333.08 275.507 1327.32 239.678 1334.8 227.352L1335.08 226.888C1337.33 223.214 1346.9 221.797 1350.94 221.742C1390.14 221.214 1429.39 221.907 1468.61 221.663C1478.84 221.599 1490.26 221.288 1500.39 222.166L1502.59 221.358C1504.54 218.515 1503.81 214.562 1503.6 210.993L1421.18 211.202C1411.88 211.213 1370.68 213.142 1367.12 204.994C1362.47 194.32 1362.57 144.109 1364.8 132.742C1368.86 125.596 1372.39 122.69 1380.98 122.469C1387.82 122.645 1394.68 122.732 1401.52 122.73C1433.84 121.517 1467.56 123.96 1499.99 122.217C1502.26 122.094 1503.37 120.339 1504.39 118.63L1503.61 116.317C1495.29 108.197 1446.52 118.225 1429.46 116.261L1429.16 116.225C1417.69 115.851 1396.84 117.031 1384.28 117.155C1371.73 114.709 1371.33 99.4336 1367.96 89.1726L1372.61 88.2546C1374.84 84.4576 1369.72 69.8506 1368.32 64.3556C1366.2 66.9986 1365.04 68.2676 1363.66 71.3446C1362.03 64.9176 1360.36 58.4996 1358.66 52.0916Z" fill="#FBF8F3"/>
<path d="M1358.66 52.0916C1358.96 39.5816 1361.11 30.7536 1375.62 30.0936C1398.99 29.0326 1422.33 28.1276 1445.68 26.6646C1502.45 23.2146 1559.13 18.3496 1615.66 12.0716C1641.24 9.06059 1665.17 3.82858 1690.29 0.0835788C1702.1 -1.67542 1709.48 24.8176 1711.89 33.6396C1715.7 47.5396 1732.07 77.3286 1718.99 88.5186C1718.22 89.1906 1717.41 89.8066 1716.56 90.3626C1708.5 94.9886 1634.09 102.756 1619.01 104.408C1613.16 105.049 1600.81 105.747 1594.58 107.376C1594.02 108.018 1593.57 108.549 1593.2 108.968L1592.98 110.367C1590.99 112.636 1589.81 113.937 1588.24 116.497L1587.85 121.681C1584.12 120.713 1582.85 121.113 1580.89 118.461L1580.97 88.4276C1594.41 86.5966 1611.59 85.6726 1625.47 84.2986C1654.89 81.4946 1684.22 77.7626 1713.4 73.1096C1705.74 51.6486 1698.34 30.0946 1691.21 8.45258C1683.84 11.7816 1662.5 15.2336 1654.11 16.6936C1601.59 25.8236 1547.62 29.5916 1494.46 33.4956C1455.97 36.3226 1415.59 39.5476 1377.05 39.8086C1374.81 40.1196 1370.44 40.5186 1368.6 41.4376C1372.89 52.6026 1381.92 88.1146 1383.96 99.3846C1393.21 98.4286 1402.34 98.2516 1411.6 97.7886C1446.38 96.0496 1481.44 95.0346 1516.17 92.5116C1516.07 105.851 1516.04 119.191 1516.1 132.53L1375.39 132.511C1375.81 140.209 1375.05 188.639 1376.62 190.835C1379.79 191.827 1381.34 191.699 1384.68 191.711L1515.83 191.493C1515.99 204.93 1516.06 218.367 1516.02 231.805L1401.29 231.827C1384.31 231.824 1359.56 231.085 1343.18 231.93C1343.18 242.655 1343.8 280.21 1342.6 288.759L1341.73 290.83C1338.8 288.216 1339.76 272.853 1337.34 266.9C1335.94 269.396 1336.3 273.597 1336.29 276.602C1335.95 285.344 1333.35 295.245 1342.91 298.932C1346.69 299.498 1349.05 299.577 1352.81 299.671C1349.79 299.886 1347.79 300.036 1344.83 300.621C1343.05 302.717 1342.67 306.907 1342.42 309.873C1335.7 306.415 1330.07 298.045 1331.03 290.877C1333.08 275.507 1327.32 239.678 1334.8 227.352L1335.08 226.888C1337.33 223.214 1346.9 221.797 1350.94 221.742C1390.14 221.214 1429.39 221.907 1468.61 221.663C1478.84 221.599 1490.26 221.288 1500.39 222.166L1502.59 221.358C1504.54 218.515 1503.81 214.562 1503.6 210.993L1421.18 211.202C1411.88 211.213 1370.68 213.142 1367.12 204.994C1362.47 194.32 1362.57 144.109 1364.8 132.742C1368.86 125.596 1372.39 122.69 1380.98 122.469C1387.82 122.645 1394.68 122.732 1401.52 122.73C1433.84 121.517 1467.56 123.96 1499.99 122.217C1502.26 122.094 1503.37 120.339 1504.39 118.63L1503.61 116.317C1495.29 108.197 1446.52 118.225 1429.46 116.261L1429.16 116.225C1417.69 115.851 1396.84 117.031 1384.28 117.155C1371.73 114.709 1371.33 99.4336 1367.96 89.1726L1372.61 88.2546C1374.84 84.4576 1369.72 69.8506 1368.32 64.3556C1366.2 66.9986 1365.04 68.2676 1363.66 71.3446C1362.03 64.9176 1360.36 58.4996 1358.66 52.0916Z" fill="#C94D09"/>
<path d="M1364.8 132.742C1364.95 139.561 1365.33 143.081 1366.4 149.834L1366.61 148.962C1367.98 161.658 1367.24 173.232 1367.3 185.966C1367.31 190.056 1363.34 190.587 1367.38 194.352C1374.65 201.121 1381.8 199.908 1391.91 199.747C1430.89 199.124 1470.27 200.16 1509.28 199.367C1509.05 205.288 1509.35 217.586 1508.07 222.306L1506.38 223.7C1505.08 223.448 1501.27 222.889 1500.39 222.166L1502.6 221.358C1504.55 218.515 1503.82 214.562 1503.61 210.993L1421.18 211.202C1411.88 211.213 1370.69 213.142 1367.13 204.994C1362.47 194.32 1362.57 144.109 1364.8 132.742Z" fill="#971F00"/>
<path d="M1429.15 116.225C1417.03 115.792 1400.63 114.254 1389.06 114.962C1386.05 113.816 1384.34 111.506 1384.46 108.229C1386.13 106.788 1390.08 106.462 1392.29 106.399C1422.49 105.533 1452.65 104.335 1482.8 102.418C1491.16 101.886 1499.77 100.889 1508.11 101.223C1509.64 102.955 1509.25 106.757 1509.25 109.233V110.975L1508.98 123.986C1495.14 124.154 1409.54 125.617 1401.51 122.73C1433.83 121.517 1467.56 123.96 1499.99 122.217C1502.26 122.094 1503.36 120.339 1504.38 118.63L1503.61 116.317C1495.29 108.197 1446.51 118.225 1429.45 116.261L1429.15 116.225Z" fill="#971F00"/>
<path d="M1588.16 95.8461C1597.59 95.6501 1612.47 93.7881 1622.11 92.7931C1653.62 89.4201 1685.03 85.2211 1716.32 80.2031C1717.66 83.7591 1714.4 85.9331 1716.55 90.3611C1708.49 94.9871 1634.08 102.754 1619 104.406C1613.15 105.047 1600.81 105.745 1594.58 107.374C1594.02 108.016 1593.56 108.547 1593.19 108.966L1592.98 110.365C1590.99 112.634 1589.81 113.935 1588.24 116.495L1588.16 95.8461Z" fill="#971F00"/>
<path d="M1384.67 191.71L1515.82 191.492C1515.59 194.467 1515.6 196.613 1514.44 199.361C1512.01 199.724 1509.57 197.408 1507.02 195.773C1491.59 196.14 1383.41 197.183 1377.66 193.375C1379.3 191.861 1382.35 191.91 1384.67 191.71Z" fill="#971F00"/>
<path d="M1368.61 41.4409C1367.08 42.0849 1366.96 42.3479 1365.79 43.5819L1365.93 47.1759L1364.91 48.0609C1363.66 46.3999 1362.98 42.5069 1363.12 40.4499C1363.73 31.5329 1381.33 33.7509 1386.25 34.0349C1385.1 35.6029 1381.12 35.4129 1377.05 39.8119C1374.81 40.1229 1370.45 40.5219 1368.61 41.4409Z" fill="#FDCA4C"/>
<path d="M1358.66 52.091C1366.99 51.286 1366.53 57.032 1368.32 64.355C1366.2 66.998 1365.04 68.267 1363.66 71.344C1362.03 64.917 1360.36 58.499 1358.66 52.091Z" fill="#C94D09"/>
<path d="M1509.25 109.231L1510.71 104.281L1512.14 104.395C1514.66 108.944 1515.62 113.517 1511.89 117.588L1510.56 117.487L1509.25 110.973V109.231Z" fill="#FDCA4C"/>
<path d="M1580.89 118.461C1582.85 121.113 1584.13 120.713 1587.86 121.681L1588.58 124.247C1590.79 124.814 1592.5 124.364 1594.06 122.433C1626.48 121.04 1659.53 122.215 1692.01 121.711C1699.22 121.599 1712.9 121.511 1718.9 125.692C1723.24 131.617 1725.06 141.834 1723.65 148.745C1720.66 163.431 1729.47 198.526 1716.95 207.638C1716.08 208.283 1715.17 208.874 1714.22 209.41C1706.56 211.577 1688.56 210.501 1679.62 210.851C1652.11 211.929 1620.38 209.802 1593.29 211.141L1593.64 221.647C1598.89 221.676 1606.91 221.452 1611.91 221.771L1694.08 221.519C1708.38 221.496 1722.93 221.51 1736.8 221.796C1752.58 222.123 1757.04 231.529 1755.7 245.98C1754.23 261.734 1760.08 295.505 1750.13 307.506C1736.33 314.467 1654.2 307.879 1633.89 310.133C1630.4 310.521 1611.98 310.287 1608.43 310.042L1592.98 310C1593.18 336.62 1595.79 368.936 1584.75 393.237C1580.09 402.313 1574.81 409.56 1566.09 415.244C1541.38 431.189 1508.54 428.71 1480.29 429.454C1472.26 429.666 1451.99 430.48 1445.47 426.624C1439.36 418.199 1439.02 412.35 1436.98 402.188C1438.95 402.55 1439.22 402.465 1441.16 401.933C1442.53 396.529 1438.72 384.568 1436.51 379.613C1434.58 380.793 1433.76 381.118 1431.45 381.182C1416.53 328.719 1444.95 342.345 1483 342.014C1501.62 341.851 1503.27 343.272 1503.55 324.2C1505.16 322.33 1504.03 317.979 1505.9 315.748C1508.74 312.366 1508.96 310.883 1509.09 306.577L1509.41 302.71C1513.91 304.384 1513.91 307.397 1514.66 311.584L1515.94 301.341L1515.97 333.316C1513.39 352.784 1497.22 351.747 1481.54 351.712C1466.37 351.677 1451.15 351.246 1435.98 350.972C1441.34 367.738 1448.5 393.349 1451.52 410.021C1481.41 409.651 1544.93 414.433 1565.93 393.827C1582.6 377.484 1580.6 350.353 1580.65 329.275L1580.78 291.366C1632.8 289.922 1691.24 291.208 1743.73 291.198C1744.37 275.934 1742.65 248.03 1744.7 234.316L1742.96 231.283C1729.59 232.519 1701.61 231.719 1687.56 231.726L1580.85 231.72L1580.94 191.444L1711.62 191.347C1711.79 171.655 1711.85 151.962 1711.78 132.269L1580.81 132.509C1580.97 128.02 1580.87 122.998 1580.89 118.461Z" fill="#C94D09"/>
<path d="M1598.21 299.555C1617.77 300.449 1639.01 299.703 1658.69 299.746C1688.24 299.809 1718.22 300.11 1747.73 299.07C1749.55 301.398 1749.69 304.534 1750.12 307.507C1736.32 314.468 1654.19 307.88 1633.88 310.134C1630.39 310.522 1611.97 310.288 1608.42 310.043C1603.19 308.948 1595.52 310.64 1592.11 307.997C1592.37 305.017 1596 301.901 1598.21 299.555Z" fill="#971F00"/>
<path d="M1587.9 199.351C1627.84 200.546 1674.09 199.863 1714.26 199.219C1716.24 202.377 1715.01 205.371 1714.22 209.41C1706.56 211.577 1688.56 210.501 1679.62 210.851C1652.11 211.929 1620.38 209.802 1593.29 211.141L1593.64 221.647C1598.89 221.676 1606.91 221.452 1611.91 221.771C1610.12 223.14 1590.99 223.761 1588.26 221.392C1587.23 219.346 1588.22 204.599 1587.9 199.351Z" fill="#971F00"/>
<path d="M1566.66 403.852C1565.75 407.134 1563.81 412.25 1566.08 415.243C1541.37 431.188 1508.53 428.709 1480.28 429.453C1472.25 429.665 1451.98 430.479 1445.46 426.623C1448.53 422.828 1448.03 424.494 1447.84 420.013C1449.37 417.795 1450.02 417.871 1453.04 417.836C1490.5 417.391 1533.42 424.44 1566.66 403.852Z" fill="#971F00"/>
<path d="M1742.96 231.283C1742.03 229.633 1740.16 226.916 1738.07 226.834C1697.52 225.256 1656.11 227.927 1615.38 226.702C1610.59 226.558 1594.71 226.729 1592.11 225.882C1596.32 222.661 1723.67 225.602 1740.42 224.814C1748.3 224.443 1750.62 227.629 1751.26 235.335L1750.91 242.067L1749.52 248.751L1747.75 248.09C1746.03 245.837 1746.26 237.948 1746.06 234.497L1744.7 234.316L1742.96 231.283Z" fill="#F79A15"/>
<path d="M1566.66 403.855C1569.38 401.414 1580.37 388.488 1581.67 388.055L1584.74 393.239C1580.08 402.315 1574.8 409.562 1566.08 415.246C1563.81 412.253 1565.75 407.137 1566.66 403.855Z" fill="#C94D09"/>
<path d="M1515.94 301.344L1515.97 333.319C1515.8 331.748 1515.49 331.287 1514.84 329.828C1513.2 331.162 1513.25 334.306 1509.76 338.093C1508.97 330.141 1509.33 315.389 1509.09 306.58L1509.41 302.713C1513.91 304.387 1513.91 307.4 1514.66 311.587L1515.94 301.344Z" fill="#F79A15"/>
<path d="M1751.25 235.336C1756.11 239.198 1754.88 247.592 1752.79 252.917C1751.54 250.38 1750.86 244.905 1750.9 242.068L1751.25 235.336Z" fill="#971F00"/>
<path d="M1352.8 299.671L1447.65 299.578C1466.58 299.575 1487.93 300.008 1506.66 299.078C1509.3 300.731 1508.58 299.755 1509.4 302.71L1509.08 306.577C1508.95 310.883 1508.73 312.366 1505.89 315.748C1504.02 317.979 1505.15 322.33 1503.54 324.2L1503.3 310.251L1400.19 310.248C1382.57 310.273 1359.62 310.918 1342.41 309.873C1342.66 306.907 1343.04 302.717 1344.82 300.621C1347.78 300.036 1349.78 299.886 1352.8 299.671Z" fill="#971F00"/>
<path d="M1336.28 276.6C1336.29 273.595 1335.94 269.394 1337.34 266.898C1339.76 272.851 1338.8 288.214 1341.73 290.828L1342.6 288.757L1343.51 292.075C1354.62 290.523 1388.15 291.295 1400.99 291.293L1515.9 291.348L1515.93 301.339L1514.65 311.582C1513.9 307.395 1513.9 304.382 1509.4 302.708C1508.58 299.753 1509.3 300.729 1506.66 299.076C1487.93 300.006 1466.58 299.573 1447.65 299.576L1352.8 299.669C1349.04 299.575 1346.68 299.496 1342.9 298.93C1333.34 295.243 1335.94 285.342 1336.28 276.6Z" fill="#C94D09"/>
<path d="M1336.28 276.6C1336.29 273.595 1335.94 269.394 1337.34 266.898C1339.76 272.851 1338.8 288.214 1341.73 290.828L1342.6 288.757L1343.51 292.075L1344.32 294.201C1350.86 295.946 1371.67 295.791 1378.82 295.81L1442.5 295.917C1457.9 295.821 1493.1 294.281 1506.15 297.898L1506.66 299.076C1487.93 300.006 1466.58 299.573 1447.65 299.576L1352.8 299.669C1349.04 299.575 1346.68 299.496 1342.9 298.93C1333.34 295.243 1335.94 285.342 1336.28 276.6Z" fill="#F79A15"/>
<path d="M1336.28 276.599L1337.35 272.391C1339.08 278.469 1336.69 291.53 1342.46 297.449C1342.91 297.914 1342.9 298.321 1342.9 298.929C1333.34 295.242 1335.94 285.341 1336.28 276.599Z" fill="#FDCA4C"/>
<path d="M30.9576 224.525C34.4276 219.157 31.2226 216.367 33.8966 212.421L35.5956 212.195C36.5276 214.31 35.5326 355.153 35.3746 370.34C35.2956 377.938 33.6546 402.455 35.4096 408.415C36.1126 410.803 39.4086 413.588 41.6556 414.474C41.9986 414.609 42.3466 414.729 42.6976 414.841C42.7916 417.848 43.1206 422.641 42.5856 425.452C36.3326 422.528 34.9526 420.507 31.3096 415.021C29.7776 401.812 30.6926 365.852 30.6966 350.923L30.9576 224.525Z" fill="#C94D09"/>
<path d="M1217.84 21.7969C1216.86 29.8389 1216.37 69.4429 1218.11 79.5239C1218.17 79.8609 1219.37 80.0339 1219.92 80.1709C1216.64 82.1889 1215.94 82.4689 1212.14 83.1209L1209.86 82.4079C1210.99 67.6209 1211.46 52.7919 1211.25 37.9639C1211.83 35.0259 1212.46 25.7059 1212.79 22.2599C1214.87 22.5179 1215.8 22.6199 1217.84 21.7969Z" fill="#971F00"/>
<path d="M518.6 372.513C521.62 371.691 526.125 369.944 528.776 371.071C523.784 377.789 517.637 395.94 512.855 405.146C512.509 404.073 512.119 403.657 511.499 402.71L506.832 402.025C507.257 399.408 517.17 375.947 518.6 372.513Z" fill="#C94D09"/>
<path d="M529.887 372.695C531.027 367.385 529.995 366.739 533.528 364.055C535.783 371.294 544.002 383.94 547.676 392.665C545.483 394.709 543.213 395.252 540.316 394.509C537.439 389.842 532.419 378.201 529.887 372.695Z" fill="#C94D09"/>
<path d="M527.973 110.094C530.049 111.598 533.36 114.19 535.571 115.165C538.989 116.109 538.296 115.384 540.221 117.823C538.829 123.974 535.469 122.791 531.823 125.455C526.204 121.77 522.459 119.141 517.254 114.915C519.893 112.913 524.642 111.481 527.973 110.094Z" fill="#971F00"/>
<path d="M510.46 96.7422C516.266 100.981 522.587 105.397 527.971 110.096C524.64 111.483 519.891 112.915 517.252 114.917C514.433 113.121 506.552 106.522 503.535 104.134C505.852 101.154 508.481 100.987 511.94 101.429L512.587 101.519C511.956 99.6692 511.32 98.4682 510.46 96.7422Z" fill="#971F00"/>
<path d="M506.833 402.031L511.5 402.716C512.12 403.663 512.51 404.079 512.856 405.152C509.048 414.42 505.913 422.272 494.246 421.394C496.116 414.729 493.998 416.902 494.372 411.585C502.997 410.788 503.84 409.808 506.833 402.031Z" fill="#C94D09"/>
<path d="M554.941 408.039C557.84 417.402 559.586 419.182 569.78 419.119C564.667 420.062 565.921 419.074 563.153 422.496C562.811 424.346 562.007 427.649 562.366 429.34C554.12 425.387 551.921 417.824 548.371 409.747C550.487 408.829 552.678 408.494 554.941 408.039Z" fill="#C94D09"/>
<path d="M1368.32 64.3516C1369.72 69.8466 1374.85 84.4536 1372.62 88.2506L1367.97 89.1686L1363.66 71.3406C1365.04 68.2636 1366.2 66.9946 1368.32 64.3516Z" fill="#C94D09"/>
<path d="M1431.45 381.178C1433.76 381.114 1434.58 380.789 1436.51 379.609C1438.72 384.564 1442.53 396.525 1441.16 401.929C1439.22 402.461 1438.95 402.546 1436.98 402.184C1434.83 395.057 1433.2 388.391 1431.45 381.178Z" fill="#C94D09"/>
<path d="M547.676 392.664C549.909 398.583 552.728 402.805 554.942 408.042C552.679 408.497 550.488 408.832 548.372 409.75C547.472 409.009 541.334 396.512 540.316 394.508C543.213 395.251 545.483 394.708 547.676 392.664Z" fill="#C94D09"/>
<path d="M1172.36 408.547C1174.89 409.718 1174.49 409.978 1176.94 409.727C1180.23 411.496 1180.81 411.896 1183.42 414.548C1184.19 417.788 1185.9 422.595 1185.06 425.326C1176.15 422.289 1174.15 417.029 1172.36 408.547Z" fill="#C94D09"/>
<path d="M540.222 114.117C543.98 119.423 543.615 115.847 548.458 119.338C543.182 124.546 539.67 127.996 531.82 125.455C535.466 122.791 538.826 123.974 540.218 117.823C538.293 115.384 538.986 116.109 535.568 115.165L540.222 114.117Z" fill="#971F00"/>
<path d="M1592.99 110.367C1593.1 112.637 1593.25 120.844 1594.06 122.433C1592.5 124.364 1590.79 124.814 1588.58 124.247L1587.86 121.681L1588.25 116.497C1589.82 113.937 1591 112.636 1592.99 110.367Z" fill="#971F00"/>
<path d="M1153.49 373.695C1155.35 376.342 1157.81 375.851 1160.46 377.079L1156.62 381.745C1154.47 380.557 1152.79 379.479 1150.73 378.13C1151.15 376.898 1152.69 374.852 1153.49 373.695Z" fill="#C94D09"/>
</svg>
