<svg width="1444" height="153" viewBox="0 0 1444 153" fill="none" xmlns="http://www.w3.org/2000/svg">
<path d="M0 131.235L15.9425 111.41C22.8366 116.582 36.6247 125.848 58.5995 127.356C78.6353 128.649 92.208 123.693 92.208 107.746C92.208 78.4394 4.52422 97.1873 4.52422 42.4521C4.52422 12.7141 34.0394 0 59.8921 0C80.1434 0 102.334 6.4648 116.337 20.6873L100.179 40.7282C97.1631 37.4958 84.2367 25.2127 61.8311 24.3507C41.5798 23.4887 31.0233 30.6 31.0233 42.4521C31.0233 73.2676 118.922 52.3648 118.922 108.177C118.922 128.865 102.118 153 63.77 153C40.0717 153 16.5888 146.966 0 131.235Z" fill="#265687"/>
<path d="M174.58 127.141H267.434V151.923H149.158V1.07746H266.357V24.5662H174.58V62.7085H257.955V87.2747H174.58V127.141Z" fill="#265687"/>
<path d="M403.158 1.07746V24.5662H356.623V151.923H331.201V24.5662H284.666V1.07746H403.158Z" fill="#265687"/>
<path d="M487.246 153C449.975 153 423.692 132.528 423.692 94.8169V1.07746H449.329V95.2479C449.329 118.737 466.133 127.787 486.815 127.787C507.497 127.787 522.578 118.737 522.578 95.2479V1.07746H548V94.8169C548 132.528 519.777 153 487.246 153Z" fill="#265687"/>
<path d="M665.155 44.2659L670.51 37.6115C672.826 39.3475 677.458 42.4577 684.839 42.964C691.57 43.3979 696.129 41.7344 696.129 36.3819C696.129 26.5451 666.675 32.8378 666.675 14.466C666.675 4.48445 676.589 0.216987 685.274 0.216987C692.076 0.216987 699.53 2.38689 704.234 7.16066L698.807 13.8873C697.793 12.8024 693.451 8.67959 685.925 8.39027C679.122 8.10095 675.576 10.4878 675.576 14.466C675.576 24.8092 705.103 17.7932 705.103 36.5266C705.103 43.4703 699.458 51.5712 686.576 51.5712C678.616 51.5712 670.727 49.546 665.155 44.2659Z" fill="#FF9933"/>
<path d="M728.575 43.6873H733.496V51.2096H726.259C720.47 51.2096 715.332 46.7974 715.332 38.1179V22.4946H709.108V15.6956C714.101 15.6956 715.766 13.2364 715.766 9.25822V4.55678H723.871V15.3339H731.976V22.4946H723.871V38.1902C723.871 41.8067 725.318 43.6873 728.575 43.6873Z" fill="#FF9933"/>
<path d="M764.186 15.0446H772.725V51.2096H764.909L764.547 47.0868C762.232 49.6906 758.83 51.5712 754.126 51.5712C744.139 51.5712 740.376 44.5552 740.376 37.9009V15.0446H748.916V37.2499C748.916 41.228 750.074 44.2659 755.646 44.2659C759.988 44.2659 764.186 39.9261 764.186 34.212V15.0446Z" fill="#FF9933"/>
<path d="M807.826 0H816.366V51.1372H808.55L807.899 47.7377C805.655 50.0523 802.399 51.4266 797.912 51.5712C788.793 51.8605 780.688 45.3508 780.688 32.9824C780.688 22.4223 787.78 14.683 797.478 14.683C802.109 14.683 805.511 16.0572 807.826 18.4441V0ZM798.997 43.9042C803.701 43.8319 807.826 40.0708 807.826 33.6334V32.2591C807.826 25.7494 803.774 22.0606 799.142 22.0606C793.425 22.0606 789.3 25.4601 789.372 32.9824C789.445 40.2154 793.425 43.9766 798.997 43.9042Z" fill="#FF9933"/>
<path d="M843.833 51.5712C832.326 51.4989 824.438 44.3382 824.293 33.5611C824.148 21.7713 831.964 14.683 842.602 14.683C855.339 14.683 860.984 23.6519 859.826 34.9353H833.484C834.208 41.0834 838.477 43.8319 843.905 43.9042C848.32 43.9766 851.431 41.228 853.096 39.0581L859.103 44.1936C856.425 47.6654 851.359 51.6436 843.833 51.5712ZM833.773 28.7873H850.708C850.635 24.2305 846.872 21.9883 842.602 21.9883C838.694 21.9883 835.076 24.1582 833.773 28.7873Z" fill="#FF9933"/>
<path d="M886.548 14.683C896.535 14.683 900.298 21.699 900.298 28.3533V51.2096H891.758V29.0043C891.758 25.0261 890.6 21.9883 885.028 21.9883C880.686 21.9883 876.489 24.2305 876.489 29.9446V51.2096H867.949V15.0446H875.765L876.199 18.7334C878.66 16.1296 882.133 14.683 886.548 14.683Z" fill="#FF9933"/>
<path d="M924.833 43.6873H929.754V51.2096H922.517C916.728 51.2096 911.59 46.7974 911.59 38.1179V22.4946H905.366V15.6956C910.359 15.6956 912.024 13.2364 912.024 9.25822V4.55678H920.129V15.3339H928.235V22.4946H920.129V38.1902C920.129 41.8067 921.577 43.6873 924.833 43.6873Z" fill="#FF9933"/>
<path d="M967.125 42.8916H998.316V51.2096H958.585V0.578636H997.954V8.4626H967.125V21.265H995.132V29.5106H967.125V42.8916Z" fill="#000080"/>
<path d="M1048.1 14.683C1057.22 14.683 1060.99 21.699 1060.99 28.3533V51.2096H1052.45V29.0043C1052.45 25.0261 1051.29 21.9883 1046.58 21.9883C1043.18 21.9883 1038.99 24.2305 1038.99 29.9446V51.2096H1030.45V29.0043C1030.45 25.0261 1029.29 21.9883 1024.58 21.9883C1021.18 21.9883 1016.99 24.2305 1016.99 29.9446V51.2096H1008.45V15.0446H1016.26L1016.7 18.6611C1019.08 16.1296 1022.41 14.683 1026.1 14.683C1031.6 14.683 1035.15 17.2145 1037.1 20.6863C1039.57 16.9252 1043.47 14.683 1048.1 14.683Z" fill="#000080"/>
<path d="M1090.54 14.683C1099.65 14.683 1106.75 21.5543 1106.6 32.9824C1106.46 44.6275 1099.29 51.5712 1089.89 51.5712C1085.18 51.5712 1081.71 50.2693 1079.32 47.8824V66.7605H1070.78V15.0446H1078.89L1079.25 18.8781C1081.92 16.1296 1085.69 14.683 1090.54 14.683ZM1097.56 32.9824C1097.63 25.4601 1093.79 21.699 1088 22.0606C1083.37 22.3499 1079.32 25.7494 1079.32 32.2591V33.6334C1079.32 40.0708 1083.3 43.6873 1088 43.9042C1093.5 44.1936 1097.48 40.2154 1097.56 32.9824Z" fill="#000080"/>
<path d="M1130.74 51.5712C1120.46 51.5712 1112.43 43.4703 1112.43 33.1994C1112.43 22.9286 1120.46 14.683 1130.74 14.683C1141.01 14.683 1149.04 22.9286 1149.04 33.1994C1149.04 43.4703 1141.01 51.5712 1130.74 51.5712ZM1130.81 43.9042C1135.8 43.9042 1140 39.6368 1139.93 32.9101C1139.85 26.2558 1135.8 22.0606 1130.81 22.0606C1125.74 22.0606 1121.54 26.2558 1121.62 32.9101C1121.69 39.6368 1125.74 43.9042 1130.81 43.9042Z" fill="#000080"/>
<path d="M1196.53 15.0446H1205.43L1193.56 51.2096H1185.82L1178.66 29.4383L1171.13 51.2096H1163.39L1151.95 15.0446H1161.21L1167.37 38.3348L1175.62 15.0446H1182.2L1189.8 38.3348L1196.53 15.0446Z" fill="#000080"/>
<path d="M1227.16 51.5712C1215.65 51.4989 1207.77 44.3382 1207.62 33.5611C1207.48 21.7713 1215.29 14.683 1225.93 14.683C1238.67 14.683 1244.31 23.6519 1243.16 34.9353H1216.81C1217.54 41.0834 1221.81 43.8319 1227.23 43.9042C1231.65 43.9766 1234.76 41.228 1236.42 39.0581L1242.43 44.1936C1239.75 47.6654 1234.69 51.6436 1227.16 51.5712ZM1217.1 28.7873H1234.04C1233.96 24.2305 1230.2 21.9883 1225.93 21.9883C1222.02 21.9883 1218.4 24.1582 1217.1 28.7873Z" fill="#000080"/>
<path d="M1271.03 14.683C1271.54 14.683 1272.41 14.7553 1273.21 14.8276L1273.13 23.7242C1262.78 22.5669 1259.82 27.4854 1259.82 33.9951V51.2096H1251.28V15.0446H1259.38L1259.75 20.1077H1260.32C1260.32 19.9631 1264.38 14.683 1271.03 14.683Z" fill="#000080"/>
<path d="M1319.35 14.683C1328.47 14.683 1332.23 21.699 1332.23 28.3533V51.2096H1323.69V29.0043C1323.69 25.0261 1322.53 21.9883 1317.83 21.9883C1314.43 21.9883 1310.23 24.2305 1310.23 29.9446V51.2096H1301.69V29.0043C1301.69 25.0261 1300.53 21.9883 1295.83 21.9883C1292.43 21.9883 1288.23 24.2305 1288.23 29.9446V51.2096H1279.69V15.0446H1287.5L1287.94 18.6611C1290.33 16.1296 1293.66 14.683 1297.35 14.683C1302.85 14.683 1306.39 17.2145 1308.35 20.6863C1310.81 16.9252 1314.71 14.683 1319.35 14.683Z" fill="#000080"/>
<path d="M1357.98 51.5712C1346.47 51.4989 1338.58 44.3382 1338.44 33.5611C1338.29 21.7713 1346.11 14.683 1356.75 14.683C1369.48 14.683 1375.13 23.6519 1373.97 34.9353H1347.63C1348.35 41.0834 1352.62 43.8319 1358.05 43.9042C1362.46 43.9766 1365.58 41.228 1367.24 39.0581L1373.25 44.1936C1370.57 47.6654 1365.5 51.6436 1357.98 51.5712ZM1347.92 28.7873H1364.85C1364.78 24.2305 1361.02 21.9883 1356.75 21.9883C1352.84 21.9883 1349.22 24.1582 1347.92 28.7873Z" fill="#000080"/>
<path d="M1400.69 14.683C1410.68 14.683 1414.44 21.699 1414.44 28.3533V51.2096H1405.9V29.0043C1405.9 25.0261 1404.74 21.9883 1399.17 21.9883C1394.83 21.9883 1390.63 24.2305 1390.63 29.9446V51.2096H1382.09V15.0446H1389.91L1390.34 18.7334C1392.8 16.1296 1396.28 14.683 1400.69 14.683Z" fill="#000080"/>
<path d="M1438.98 43.6873H1443.9V51.2096H1436.66C1430.87 51.2096 1425.73 46.7974 1425.73 38.1179V22.4946H1419.51V15.6956C1424.5 15.6956 1426.17 13.2364 1426.17 9.25822V4.55678H1434.27V15.3339H1442.38V22.4946H1434.27V38.1902C1434.27 41.8067 1435.72 43.6873 1438.98 43.6873Z" fill="#000080"/>
<path d="M686.431 101.718V108.806H676.662V137.449H668.122V108.734H661.898V101.935C666.892 101.935 668.122 100.055 668.122 97.523C668.122 89.9283 673.26 85.5885 679.05 85.5885H686.287V93.1108H681.366C678.109 93.1108 676.662 94.9914 676.662 98.6079V101.646L686.431 101.718Z" fill="#000080"/>
<path d="M706.557 137.811C696.281 137.811 688.248 129.71 688.248 119.439C688.248 109.168 696.281 100.922 706.557 100.922C716.834 100.922 724.867 109.168 724.867 119.439C724.867 129.71 716.834 137.811 706.557 137.811ZM706.63 130.144C711.623 130.144 715.821 125.876 715.748 119.15C715.676 112.495 711.623 108.3 706.63 108.3C701.564 108.3 697.367 112.495 697.439 119.15C697.511 125.876 701.564 130.144 706.63 130.144Z" fill="#000080"/>
<path d="M751.166 100.922C751.673 100.922 752.541 100.995 753.337 101.067L753.265 109.964C742.916 108.806 739.949 113.725 739.949 120.235V137.449H731.409V101.284H739.515L739.876 106.347H740.455C740.455 106.203 744.508 100.922 751.166 100.922Z" fill="#000080"/>
<path d="M815.422 86.8181V94.7021H799.791V137.449H791.251V94.7021H775.619V86.8181H815.422Z" fill="#138808"/>
<path d="M833.005 100.922C833.512 100.922 834.38 100.995 835.176 101.067L835.104 109.964C824.755 108.806 821.788 113.725 821.788 120.235V137.449H813.248V101.284H821.354L821.715 106.347H822.294C822.294 106.203 826.347 100.922 833.005 100.922Z" fill="#138808"/>
<path d="M850.85 137.811C844.264 137.883 838.402 134.773 838.402 127.395C838.402 119.439 845.567 116.473 854.034 116.256C856.856 116.184 860.33 116.329 862.212 116.546V113.725C862.212 111.266 860.619 108.445 854.83 108.228C850.488 108.083 845.711 110.108 843.251 111.772L840.211 105.118C844.626 102.514 849.475 100.922 855.771 100.922C866.626 100.922 870.751 107.938 870.751 114.593V137.449H863.08L862.573 132.531C860.619 135.93 855.264 137.811 850.85 137.811ZM853.527 131.229C857.508 130.722 861.705 128.48 862.212 125.081V122.621C860.258 122.332 856.567 122.187 854.251 122.26C849.185 122.404 846.363 124.068 846.869 127.974C847.159 130.071 848.751 131.807 853.527 131.229Z" fill="#138808"/>
<path d="M899.128 100.922C909.114 100.922 912.878 107.938 912.878 114.593V137.449H904.338V115.244C904.338 111.266 903.18 108.228 897.608 108.228C893.266 108.228 889.068 110.47 889.068 116.184V137.449H880.529V101.284H888.345L888.779 104.973C891.239 102.369 894.713 100.922 899.128 100.922Z" fill="#138808"/>
<path d="M920.117 130.505L925.327 125.442C927.498 127.685 930.176 130.144 935.604 130.433C939.946 130.65 942.334 128.697 942.117 126.31C941.972 124.502 939.584 123.345 936.472 122.621C930.176 121.175 922.216 120.596 921.492 112.061C921.058 106.637 925.617 100.922 935.749 100.922C941.393 100.922 946.676 102.658 949.716 106.709L944.505 111.844C942.262 109.457 940.091 108.083 937.051 107.794C931.985 107.287 929.525 109.385 929.814 111.555C930.104 114.448 934.012 114.737 939.077 115.967C944.433 117.197 950.367 119.294 950.367 126.455C950.078 133.471 944.577 137.811 936.327 137.811C930.104 137.811 923.156 135.496 920.117 130.505Z" fill="#138808"/>
<path d="M976.585 100.922C986.572 100.922 990.335 107.938 990.335 114.593V137.449H981.795V115.244C981.795 111.266 980.638 108.228 975.065 108.228C970.723 108.228 966.526 110.47 966.526 116.184V137.449H957.986V101.284H965.802L966.236 104.973C968.697 102.369 972.17 100.922 976.585 100.922Z" fill="#138808"/>
<path d="M1009.3 137.811C1002.71 137.883 996.85 134.773 996.85 127.395C996.85 119.439 1004.01 116.473 1012.48 116.256C1015.3 116.184 1018.78 116.329 1020.66 116.546V113.725C1020.66 111.266 1019.07 108.445 1013.28 108.228C1008.94 108.083 1004.16 110.108 1001.7 111.772L998.66 105.118C1003.07 102.514 1007.92 100.922 1014.22 100.922C1025.07 100.922 1029.2 107.938 1029.2 114.593V137.449H1021.53L1021.02 132.531C1019.07 135.93 1013.71 137.811 1009.3 137.811ZM1011.98 131.229C1015.96 130.722 1020.15 128.48 1020.66 125.081V122.621C1018.71 122.332 1015.02 122.187 1012.7 122.26C1007.63 122.404 1004.81 124.068 1005.32 127.974C1005.61 130.071 1007.2 131.807 1011.98 131.229Z" fill="#138808"/>
<path d="M1053.74 129.927H1058.66V137.449H1051.42C1045.63 137.449 1040.5 133.037 1040.5 124.357V108.734H1034.27V101.935C1039.27 101.935 1040.93 99.4759 1040.93 95.4977V90.7963H1049.04V101.573H1057.14V108.734H1049.04V124.43C1049.04 128.046 1050.48 129.927 1053.74 129.927Z" fill="#138808"/>
<path d="M1071.91 96.2934C1069.09 96.2934 1066.92 93.9788 1066.92 91.2303C1066.92 88.4817 1069.09 86.2395 1071.91 86.2395C1074.66 86.2395 1076.9 88.4817 1076.9 91.2303C1076.9 93.9788 1074.66 96.2934 1071.91 96.2934ZM1076.18 101.284V137.449H1067.64V108.3H1063.37V101.284H1076.18Z" fill="#138808"/>
<path d="M1101.76 137.811C1091.48 137.811 1083.45 129.71 1083.45 119.439C1083.45 109.168 1091.48 100.922 1101.76 100.922C1112.04 100.922 1120.07 109.168 1120.07 119.439C1120.07 129.71 1112.04 137.811 1101.76 137.811ZM1101.83 130.144C1106.83 130.144 1111.02 125.876 1110.95 119.15C1110.88 112.495 1106.83 108.3 1101.83 108.3C1096.77 108.3 1092.57 112.495 1092.64 119.15C1092.71 125.876 1096.77 130.144 1101.83 130.144Z" fill="#138808"/>
<path d="M1145.21 100.922C1155.2 100.922 1158.96 107.938 1158.96 114.593V137.449H1150.42V115.244C1150.42 111.266 1149.26 108.228 1143.69 108.228C1139.35 108.228 1135.15 110.47 1135.15 116.184V137.449H1126.61V101.284H1134.43L1134.86 104.973C1137.32 102.369 1140.8 100.922 1145.21 100.922Z" fill="#138808"/>
<path d="M1177.92 137.811C1171.34 137.883 1165.48 134.773 1165.48 127.395C1165.48 119.439 1172.64 116.473 1181.11 116.256C1183.93 116.184 1187.4 116.329 1189.28 116.546V113.725C1189.28 111.266 1187.69 108.445 1181.9 108.228C1177.56 108.083 1172.78 110.108 1170.32 111.772L1167.28 105.118C1171.7 102.514 1176.55 100.922 1182.84 100.922C1193.7 100.922 1197.82 107.938 1197.82 114.593V137.449H1190.15L1189.65 132.531C1187.69 135.93 1182.34 137.811 1177.92 137.811ZM1180.6 131.229C1184.58 130.722 1188.78 128.48 1189.28 125.081V122.621C1187.33 122.332 1183.64 122.187 1181.32 122.26C1176.26 122.404 1173.44 124.068 1173.94 127.974C1174.23 130.071 1175.82 131.807 1180.6 131.229Z" fill="#138808"/>
<path d="M1207.6 137.449V85.5885H1216.14V137.449H1207.6Z" fill="#138808"/>
<path d="M1268.84 137.811C1256.32 137.811 1247.49 130.939 1247.49 118.282V86.8181H1256.1V118.426C1256.1 126.31 1261.74 129.348 1268.69 129.348C1275.64 129.348 1280.7 126.31 1280.7 118.426V86.8181H1289.24V118.282C1289.24 130.939 1279.76 137.811 1268.84 137.811Z" fill="#138808"/>
<path d="M1319.06 100.922C1329.05 100.922 1332.82 107.938 1332.82 114.593V137.449H1324.28V115.244C1324.28 111.266 1323.12 108.228 1317.55 108.228C1313.2 108.228 1309.01 110.47 1309.01 116.184V137.449H1300.47V101.284H1308.28L1308.72 104.973C1311.18 102.369 1314.65 100.922 1319.06 100.922Z" fill="#138808"/>
<path d="M1348.59 96.2934C1345.77 96.2934 1343.6 93.9788 1343.6 91.2303C1343.6 88.4817 1345.77 86.2395 1348.59 86.2395C1351.34 86.2395 1353.59 88.4817 1353.59 91.2303C1353.59 93.9788 1351.34 96.2934 1348.59 96.2934ZM1352.86 101.284V137.449H1344.32V108.3H1340.05V101.284H1352.86Z" fill="#138808"/>
<path d="M1378.48 129.927H1383.4V137.449H1376.17C1370.38 137.449 1365.24 133.037 1365.24 124.357V108.734H1359.01V101.935C1364.01 101.935 1365.67 99.4759 1365.67 95.4977V90.7963H1373.78V101.573H1381.88V108.734H1373.78V124.43C1373.78 128.046 1375.22 129.927 1378.48 129.927Z" fill="#138808"/>
<path d="M1421.18 101.284L1407.58 138.028L1402.37 153H1394.05L1399.47 136.798L1386.3 101.284H1394.99L1403.38 126.238H1403.96L1412.57 101.284H1421.18Z" fill="#138808"/>
<line x1="605.898" y1="4.37114e-08" x2="605.898" y2="153" stroke="black" stroke-width="2"/>
</svg>
