<svg width="900" height="900" viewBox="0 0 900 900" fill="none" xmlns="http://www.w3.org/2000/svg">
<path d="M260.583 720.572C260.575 722.295 260.578 727.933 261.746 728.873C264.257 725.459 266.493 720.256 270.983 719.249C292.411 714.451 295.181 750.029 275.058 754.419C258.003 758.137 235.389 751.185 230.506 732.64C227.522 721.302 231.382 707.542 237.731 698.156C251.915 676.24 278.696 668.027 303.583 669.635C318.1 670.571 312.223 667.992 318.577 658.772C321.892 653.96 331.062 647.583 337.011 646.327C348.662 643.87 361.353 643.044 372.265 648.99C375.565 650.748 378.949 653.626 382.167 655.819C385.793 653.973 394.281 650.616 398.096 651.024C411.702 652.479 425.719 652.483 435.713 663.035C442.924 669.429 444.766 681.096 444.959 690.474C445.258 705.064 430.298 716.753 420.579 725.323C409.099 735.443 383.572 733.079 383.939 714.279C384.138 704.11 395.501 690.061 403.779 700.74L404.134 701.206C405.129 707.283 405.552 707.468 403.326 712.956C406.447 709.652 408.302 707.819 408.35 702.946C408.419 695.954 402.253 691.652 395.76 692.039C379.231 692.944 369.517 717.074 383.478 727.603C392.656 734.529 404.463 735.909 415.59 734.701L416.578 735.514C414.719 737.838 413.759 738.81 413.077 741.767C405.658 738.396 394.576 738.541 387.13 741.534C384.141 742.734 382.032 743.929 378.827 745.098C368.67 741.235 358.535 737.227 347.513 736.48C335.279 735.65 318.543 741.077 309.276 749.119C297.806 759.077 294.616 776.985 297.915 791.236C298.647 794.4 301.639 802.152 301.486 804.789C299.111 805.053 290.091 798.215 285.542 797.709C275.66 796.615 266.175 801.708 264.694 812.207C263.811 818.456 266.737 822.042 270.362 826.665L276.086 827.961C272.287 822.244 267.806 817.788 271.576 809.873C274.729 803.102 286.193 800.878 292.036 804.723C302.442 811.574 303.611 831.938 297.143 841.874C295.727 844.951 285.299 852.114 281.781 852.158C273.209 852.272 265.125 858.42 257.847 859.677C246.435 861.645 230.965 860.815 221.28 853.933C213.805 848.62 208.773 842.191 205.116 833.819C201.321 826.072 200.681 825.852 199.143 817.524C196.934 805.558 201.85 803.765 203.536 793.139C203.794 790.001 203.167 785.427 202.601 782.394C200.327 770.213 201.703 756.722 212.976 749.356C216.102 747.313 219.044 743.731 223.117 743.336C230.851 742.611 236.022 749.282 241.497 753.47C253.997 763.028 281.225 763.01 291.065 749.655C298.921 738.99 295.683 724.681 284.873 717.492C276.696 712.056 266.135 711.476 260.583 720.572Z" fill="#AC2123"/>
<path d="M339.049 743.261C351.913 741.002 367.295 748.75 378.506 754.388C390.368 748.363 402.249 742.031 415.79 749.023C419.39 750.881 422.061 753.536 425.955 755.236C438.992 753.944 444.936 750.684 455.711 762.044C461.639 768.402 465.493 776.225 465.625 785.321C465.845 800.636 456.155 822.947 438.723 824.332C433.799 824.723 428.918 820.464 425.555 816.804C424.474 812.137 424.398 807.575 424.143 802.785C417.517 804.741 418.499 825.395 420.85 830.616C432.206 855.814 462.087 865.139 485.523 875.458C491.601 878.134 505.712 880.99 512.233 881.751C519.357 882.577 530.08 881.131 537.458 880.982C549.662 880.037 559.079 875.919 569.688 870.413C576.719 868.4 580.604 862.16 585.525 858.886C603.82 846.7 615.052 829.201 628.231 811.987C637.798 799.489 653.206 790.564 669.303 790.01C676.189 789.773 681.709 790.111 688.779 789.386L689.127 789.966C687.492 793.983 679.125 794.396 675.13 796.413C673.746 797.283 669.189 798.514 667.536 799.186C662.025 801.44 647.537 806.16 643.599 809.645C637.205 815.305 629.51 827.201 624.571 834.272C606.347 861.356 582.414 880.463 550.448 888.711C539.326 891.581 521.616 893.233 509.781 892.847C489.799 892.201 468.029 888.013 448.667 882.915C443.6 881.579 437.939 878.688 432.877 877.084C422.161 873.12 405.391 865.491 397.527 857.242C384.16 843.566 376.374 826.454 365.433 811.161C359.143 802.368 343.308 783.44 331.036 786.284C327.804 787.031 326.386 790.801 325.194 793.495C326.992 792.498 328.835 791.359 330.83 790.832C338.004 788.929 344.322 793.992 345.512 800.966C346.903 809.113 343.115 813.987 335.025 814.848C328.984 815.49 321.361 816.109 316.127 812.273C314.068 810.766 313.182 808.678 311.751 806.688C306.178 799.287 304.442 794.198 303.215 784.926C302.023 775.921 301.747 767.915 307.766 760.268C314.736 751.409 328.01 744.641 339.049 743.261Z" fill="#AC2123"/>
<path d="M416.579 735.512L417.067 735.754C433.608 727.993 438.55 716.844 451.266 705.409C462.947 694.902 478.547 690.789 493.77 695.812C500.797 698.132 506.558 709.584 513.313 713.574C528.412 722.5 538.375 709.193 548.297 731.495C550.402 736.228 552.437 742.293 552.613 747.751C552.881 756.28 551.769 756.812 554.116 764.929L554.498 765.298C562.377 772.751 573.671 778.112 572.981 790.206C572.037 803.113 571.334 819.509 562.281 829.511C546.078 847.405 507.226 843.863 508.694 813.858C509.212 803.276 510.781 799.505 521.464 798.094C524.699 799.61 525.982 800.375 528.667 802.933C528.834 808.118 527.669 813.172 528.887 817.72L529.449 818.23C531.365 816.718 531.906 812.39 532.345 809.995C534.006 801.324 529.282 792.83 520.032 791.96C518.063 791.775 506.65 792.839 504.919 793.599C484.251 802.634 476.522 833.479 492.742 850.271C516.578 874.942 560.817 869.176 583.348 845.191C590.054 838.199 596.927 831.401 604.002 824.892C605.769 825.064 608.511 824.976 609.825 825.231C592.634 849.414 558.756 875.952 528.381 874.849C495.774 873.663 459.945 863.239 434.185 842.488C427.067 836.757 426.796 836.186 425.418 827.472C453.31 845.072 471.525 805.402 469.758 782.859C468.638 768.576 459.172 751.969 444.534 747.935C436.013 745.584 433.166 747.329 424.699 748.164C420.286 745.668 417.835 744.103 413.078 741.765C413.76 738.808 414.72 737.837 416.579 735.512Z" fill="#001F7A"/>
<path d="M586.313 695.827C603.654 694.219 602.076 706.26 612.698 708.989C625.635 712.315 649.041 703.781 655.29 723.548C656.362 726.883 656.274 730.702 657.105 734.015C664.918 765.287 631.977 788.002 608.963 762.492C604.37 757.399 613.994 746.948 611.982 744.057C607.323 743.578 594.825 761.323 606.792 768.974C617.897 776.075 625.684 781.617 640.098 776.15C649.915 771.703 654.433 765.876 665.27 763.331C672.064 761.736 714.827 775.157 707.079 783.234C706.253 783.331 705.928 783.384 705.097 783.168C693.628 780.171 681.011 780.989 669.282 780.742C664.843 780.167 660.998 782.984 657.096 783.766C646.953 785.801 638.555 789.378 630.043 795.407C626.418 797.973 622.045 800.034 618.314 802.816C611.489 807.896 605.812 814.339 599.782 820.359C596.227 825.022 585.962 835.125 581.646 839.159C567.166 852.703 550.309 861.466 530.028 860.187C518.945 859.488 506.724 857.172 498.866 848.229C492.846 840.912 488.24 833.521 488.851 823.73C489.124 819.348 494.028 808.569 498.783 809.061C500.123 810.761 500.343 823.804 501.802 827.636C507.862 843.993 523.471 851.143 540.131 850.615C539.059 850.646 554.013 845.509 553.2 845.966C579.155 831.372 592.826 783.52 563.853 765.34C562.187 764.294 558.781 764.237 558.988 761.415C559.687 750.464 559.151 738.23 554.093 728.281C551.816 723.266 541.889 715.194 541.463 710.127C540.698 701.03 560.522 699.571 566.516 698.582C573.657 697.409 579.765 696.438 586.313 695.827Z" fill="#001F7A"/>
<path d="M405.476 320.524C423.577 318.952 421.79 330.281 411.259 331.902C380.42 336.649 364.005 325.253 364.187 365.543C378.239 362.306 408.264 357.193 408.965 379.022C409.354 391.122 409.095 403.781 409.099 415.94C409.112 438.802 408.582 461.663 407.509 484.501C407.044 495.523 406.737 511.119 405.384 521.916C403.134 539.868 400.027 574.339 393.878 590.924C392.458 594.083 386.678 601.901 383.527 595.894C380.426 589.983 384.091 577.916 385.553 571.14C387.19 563.858 388.538 556.515 389.593 549.127C393.353 523.046 395.157 495.369 396.472 469.006C377.412 469.775 356.356 470.659 354.359 446.071C352.344 421.283 353.093 396.536 354.07 371.582C354.47 361.367 353.653 342.998 359.792 334.009C367.472 325.693 394.247 321.863 405.476 320.524ZM386.608 456.548L397.233 456.653L398.106 417.778L374.969 418.132C371.194 418.163 367.21 418.264 363.453 418.209C363.329 421.085 363.315 423.845 363.462 426.721C364.443 445.935 363.107 456.24 386.608 456.548ZM364.06 375.861C363.102 387.304 363.089 396.455 363.058 407.939L378.917 407.35L398.455 406.59C398.131 392.198 405.125 371.667 384.407 373.735C376.863 374.087 371.593 374.594 364.06 375.861Z" fill="black"/>
<path d="M449.639 310.993C457.365 310.678 456.213 319.486 456.244 324.872C456.27 329.044 456.134 333.268 456.073 337.445C470.087 344.734 473.813 356.481 468.993 371.557C466.668 378.831 460.102 382.474 453.396 385.319C453.511 389.239 453.506 393.279 453.546 397.211C454.543 397.611 455.528 398.038 456.503 398.49C469.059 404.437 470.808 422.801 465.525 434.472C462.906 440.262 456.877 442.428 451.173 444.155L451.12 454.351C454.328 456.579 457.65 459.272 460.239 462.217C470.9 474.337 470.821 509.875 471.458 525.722C471.845 535.39 472.649 545.423 471.981 555.069C471.774 558.105 470.869 564.06 468.14 565.875C467.112 566.556 466.466 566.38 465.323 566.248C460.173 563.352 462.489 540.584 461.83 534.516C459.571 513.633 463.855 483.543 451.252 465.948C450.316 496.336 452.32 527.599 451.691 558.079C451.529 566.016 453.344 586.138 447.552 591.605C443.241 592.91 442.265 587.593 441.382 584.512C440.318 578.017 440.617 570.819 440.648 564.201L440.758 539.908C440.863 516.7 440.454 491.919 441.043 468.896C438.698 470.325 435.719 471.841 434.289 474.249C428.601 483.825 427.134 525.678 426.638 539.429C426.406 545.845 426.748 552.494 425.943 558.848C425.689 560.861 425.231 563.691 423.886 565.282C422.759 566.618 421.765 567.075 420.061 567.237C418.769 566.714 418.012 566.226 417.493 564.855C414.749 557.622 416.026 546.117 416.278 538.616C417.105 518.243 417.313 497.483 423.27 477.795C427.025 465.385 430.34 462.955 441.399 457.396C441.307 452.786 441.311 449.016 441.505 444.384C438.716 443.988 434.472 443.268 431.982 442.134C420.687 436.889 421.482 419.043 425.683 409.317C428.922 401.821 435.881 399.515 442.995 396.981C442.876 393.139 442.801 389.295 442.762 385.452C432.469 384.059 425.245 380.049 423.224 368.686C421.914 361.322 424.505 351.032 428.657 344.871C432.595 339.027 440.011 337.899 446.506 336.842C447.095 329.224 443.882 316.045 449.639 310.993ZM450.228 372.686C457.791 370.546 462.985 363.447 460.691 355.579C459.865 352.738 457.87 350.383 455.198 349.107C452.153 347.631 449.16 347.888 445.838 348.137C442.3 348.882 437.467 350.321 436.019 353.78C430.818 366.206 438.919 373.182 450.228 372.686ZM446.594 433.044C461.412 431.229 463.803 407.968 447.341 408.315C444.12 409.028 442.757 409.471 439.879 411.271C432.616 415.817 431.645 427.529 439.422 431.995C441.755 433.335 443.953 433.005 446.594 433.044Z" fill="black"/>
<path d="M502.938 310.078C507.961 310.997 507.083 320.423 507.157 324.462C507.228 328.296 507.113 332.269 507.078 336.114C520.763 340.112 524.283 349 522.384 362.49C520.925 372.857 515.929 378.153 505.615 380.562C505.698 384.738 505.61 389.155 505.593 393.351C512.246 397.419 518.192 401.674 520.543 409.646C522.459 416.14 522.23 425.747 518.847 431.714C515.964 436.794 511.473 439.103 506.05 440.515L506.16 451.805C511.767 454.217 517.142 457.518 520.837 462.479C531.384 476.638 534.491 541.967 531.749 561.229C531.477 563.136 530.8 566.99 528.871 568.001C527.794 568.563 525.698 568.427 524.674 567.864C522.714 566.788 522.384 564.059 522.165 562.064C521.352 554.694 521.817 546.986 521.734 539.564C521.514 520.425 520.996 493.518 515.986 475.399C514.184 468.886 512.101 466.201 506.221 462.835L507.188 549.574L507.223 571.204C507.228 575.177 507.654 583.131 506.173 586.629C504.687 588.343 501.383 589.921 499.897 587.688C498.096 584.981 497.256 577.77 497.164 574.57C496.782 561.488 496.773 548.375 496.654 535.292L495.991 462.861C494.65 464.589 490.458 469.172 490.063 471.04C485.787 491.624 487.738 513.715 487.215 534.694C487.03 542.108 488.872 558.157 484.424 564.261C483.633 564.498 483.673 564.59 482.798 564.318C480.887 563.72 479.617 561.949 478.817 560.187C475.609 553.125 477.375 492.551 478.413 482.25C478.909 477.315 479.727 472.09 481.546 467.445C484.082 460.981 489.843 456.876 496.035 454.332C495.824 450.13 495.841 445.626 495.784 441.399C489.992 439.72 485.092 438.604 481.273 433.261C477.529 428.025 477.204 419.124 478.426 412.932C480.324 403.339 488.076 397.713 495.767 392.684C495.622 388.791 495.718 384.669 495.749 380.757C487.914 378.244 481.752 375.596 479.388 366.66C477.573 359.824 477.318 352.048 480.913 345.693C485.167 338.177 490.287 337.469 497.911 335.443C497.371 327.003 495.806 315.904 502.938 310.078ZM489.126 360.21C492.673 366.391 495.226 366.774 501.923 367.862C505.281 367.881 508.111 367.999 510.55 365.333C514.628 360.875 512.936 352.323 508.476 348.721C505.549 346.358 503.097 346.144 499.528 346.039C490.48 346.671 488.489 351.958 489.126 360.21ZM503.681 427.977C510.594 426.421 512.787 420.819 511.073 414.236C510.422 411.616 508.722 409.377 506.375 408.042C503.659 406.476 500.886 406.481 497.845 406.608C491.192 408.166 487.377 413.194 489.118 420.091C489.786 422.787 491.543 425.084 493.974 426.429C497.256 428.27 499.985 428.055 503.681 427.977Z" fill="black"/>
<path d="M287.186 185.625C296.154 184.524 314.804 185.647 322.233 191.708C325.413 194.374 327.165 197.056 327.481 201.181C329.046 221.623 323.087 233.776 301.208 235.938C297.155 236.338 290.342 232.96 290.609 228.174C291.33 224.07 299.06 222.808 302.276 222.18C310.185 220.573 316.16 218.765 317.437 209.942C318.723 201.06 311.823 198.36 303.869 198.113C292.52 197.76 276.828 197.122 267.394 204.659C265.746 205.976 264.186 208.659 264.281 210.844C265.379 222.097 281.956 223.428 288.212 230.434C297.241 240.547 297.151 254.07 297.125 266.091C302.879 264.725 308.954 264.247 314.427 261.871C334.265 253.259 328.302 232.516 335.381 228.55C336.673 227.826 338.421 227.674 339.808 228.269C341.368 228.938 342.239 230.531 342.672 232.087C344.857 239.942 340.246 251.664 336.256 258.364C327.993 272.24 311.928 276.099 297.316 279.757C296.451 281.909 295.79 285.751 295.293 288.174C290.619 310.893 281.245 326.729 269.156 346.366C263.786 355.089 249.68 362.775 253.984 346.398C254.876 343.005 263.114 331.686 265.488 327.813C275.307 311.797 280.453 297.9 284.24 279.617C270.676 277.176 260.977 275.942 250.742 265.776C244.372 259.106 239.314 250.142 239.185 240.739C239.124 236.275 241.175 231.454 246.229 232.697C252.506 234.243 250.854 249.316 254.714 253.914C261.985 262.574 275.607 264.234 286.04 265.892C286.105 261.011 286.271 256.124 285.893 251.254C284.245 231.213 255.543 234.979 254.131 214.724C252.649 193.473 269.307 187.244 287.186 185.625Z" fill="black"/>
<path d="M286.869 155.308C301.746 154.34 327.825 157.777 342.843 160.388C367.182 164.621 371.729 207.886 373.779 227.544C374.303 232.575 375.302 261.677 371.464 264.227C360.175 271.726 361.339 247.261 361.035 241.829C359.514 225.655 360.404 192.089 349.28 180.247C339.692 170.039 306.144 167.12 292.516 167.077C280.9 167.074 269.32 168.367 257.991 170.934C230.14 177.526 224.277 191.988 221.601 218.526C220.599 228.464 219.283 238.358 218.793 248.444C218.325 252.204 219.108 261.472 216.565 264.26C211.281 270.053 206.105 265.268 206.011 258.755C205.829 246.192 206.776 234.28 207.989 221.874C208.95 212.038 210.375 202.23 213.399 192.844C224.246 159.558 256.907 157.664 286.869 155.308Z" fill="black"/>
<path d="M284.441 473.428C291.444 473.253 307.354 472.479 312.454 476.658C319.243 482.222 317.268 509.178 317.389 517.501C317.534 527.406 317.169 539.759 311.913 547.916C309.596 551.515 303.254 552.17 299.379 552.442C264.122 553.629 266.115 546.325 264.947 513.48C264.625 504.414 264.24 485.931 268.717 478.293C274.107 474.931 278.271 474.329 284.441 473.428ZM292.64 548.966C301.949 548.632 309.964 548.641 311.677 537.391C314.144 521.192 312.356 504.397 312.52 488.071C312.545 485.562 311.677 481.668 309.645 480.003C305.802 477.225 293.815 477.058 289.373 477.48C281.381 477.871 270.552 476.597 269.992 487.293C269.192 502.56 268.832 517.642 270.366 532.873C271.873 547.85 279.295 548.667 292.64 548.966Z" fill="#8F2325"/>
<path d="M292.958 478.219L294.707 478.553C297.507 480.974 295.534 482.767 296.766 485.804C299.64 486.01 305.585 482.407 309.018 482.139C310.339 487.289 300.128 488.695 296.655 489.311L296.238 489.996C296.798 495.964 304.455 490.449 308.326 494.136C307.984 497.827 299.922 496.54 296.84 496.482C297.717 501.558 298.411 504.067 300.276 508.84C302.781 505.197 304.121 503.663 308.1 501.848C309.542 501.984 308.911 501.694 309.96 502.925C309.865 506.66 304.537 508.185 302.589 511.723C302.642 515.823 311.818 520.371 311.709 525.016L310.82 525.486C308.021 525.57 306.986 524.093 304.816 522.19L300.621 517.98C300.062 524.924 299.544 530.795 301.737 537.497C302.452 539.681 303.895 544.018 302.856 546.057L301.915 546.251C299.436 545.161 299.695 543.007 298.791 540.88C295.025 532.017 295.783 522.828 297.801 513.472C295.376 508.273 293.881 502.072 292.849 496.447C288.135 496.465 283.745 496.799 279.052 497.155C276.974 497.313 275.462 497.577 274.027 496.329C273.964 495.647 273.749 495.164 274.156 494.839C276.981 492.558 289.115 492.787 292.811 492.65C292.072 488.599 291.73 482.178 292.958 478.219Z" fill="#8F2325"/>
<path d="M284.171 504.219C286.051 503.889 289.351 503.924 290.93 505.089C295.308 508.306 294.947 516.071 291.677 519.947C289.859 522.105 287.716 522.271 285.094 522.557C281.986 522.614 279.451 523.01 276.855 520.887C272.891 517.644 272.562 511.47 275.753 507.563C278.119 504.663 280.71 504.601 284.171 504.219ZM287.329 518.488C292.477 515.957 291.683 509.409 285.93 508.385C284.93 508.205 282.459 508.583 281.35 508.719C275.446 510.468 275.516 520.575 287.329 518.488Z" fill="#8F2325"/>
<path d="M277.419 529.757C280.842 529.665 293.254 528.518 295.097 531.225L294.81 532.025C293.499 533.084 292.276 533.106 290.59 533.404C287.184 533.475 275.318 534.512 273.43 531.884L273.818 530.948C274.885 529.871 275.877 529.955 277.419 529.757Z" fill="#8F2325"/>
<path d="M312.183 44.808C313.758 44.7869 315.311 44.8243 316.377 46.2204C322.953 54.8311 305.581 66.9705 299.803 71.6309C305.496 75.9538 316.492 87.5075 318.984 94.4592C319.94 97.1236 318.868 100.522 315.727 101.305C313.763 100.861 313.51 100.603 311.726 99.5085L311.195 99.1785L310.692 99.4997C311.087 104.111 311.561 104.861 308.601 108.991C305.629 113.137 302.028 116.777 298.583 120.534C302.84 124.22 319.193 141.152 318.287 145.741C315.056 162.113 294.476 133.205 289.985 128.733C285.019 133.774 272.829 148.739 267.823 150.509C257.261 148.748 265.376 137.956 269.577 134.081C273.764 130.219 278.388 124.847 282.125 120.516C277.68 116.616 271.511 111.958 268.448 107.117C268.74 103.841 269.617 101.675 270.822 98.7109C268.349 100.767 265.211 103.777 261.944 101.389C258.531 94.3194 277.271 77.7942 282.235 73.314C280.557 71.9605 279.091 70.2897 275.532 67.3199C272.494 64.7851 250.815 50.5512 264.849 46.724C269.946 45.3336 285.25 60.5756 290.561 65.8011C296.294 60.5391 307.081 47.9593 312.183 44.808ZM271.917 98.6854C280.388 102.403 283.799 106.052 290.806 112.14C297.875 106.238 300.271 99.5529 308.304 97.008C305.683 94.6745 292.523 82.4933 290.25 81.643C283.803 86.5881 277.936 93.1624 271.917 98.6854Z" fill="black"/>
<path d="M429.569 134.222C432.489 133.859 441.295 133.955 444.455 133.961C470.009 134.085 495.476 136.987 520.406 142.616C610.63 163.026 689.156 218.212 738.928 296.187C789.333 375.257 805.976 471.215 785.146 562.644C771.237 623.943 741.029 680.347 697.716 725.901C693.37 730.44 680.209 744.155 675.467 747.157C674.069 746.682 674.605 747.1 673.806 745.869C673.823 745.061 673.916 744.151 674.553 743.562C679.483 739.009 684.379 734.509 689.178 729.807C695.238 724.037 704.352 713.697 709.727 707.259C737.403 674.216 758.677 636.305 772.467 595.466C801.656 508.89 795.473 414.29 755.258 332.253C702.01 223.58 596.15 150.349 475.683 138.846C458.373 137.242 440.97 136.921 423.617 137.885C420.079 138.074 397.436 140.211 396.313 139.823C395.683 138.741 395.491 138.614 395.184 137.408C397.528 135.938 425.734 134.419 429.569 134.222Z" fill="black"/>
<path d="M358.909 44.2927C365.79 44.015 368.101 59.7153 367.823 65.0103C366.777 85.6747 368.545 105.503 363.369 125.831C358.979 143.065 332.738 148.389 320.635 136.465C318.805 134.663 318.092 129.602 320.686 128.523C329.437 124.884 339.81 135.378 348.679 127.622C352.501 124.311 352.731 121.099 353.166 116.43C353.237 115.988 353.834 112.524 353.332 112.391C346.687 110.272 328.577 111.573 323.865 106.506C317.047 99.1729 324.288 94.5595 332.857 97.2165C338.958 99.1079 348.495 100.31 354.499 100.727C354.952 94.1557 355.052 88.3554 355.11 81.7548C346.884 81.3127 331.907 81.3672 324.658 76.8966C320.03 73.8543 322.686 66.0812 327.901 66.6244C336.996 67.5718 345.245 69.3437 354.456 69.9322C353.387 59.4411 350.427 52.1246 358.909 44.2927Z" fill="black"/>
<path d="M224.15 47.7578C229.652 50.7399 227.017 69.9471 226.571 75.7563C235.556 75.1894 241.947 72.5241 250.358 69.7872C256.175 67.894 257.676 74.4704 254.26 77.8015C246.32 85.5451 236.289 87.523 225.58 88.1348C225.822 94.3662 226.021 100.599 226.176 106.834C230.05 106.372 234.352 105.901 238.311 104.91C243.729 103.532 250.505 97.6546 256.183 99.4634C258.841 100.31 258 103.438 256.818 105.291C251.004 114.407 237.507 116.201 227.841 118.297C230.661 147.719 252.714 127.063 258.341 130.229C259.407 131.603 259.308 133.716 259.115 135.376C258.789 138.167 257.634 140.384 255.411 142.11C249.742 146.51 240.912 148.744 233.864 147.575C228.735 146.724 224.377 143.982 221.45 139.68C211.712 125.364 211.646 79.5914 215.132 62.4325C216.387 56.2533 218.792 51.3442 224.15 47.7578Z" fill="black"/>
<path d="M179.219 252.984C179.557 253.256 181.503 254.91 181.253 255.232C175.059 263.21 167.274 272.458 161.32 280.47C154.968 289.189 149.032 298.203 143.531 307.482C114.068 356.922 97.4386 412.945 95.1547 470.454C91.6545 553.199 117.987 634.449 169.359 699.409C176.476 708.484 184.235 717.558 192.465 725.618C195.793 728.879 199.015 732.104 202.189 735.514C202.495 736.894 202.185 736.767 201.337 738.397C201.051 738.525 200.631 738.476 200.264 738.481C199.27 737.694 198.321 736.85 197.423 735.958C130.275 670.594 92.195 580.998 91.7327 487.294C90.9457 417.009 111.511 348.142 150.708 289.798C157.782 279.204 170.317 262.032 179.219 252.984Z" fill="black"/>
<path d="M291.565 358.375L293.214 359.262C294.46 361.216 294.378 380.969 294.256 384.522L311.657 384.529C311.525 379.881 311.245 375.265 310.967 370.627C310.911 369.694 311.695 368.772 312.38 368.218L313.105 368.495C316.756 373.727 316.444 395.093 312.484 400.847C309.355 405.394 299.486 405.906 294.325 406.441C294.416 409.423 294.259 418.022 294.153 421.039C293.944 426.96 295.219 445.653 293.991 450.246C292.703 451.643 293.479 451.116 291.429 451.643C289.233 446.51 289.998 414.349 290.002 406.166C269.79 408.116 266.548 401.553 266.877 382.029C266.931 378.814 266.192 370.074 270.546 369.591C273 371.869 271.371 382.045 271.026 385.282C276.607 384.61 284.197 384.735 290.012 384.689C289.692 378.032 288.96 367.702 289.803 360.999C289.895 360.268 291.02 358.991 291.565 358.375ZM271.04 389.214C271.547 393.748 271.603 396.322 274.7 399.877C278.815 402.355 285.19 402.02 289.988 402.1C290.002 399.865 290.312 390.207 289.666 388.804L289.561 388.747L271.04 389.214ZM294.376 388.83C294.355 391.782 294.126 398.825 294.585 401.414C296.124 401.728 296.531 401.626 298.056 401.485C308.108 400.562 311.17 399.166 311.766 388.69L308.529 388.696C304.055 388.767 298.791 388.982 294.376 388.83Z" fill="#AC2123"/>
<path d="M571.394 358.375C572.356 358.73 573.459 358.871 573.481 359.715C573.762 371.747 573.543 389.708 573.547 401.256L573.578 569.53C573.578 577.01 574.29 639.465 573.059 642.18C571.974 641.868 571.943 641.824 570.959 641.249C570.326 633.831 570.857 618.424 570.857 610.439L570.853 547.795L570.835 362.632C570.849 360.77 570.682 360.022 571.394 358.375Z" fill="black"/>
<path d="M622.764 610.05C619.974 609.087 616.928 608.534 614.274 607.352C611.694 606.2 612.16 604.218 612.068 601.797C620.668 604.732 633.109 610.331 641.762 613.961C644.473 614.857 647.426 615.459 648.828 618C648.85 618.808 648.907 620.021 648.024 620.412C637.187 625.229 622.382 630.383 611.914 635.274C612.217 631.82 612.147 629.623 612.024 626.129C615.223 625.119 619.802 623.822 622.782 622.508C622.821 618.355 622.817 614.203 622.764 610.05ZM625.691 620.975L626.231 621.098C628.917 620.399 636.352 618.254 637.692 616.075C633.803 614.589 629.567 613.082 625.849 611.267C625.845 614.176 625.95 618.175 625.691 620.975Z" fill="#AC2123"/>
<path d="M622.763 610.05C619.972 609.087 616.927 608.534 614.272 607.352C611.693 606.2 612.159 604.218 612.066 601.797C620.667 604.732 633.107 610.331 641.76 613.961C640.235 614.11 639.044 614 637.972 614.994L637.691 616.075C633.802 614.589 629.565 613.082 625.848 611.267C625.843 614.176 625.949 618.175 625.689 620.975C624.406 620.843 624.178 621.458 622.78 622.508C622.82 618.355 622.815 614.203 622.763 610.05Z" fill="#8F2325"/>
<path d="M621.628 367.035C629.178 366.603 640.199 366.89 648.166 366.807V375.032C643.46 374.798 638.753 374.612 634.042 374.471C627.121 374.302 621.013 373.946 615.862 378.86C612.786 391.091 617.813 393.799 629.116 394.273C635.519 394.429 641.922 394.333 648.316 393.985L648.184 399.055C638.657 398.321 627.727 399.56 618.886 396.693C611.652 394.348 610.576 384.579 611.784 378.258C613.028 371.719 615.467 369.025 621.628 367.035Z" fill="#AC2123"/>
<path d="M621.207 578.107C615.863 579.856 612.62 584.268 615.301 590.306C615.683 591.167 617.252 591.989 618.258 592.095C627.254 592.956 626.05 581.543 632.466 577.887C637.686 574.917 645.293 576.569 647.86 582.444C649.784 586.856 649.182 591.642 647.46 596.107L646.625 596.669C644.713 596.577 642.362 595.584 640.49 594.929C644.603 593.035 647.17 590.354 645.333 585.05C644.986 584.04 643.483 583.033 642.375 582.906C633.714 581.921 634.685 593.914 628.506 597.333C626.181 598.876 622.288 599.086 619.642 598.194C609.882 594.903 610.809 583.965 612.901 576.336C615.692 576.784 618.451 577.47 621.207 578.107Z" fill="#AC2123"/>
<path d="M640.077 494.203C642.802 495.157 645.509 496.128 648.273 496.972L648.15 502.315C639.554 504.979 629.605 508.499 621.084 510.705C624.226 511.768 647.135 518.364 647.842 519.142C648.348 520.755 648.299 520.72 648.229 522.319L647.662 522.741C643.791 521.99 637.225 519.472 633.147 518.079C626.146 515.736 619.128 513.438 612.102 511.188L612.172 505.831C615.797 504.869 635.92 499.112 637.625 497.213C638.434 495.095 638.104 495.794 640.077 494.203Z" fill="#AC2123"/>
<path d="M611.441 558.118C613.239 546.103 620.222 539.089 632.671 540.922C649.529 543.405 651.265 559.542 646.835 572.527C644.708 571.983 642.823 571.482 640.647 571.121C660.269 554.813 621.641 537.064 614.469 559.88L613.582 560.385C612.197 560.012 612.483 559.788 611.441 558.118Z" fill="#AC2123"/>
<path d="M641.866 408.438C644.089 408.364 646.282 408.277 648.51 408.29L648.058 413.187L623.73 435.442L624.094 436.044L624.951 436.667C624.283 438.974 622.367 438.991 620.249 439.401C617.331 439.524 615.266 439.884 612.581 438.871C610.849 436.934 612.163 435.369 613.754 433.784C615.16 432.866 620.135 428.316 621.585 426.991C626.85 422.175 632.439 417.295 637.511 412.299C637.572 411.131 637.695 411.21 638.166 410.05C639.506 408.792 639.976 408.848 641.866 408.438Z" fill="#AC2123"/>
<path d="M613.754 433.781L613.697 434.465C613.609 435.466 613.46 436.16 613.262 437.144C615.143 439.052 622.042 438.178 623.73 435.44L624.094 436.042L624.951 436.665C624.283 438.972 622.367 438.989 620.249 439.399C617.331 439.522 615.266 439.882 612.581 438.868C610.849 436.932 612.163 435.367 613.754 433.781Z" fill="#AC2123"/>
<path d="M619.704 462.884C628.014 460.383 627.368 449.617 633.767 447.441C645.724 443.376 653.032 456.222 646.924 467.072C644.753 466.645 642.582 466.232 640.407 465.833C642.709 464.325 644.757 463.293 645.729 460.735C646.832 457.83 644.691 452.557 641.202 453.031C633.586 454.073 633.49 468.702 624.05 469.041C620.807 469.159 616.936 468.052 615.09 465.745C614.932 464.813 614.835 464.092 614.738 463.147L615.345 462.651C617.045 462.862 617.986 462.875 619.704 462.884Z" fill="#AC2123"/>
<path d="M612.156 482.925C623.955 479.146 636.194 476.293 648.186 472.352L648.353 480.873C644.609 481.602 624.575 486.541 622.061 487.935C621.521 489.71 621.582 489.692 620.51 491.169L612.125 488.264L612.156 482.925Z" fill="#AC2123"/>
<path d="M637.512 412.299C632.577 411.67 613.804 412.649 612.362 411.361C612.2 409.827 612.09 409.483 612.49 407.953C614.305 407.616 622.36 408.107 624.706 408.182C630.424 408.322 636.145 408.407 641.867 408.437C639.977 408.848 639.507 408.792 638.167 410.049C637.697 411.21 637.574 411.131 637.512 412.299Z" fill="#8F2325"/>
<path d="M624.095 436.04C628.569 436.023 644.402 435.575 647.716 436.156C648.239 437.456 648.103 438.167 648.054 439.56C646.859 440.777 635.411 439.63 633.091 439.577C628.872 439.489 624.46 439.481 620.25 439.398C622.368 438.988 624.284 438.97 624.952 436.663L624.095 436.04Z" fill="#8F2325"/>
<path d="M613.002 446.461C615.555 447.16 618.108 447.661 620.701 448.201C613.551 451.985 610.817 459.79 619.703 462.883C617.985 462.875 617.044 462.861 615.344 462.65L614.737 463.147C614.834 464.092 614.931 464.812 615.089 465.744C610.018 459.926 611.055 453.242 613.002 446.461Z" fill="#8F2325"/>
<path d="M622.059 487.93C625.302 489.503 636.231 493.194 640.077 494.201C638.104 495.792 638.433 495.093 637.624 497.211C635.353 496.002 623.584 492.21 620.508 491.164C621.58 489.688 621.519 489.705 622.059 487.93Z" fill="#8F2325"/>
<path d="M604 824.893C607.814 821.47 614.143 815.506 618.137 812.742C615.834 818.464 613.655 820.538 609.823 825.231C608.509 824.977 605.767 825.064 604 824.893Z" fill="black"/>
<path d="M613.163 570.905C611.731 565.909 611.401 563.246 611.441 558.117C612.482 559.787 612.196 560.011 613.581 560.385L614.468 559.879C613.73 566.783 616.644 567.394 617.575 571.521C616.125 571.912 614.745 571.31 613.163 570.905Z" fill="#8F2325"/>
</svg>
